<svg baseProfile="tiny" xmlns="http://www.w3.org/2000/svg" width="2704" height="91" preserveAspectRatio="xMaxYMax meet" viewBox="0 0 2704 91" ><path fill="#fff" d="M42.155 46.83c-.403.403-1.055.403-1.459 0l-6.753-7.392c-.403-.403-.403-1.055 0-1.459l6.753-7.392c.403-.403 1.055-.403 1.459 0v16.243zm-2.154 27.713c19.589 0 35.526-15.937 35.526-35.526 0-19.59-15.937-35.527-35.526-35.527-19.59 0-35.527 15.937-35.527 35.527 0 19.589 15.936 35.526 35.527 35.526zm0-69.206c18.571 0 33.679 15.108 33.679 33.68 0 18.571-15.108 33.679-33.679 33.679-18.572 0-33.68-15.108-33.68-33.679-.001-18.572 15.109-33.68 33.68-33.68z"/><g transform="translate(104)"><path fill="#fff" d="M37.845 30.587c.404-.403 1.056-.403 1.459 0l6.753 7.392c.403.404.403 1.056 0 1.459l-6.753 7.392c-.404.403-1.056.403-1.459 0v-16.243zm37.681 8.43c0-19.59-15.937-35.527-35.527-35.527-19.589 0-35.525 15.937-35.525 35.527 0 19.589 15.937 35.526 35.526 35.526 19.59 0 35.526-15.937 35.526-35.526zm-1.846 0c0 18.571-15.108 33.679-33.68 33.679-18.571 0-33.679-15.108-33.679-33.679 0-18.572 15.108-33.68 33.679-33.68s33.68 15.108 33.68 33.68z"/></g><g transform="translate(208)"><g fill="#3A9DCD"><path d="M69.612 41.684c0 .553-.448 1.001-1.001 1.001h-57.365c-.553 0-1.001-.448-1.001-1.001v-8.512c0-.553.448-1.001 1.001-1.001h57.365c.553 0 1.001.448 1.001 1.001v8.512zM8.329 46.604c.553 0 1.001-.448 1.001-1.001v-8.513c0-.553-.459-.951-1.012-.951l-3.474-.004c-.516 0-.935.419-.935.935 0 1.848 1.411 3.456 2.926 4.284-1.515.827-2.926 2.435-2.926 4.283 0 .516.382.964.898.964l3.522.003zM71.528 46.604c-.553 0-1.001-.448-1.001-1.001v-8.513c0-.553.459-.951 1.012-.951l3.474-.005c.516 0 .935.419.935.935 0 1.848-1.411 3.456-2.926 4.284 1.515.827 2.926 2.436 2.926 4.284 0 .516-.382.964-.898.964l-3.522.003z"/></g></g><g transform="translate(312)"><g fill="#3A9DCD"><path d="M69.612 41.684c0 .553-.448 1.001-1.001 1.001h-57.365c-.553 0-1.001-.448-1.001-1.001v-8.512c0-.553.448-1.001 1.001-1.001h57.365c.553 0 1.001.448 1.001 1.001v8.512zM8.329 46.604c.553 0 1.001-.448 1.001-1.001v-8.513c0-.553-.459-.951-1.012-.951l-3.474-.004c-.516 0-.935.419-.935.935 0 1.848 1.411 3.456 2.926 4.284-1.515.827-2.926 2.435-2.926 4.283 0 .516.382.964.898.964l3.522.003zM71.528 46.604c-.553 0-1.001-.448-1.001-1.001v-8.513c0-.553.459-.951 1.012-.951l3.474-.005c.516 0 .935.419.935.935 0 1.848-1.411 3.456-2.926 4.284 1.515.827 2.926 2.436 2.926 4.284 0 .516-.382.964-.898.964l-3.522.003z"/></g><path fill="#fff" d="M15.168 35.589h2.716v.692h-1.926v1.084h1.567v.679h-1.567v1.626h-.79v-4.081zm3.481 4.081v-4.081h2.781v.679h-1.998v1.019h1.639v.672h-1.639v1.038h1.998v.673h-2.781zm7.131 0h-.803l-.339-.967h-1.646l-.339.967h-.803l1.495-4.081h.966l1.469 4.081zm-1.959-3.389l-.627 1.763h1.234l-.607-1.763zm3.99.007v3.382h-.797v-3.382h-1.365v-.699h3.526v.699h-1.364zm3.749 3.48c-1.045 0-1.698-.575-1.698-1.639v-2.54h.79v2.429c0 .672.3 1.051.934 1.051.562 0 .888-.313.888-1.012v-2.468h.79v2.461c0 1.111-.62 1.718-1.704 1.718zm3.52-.098h-.797v-4.081h1.43c1.032 0 1.573.49 1.573 1.247 0 .581-.32.979-.875 1.175l1.071 1.659h-.914l-.901-1.495-.587.045v1.45zm.588-2.096c.49-.026.81-.248.81-.692 0-.425-.32-.627-.888-.627h-.522v1.332l.6-.013zm2.508 2.096v-4.081h2.781v.679h-1.997v1.019h1.639v.672h-1.639v1.038h1.998v.673h-2.782zm4.983 0h-1.332v-4.081h1.378c1.397 0 2.207.797 2.207 2.011 0 1.26-.803 2.07-2.253 2.07zm0-3.408h-.536v2.736h.574c.862 0 1.417-.451 1.417-1.358.001-.921-.515-1.378-1.455-1.378zm5.897 3.408h-.81l-1.123-4.081h.843l.718 3.108.843-3.108h.914l.868 3.108.705-3.108h.803l-1.123 4.081h-.816l-.901-3.147-.921 3.147zm6.256.098c-1.201 0-2.089-.79-2.089-2.129 0-1.254.888-2.148 2.096-2.148 1.208 0 2.096.79 2.096 2.122-.001 1.26-.895 2.155-2.103 2.155zm-.007-3.611c-.777 0-1.28.588-1.28 1.456 0 .894.509 1.489 1.306 1.489.777 0 1.28-.588 1.28-1.463 0-.894-.509-1.482-1.306-1.482zm3.749 3.513h-.797v-4.081h1.43c1.032 0 1.573.49 1.573 1.247 0 .581-.32.979-.875 1.175l1.071 1.659h-.914l-.901-1.495-.588.046v1.449zm.588-2.096c.49-.026.81-.248.81-.692 0-.425-.32-.627-.888-.627h-.522v1.332l.6-.013zm4.852-1.985h.947c-.581.672-1.169 1.339-1.75 2.005l1.776 2.077h-.973l-1.541-1.868c-.013.242-.007 1.868-.007 1.868h-.796v-4.081h.797v1.874c.515-.615 1.038-1.248 1.547-1.875z"/></g><g transform="translate(416)"><g><path d="M58.822 9.834c.553.216.661.373.662.989.001 8.906.002 17.812.002 26.718 0 .533-.439.835-.944.665-.139-.047-.291-.078-.437-.078-12.12-.004-24.24-.002-36.36-.009-.287 0-.578-.061-.858-.131-.319-.08-.45-.31-.45-.691 0-4.443.007-8.886-.003-13.329l-.051-12.018c-.001-.452.063-.907.129-1.355.054-.372.514-.633 1.08-.635 1.37-.004 2.739-.003 4.109-.003l25.021.001c2.478 0 4.956.002 7.434-.006.182-.001.364-.076.546-.117l.12-.001zm-37.026 26.953h36.245l.029-.278c-.002-.609-.014-1.218-.011-1.828.008-1.333.035-2.666.034-3.999-.003-3.529-.02-7.057-.026-10.586-.003-1.798-.002-3.596.016-5.394.003-.308-.07-.405-.394-.405-11.847.009-23.693.007-35.54.007h-.353v22.483zm.006-23.083h.358l33.997.001c.534 0 1.068.004 1.602-.006.149-.003.334.018.332-.236-.007-.703-.002-1.407-.002-2.145h-36.286l-.001 2.386zM75.689 68.534c-.057.553-.437.812-.907.981-.1.036-.215.044-.324.044-6.232-.001-12.464-.004-18.695-.006l-.966.009c-.59.009-.869-.259-.869-.849-.001-3.283-.001-6.566 0-9.849.001-1.279.007-2.557.013-3.836.001-.272.066-.532-.103-.805-.143-.23.04-.532.332-.639.156-.057.329-.097.494-.098 2.393-.008 4.787-.009 7.18-.009 2.51-.001 5.021.007 7.531-.001 1.715-.005 3.43-.042 5.144-.04.44 0 .89.075 1.074.586l.097.305c-.001 4.736-.001 9.471-.001 14.207zm-20.233-12.504v12.236h18.705v-12.236h-18.705zm-.023-.814h18.734v-.45h-18.734v.45zM4.233 53.904c.206-.317.512-.422.873-.422l7.152-.004c2.511-.001 5.022.006 7.533-.002 1.715-.006 3.431-.042 5.146-.04.426 0 .882.054 1.06.555.065.184.111.387.111.582.006 3.968.005 7.937.005 11.905 0 .603-.02 1.206.004 1.808.035.869-.659 1.275-1.269 1.275-6.224-.004-12.447-.006-18.671-.009l-.936.009c-.614.01-.885-.251-.885-.862-.001-2.559-.002-5.118 0-7.676l.012-6.043c0-.243.146-.52-.135-.712v-.364zm1.644 14.364h18.714v-12.026h-18.714v12.026zm18.72-13.496h-18.728v.716h18.728v-.716zM39.96 69.564c-3.272 0-6.544-.001-9.817.001-.538 0-.82-.281-.82-.84-.001-4.271-.001-8.542.002-12.813 0-.422.028-.844.039-1.266l-.023-.201c-.254-.543-.032-.909.589-.959l.332-.003c4.111-.006 8.222-.012 12.332-.016 1.486-.001 2.973.011 4.459.005.932-.004 1.865-.03 2.797-.044l.299.025c.684.127.918.314.922 1.158.017 3.938.011 7.876.006 11.814-.001.731-.005 1.465-.059 2.193-.04.544-.549.941-1.119.942-2.599.002-5.197 0-7.796 0h-2.145l.002.004zm9.599-13.387h-18.705v12.098h18.705v-12.098zm.004-1.413h-18.724v.637h18.724v-.637zM50.111 18.271c0 .644.009 1.289-.003 1.933-.01.577-.385 1.044-1.025.834l-.269-.02c-7.131 0-14.261 0-21.392.003-1.041 0-2.083.026-3.124.022-.286-.001-.581-.037-.854-.117-.115-.033-.264-.22-.265-.338-.004-1.146.013-2.292.041-3.438.007-.304-.126-.654.206-.89l-.01-.106c-.04-.359.075-.512.439-.51l1.29.053c4.401.004 8.802.003 13.204.003 3.676 0 7.352.001 11.028.002.499 0 .738.235.737.726v1.843h-.003zm-.667-1.917c-8.564.023-17.099-.011-25.587.017v4.043c8.557-.003 17.069.006 25.587-.004v-4.056zM37.513 33.148v-10.965l.329-.014c3.716-.001 7.432 0 11.148-.006.14 0 .289-.044.416-.104.252-.119.531-.02.578.26.049.295.066.598.064.897-.015 3.116-.035 6.231-.055 9.347-.003.4-.178.603-.543.603-3.938.002-7.876 0-11.814-.001l-.123-.017zm.742-10.335v9.678h10.994v-9.678h-10.994zM50.996 29.877c0-1.496.004-2.991-.001-4.487-.007-2.245-.021-4.49-.03-6.735-.003-.755-.001-1.511 0-2.266 0-.387.08-.459.457-.454 1.59.024 3.18.044 4.771.066l.151-.001c.554-.037.662.047.659.598-.014 2.486-.04 4.971-.057 7.457-.019 2.788-.036 5.576-.045 8.364-.002.733.032 1.465.046 2.198.006.298-.226.512-.451.383-.373-.215-.775-.177-1.165-.184-1.279-.024-2.558-.015-3.837-.019-.422-.001-.525-.087-.523-.501.006-.943.028-1.886.039-2.83.006-.53.001-1.06.001-1.59l-.015.001zm5.317 4.285l-.096-17.513h-4.579v17.513h4.675zM36.457 22.169v10.999h-1.305c-3.645 0-7.291.005-10.936-.012-.27-.001-.553-.141-.8-.273-.091-.049-.131-.26-.132-.398l-.008-4.29c-.012-1.81-.038-3.62-.056-5.43-.005-.526.114-.635.633-.598l.06.001c3.171.02 6.342.046 9.512.057.894.003 1.788-.036 2.682-.056h.35zm-.645.649h-11.772v9.704h11.772v-9.704zM56.444 13.097c-.391.001-.747-.287-.759-.612-.013-.358.326-.659.74-.655.41.004.705.276.702.648-.002.377-.269.619-.683.619zM52.654 12.56c.003.353-.269.627-.625.629-.365.003-.751-.34-.761-.675-.01-.351.329-.686.691-.683.358.002.691.352.695.729zM54.123 11.891c.392-.001.705.289.708.654.002.311-.323.617-.65.611-.359-.006-.706-.317-.708-.635-.002-.362.274-.63.65-.63z"/></g><g><path d="M40.611 37.145v12.23c.513.048 1.056-.008 1.637.046l-2.781 2.73-3.166-2.73c.698-.003 1.236-.01 1.863-.004l-.092-12.272h2.539zM16.042 50.072c0-1.52-.059-3.034.001-4.492l1.421 1.358c.776-.927 1.536-1.827 2.287-2.733 1.468-1.771 2.918-3.557 4.405-5.311.469-.553 1.027-1.032 1.559-1.529.224-.21.486-.175.704.031l1.119.065c.056.056 1.216.194 1.164.249-.302.317-.858 1.022-1.072 1.289-.356.445-.726.881-1.099 1.312-1.676 1.936-3.354 3.871-5.033 5.805-.696.801-2.343 2.599-2.343 2.599s.7.652.889.909c.077.105.118.29.078.406-.023.069-.238.11-.362.1-.982-.078-3.387-.042-3.718-.058zM62.291 46.954c.468-.455 1.345-1.392 1.345-1.392s-.006 3.109.053 4.519c-.325.019-2.66.058-3.796.058-.332.028-.464-.164-.278-.438.196-.287.309-.403.551-.656.15-.157.319-.407.319-.407s-2.448-2.775-3.583-4.083c-1.095-1.261-2.207-2.507-3.307-3.764-.501-.573-.997-1.15-1.48-1.738-.259-.314-1.229-1.269-.879-1.48.058-.035 1.744.121 2.055-.175.218-.207.476-.24.705-.034.483.434.986.854 1.415 1.337.797.898 1.552 1.834 2.317 2.76 1.394 1.687 2.782 3.378 4.174 5.066l.389.427z"/></g></g><g transform="translate(520)"><g fill="#333"><path d="M9.648 43.944h15.111v30.222h-15.111zM32.314 25.056h15.111v49.111h-15.111zM54.981 6.167h15.111v68h-15.111z"/></g></g><g transform="translate(624)"><path d="M8.994 68.917l-.274-.068c-1.335-.025-2.671-.056-4.006-.057-.326 0-.399-.104-.399-.412.008-5.098.019-10.195-.011-15.292-.004-.67.123-1.094.724-1.499.801-.539 1.464-1.282 2.204-1.917 1.045-.896 2.097-1.785 3.165-2.655 1.288-1.048 2.6-2.066 3.892-3.108.926-.747 1.836-1.514 2.757-2.268.193-.158.387-.348.614-.422.186-.06.481-.045.625.068.637.497 1.242 1.035 1.849 1.57.393.346.768.712 1.177 1.094l1.283-1.115c1.366-1.179 2.732-2.359 4.099-3.536.845-.727 1.692-1.452 2.54-2.175.932-.794 1.864-1.589 2.8-2.378 1.028-.866 2.061-1.725 3.091-2.588 1.189-.996 2.382-1.988 3.564-2.994.313-.266.667-.483.727-.986.046-.391.649-.51 1.006-.224.589.471 1.165.958 1.735 1.451 1.176 1.015 2.359 2.023 3.513 3.062 1.35 1.216 2.673 2.462 4.005 3.698.506.469 1.003.947 1.523 1.438.609-.544 1.198-1.079 1.797-1.601.756-.66 1.521-1.309 2.282-1.963l2.382-2.046c.926-.796 1.855-1.59 2.776-2.391.478-.416.94-.849 1.413-1.27l2.886-2.566c.661-.589 1.307-1.195 1.981-1.768.769-.655 1.562-1.283 2.345-1.923l.15-.118c.111-.352.413-.446.711-.549h.066c.547.142.85.482.854 1.06.02 2.897.051 5.795.055 8.692.01 6.518.008 13.037.008 19.555 0 4.108-.004 8.216-.007 12.324-.001 1.626-.001 3.253-.005 4.879-.001.607-.327.923-.938.924l-4.505.004c-8.001.001-16.002.002-24.003.006-.159 0-.317.04-.476.061h-8.619l-.214-.044c-1.044-.009-2.088-.02-3.133-.017-.376.001-.752.039-1.128.061h-8.159l-.185-.035c-2.183-.012-4.365-.025-6.547-.029-.3-.001-.6.042-.901.064-1.027.003-2.058.003-3.089.003zm60.229-1.627v-25.004c-.745.648-1.419 1.248-2.107 1.831-.945.801-1.89 1.6-2.853 2.38-1.138.922-2.285 1.832-3.443 2.729-1.242.962-2.494 1.912-3.755 2.848-1.385 1.028-2.782 2.039-4.182 3.045-.376.27-.77.523-1.183.73-.288.145-.538-.042-.6-.349-.023-.114-.091-.231-.17-.318-.153-.171-.325-.325-.494-.481-1.238-1.143-2.474-2.288-3.718-3.425-.986-.901-1.98-1.792-2.975-2.683-1.034-.925-2.081-1.838-3.11-2.769-.534-.484-1.043-.996-1.575-1.507-.541.428-1.077.839-1.599 1.267-1.088.894-2.176 1.787-3.248 2.7-1.099.936-2.162 1.913-3.268 2.839-1.691 1.416-3.395 2.817-5.114 4.198-1.386 1.113-2.8 2.192-4.21 3.274-.172.132-.266.243-.256.475.022.516-.407.788-.885.573-.156-.07-.31-.167-.435-.284-1.142-1.054-2.299-2.093-3.41-3.18-1.593-1.558-3.265-3.04-4.735-4.797l-.233.279c-1.006.99-2.006 1.986-3.024 2.963-.647.621-1.325 1.209-1.985 1.817-.69.635-.681.638-.678 1.394.011 2.923.017 5.845.025 8.768v.688c21.104-.001 42.161-.001 63.22-.001zm-17.174-12.937l.572-.471c1.223-.975 2.44-1.956 3.671-2.92 1.402-1.098 2.825-2.169 4.224-3.271.983-.774 1.945-1.576 2.911-2.372.907-.747 1.811-1.498 2.708-2.258.791-.67 1.574-1.348 2.351-2.034.396-.349.782-.654.762-1.318-.053-1.817-.01-3.638-.005-5.457.008-2.931.015-5.862.022-8.794v-1.737l-.201.096c-.912.798-1.827 1.592-2.73 2.4-.791.707-1.558 1.44-2.353 2.142-1.136 1.004-2.286 1.991-3.433 2.982-.949.82-1.901 1.638-2.856 2.451-1.12.954-2.239 1.91-3.37 2.85-1.129.939-2.163 2.031-3.721 2.384-3.334-3.217-6.772-6.37-10.387-9.364-.929.798-1.816 1.575-2.72 2.332-1.483 1.241-2.979 2.466-4.465 3.703-1.982 1.651-3.958 3.307-5.937 4.961-1.634 1.365-3.268 2.73-4.898 4.1-.076.064-.143.166-.167.262-.164.658-.874.909-1.367.444-.557-.525-1.076-1.091-1.603-1.647-.349-.368-.684-.75-1.015-1.114-.522.417-1.032.829-1.546 1.234-1.398 1.101-2.805 2.19-4.195 3.301-2.031 1.624-4.052 3.26-6.069 4.901-.115.093-.211.28-.215.426-.023.778-.015 1.557-.014 2.335l.036.202.091-.014c1.355-1.154 2.709-2.308 4.063-3.464.498-.425.988-.86 1.496-1.274.298-.243.562-.17.749.16.063.112.132.23.226.314.755.664 1.527 1.308 2.273 1.982 1.185 1.071 2.351 2.162 3.53 3.24.686.627 1.383 1.244 2.083 1.874l.134-.073c.783-.664 1.566-1.327 2.346-1.995 1.146-.981 2.288-1.967 3.435-2.946l3.721-3.164c1.279-1.094 2.541-2.207 3.829-3.29 1.295-1.088 2.607-2.156 3.923-3.218.345-.278.708-.566 1.111-.731.52-.213 1.062.217.941.707-.067.271.039.402.211.544l.327.274c1.093.977 2.177 1.963 3.279 2.93 1.092.957 2.217 1.877 3.297 2.846 1.344 1.206 2.656 2.447 3.983 3.672l.962.877z"/><g><path d="M69.791 27.267c-.414-.067-.838-.097-1.24-.206-1.877-.51-3.238-1.597-3.72-3.552-.317-1.285.038-2.471.743-3.558.228-.352.5-.676.757-1.02-.61-.731-1.21-1.434-1.792-2.152l-1.385-1.767c-.074-.091-.219-.173-.333-.176-1.387-.033-2.776-.037-4.162-.083-.248-.008-.546-.118-.724-.284-.339-.315-.139-.852.322-.946.212-.043.431-.067.647-.069 1.335-.014 2.671-.008 4.006-.036.427-.009.735.118 1.014.45.932 1.111 1.889 2.201 2.84 3.295.228.262.472.511.685.741 2.05-.858 3.975-.709 5.722.644.971.752 1.567 1.782 1.757 3.019l.062.106v1.25l-.062.1c-.361 1.901-1.432 3.222-3.244 3.909-.435.165-.909.225-1.365.334l-.528.001zm.32-8.555c-.853-.043-1.63.211-2.34.702-1.017.704-1.599 1.679-1.723 2.896-.117 1.154.32 2.094 1.236 2.823.95.756 2.049 1.032 3.209.86 2.061-.305 3.408-2.465 3.061-4.311-.279-1.477-1.646-3.077-3.443-2.97zM55.513 13.055l.388.147c.269.141.456.359.431.675-.026.333-.26.526-.56.609-.207.057-.43.075-.646.074l-7.435-.057c-.456-.003-.793-.178-.995-.593v-.197c.12-.389.404-.566.791-.588l.749-.005c.386-.015.772-.043 1.158-.065h6.119zM46.696 18.516c.167-.417.4-.587.833-.59 2.568-.023 5.136-.047 7.704-.059.211-.001.432.054.631.13.3.113.489.351.469.679-.02.332-.255.527-.556.613-.196.056-.408.077-.613.075-2.502-.016-5.003-.04-7.505-.059-.445-.003-.767-.191-.963-.592v-.197zM51.622 15.491c1.316 0 2.631-.002 3.947.001.505.001.866.402.793.866-.054.341-.42.577-.917.577-1.36.003-2.719.002-4.078 0-1.107-.001-2.214-.002-3.321-.011-.228-.002-.46-.022-.684-.064-.365-.069-.636-.427-.595-.752.045-.358.383-.614.842-.615 1.338-.005 2.676-.002 4.013-.002z"/></g></g><g transform="translate(728)"><path fill="#fff" d="M58.281 55.053h-15.579v-50.199h-5.542v50.199h-15.444c-.906.906-.906 2.375 0 3.284l16.641 15.202c.906.906 2.375.906 3.284 0l16.641-15.202c.908-.906.908-2.378-.001-3.284z"/></g><g transform="translate(832)"><g fill="#fff"><path d="M39.363 40.979c.953-.401 1.978-.654 2.965-1.096-.457-.86-.894-1.847-1.293-2.644-.141-.292-.243-.651-.51-.838-6.347 1.84-13.383 2.989-21.592 2.967-.165 6.627 2.241 11.249 5.414 14.756 3.66-5.665 8.53-10.423 15.016-13.145zM43.679 43.49c-7.31 2.637-13.052 6.841-16.625 13.213 2.401 1.888 5.662 3.516 9.475 4.19 4.194.739 8.593-.044 11.73-1.417-.943-5.407-2.464-10.547-4.19-15.081-.113-.293-.098-.696-.39-.905zM30.987 20.933c-5.876 2.933-10 7.623-11.667 14.761 7.305-.085 13.791-.991 19.526-2.644-2.481-4.178-4.975-8.338-7.859-12.117zM40 4.316c-19.711 0-35.684 15.978-35.684 35.684s15.973 35.684 35.684 35.684c17.966 0 32.826-13.283 35.31-30.561.243-1.181.355-2.396.335-3.648.019-.488.039-.982.039-1.475 0-19.706-15.978-35.684-35.684-35.684zm18.243 52.449c-1.968 2.156-4.306 3.888-7.086 5.286-2.765 1.392-5.92 2.462-9.662 2.644-7.888.384-14.068-2.651-18.175-6.442-4.233-3.908-7.431-9.142-7.99-16.693-.296-4.015.491-7.563 1.677-10.569 1.23-3.125 2.688-5.468 4.7-7.667 2.819-3.077 6.649-5.755 11.473-7.089 1.73-.481 3.533-.787 5.351-.904 8.068-.52 14.034 2.731 18.233 6.508 4.19 3.762 7.485 9.232 7.927 16.756.468 7.918-2.574 13.947-6.448 18.17zM47.742 42.459c1.628 4.731 3.125 9.589 4.058 15.018 1.166-.654 2.202-1.558 3.159-2.515 2.916-2.919 5.069-6.7 5.925-11.599-3.628-1.062-8.716-1.604-13.142-.904zM43.038 31.827c4.413-1.791 8.34-4.073 10.953-7.669-3.465-2.916-8.462-5.553-14.821-5.217-1.541.078-2.678.192-4.058.515 2.372 3.482 4.899 7.094 6.96 10.763.3.529.504 1.159.966 1.608zM44.583 35.047c.496.967.996 2.046 1.419 3.03.151.36.214.78.515 1.033 4.899-.549 10.345-.141 14.627.707-.165-5.786-2.085-9.815-4.768-13.084-3.061 3.639-7.122 6.283-11.793 8.314z"/></g></g><g transform="translate(936)"><path fill="#fff" d="M4.082 23.747l10.292 16.613 48.123-19.632-44.951 24.754-2.184 13.36 6.444-6.484 7.78 12.554 46.331-49.824z"/></g><g transform="translate(1040)"><path fill="#fff" d="M40.162 4.282c-19.817 0-35.88 16.065-35.88 35.877 0 19.819 16.063 35.885 35.88 35.885s35.88-16.065 35.88-35.885c-.003-19.812-16.063-35.877-35.88-35.877m10.409 21.268h-5.035c-.995 0-2.005 1.043-2.005 1.817v5.177h7.03c-.282 3.969-.86 7.601-.86 7.601h-6.203v22.505h-9.246v-22.504h-4.497v-7.571h4.497v-6.193c0-1.134-.228-8.713 9.474-8.713h6.847v7.88l-.002.001z"/></g><g transform="translate(1144)"><path fill="#fff" d="M66.791 19.292s-17.738-2.958-29.583-2.958c-11.833 0-17.75-5.917-17.75-5.917v-5.917h-5.917v71h5.917v-35.5s5.917 5.917 17.75 5.917l29.583 2.958-8.875-14.792 8.875-14.791z"/></g><g transform="translate(1248)"><path fill="#333" d="M72.624 33.562h-3.262c-1.496 0-3.083-1.166-3.524-2.597l-1.876-4.552c-.701-1.313-.415-3.26.639-4.317l2.317-2.311c1.057-1.06 1.057-2.788 0-3.848l-3.854-3.843c-1.051-1.057-2.783-1.057-3.84 0l-2.32 2.314c-1.054 1.057-3.003 1.346-4.319.636l-4.543-1.87c-1.425-.442-2.597-2.029-2.597-3.525v-3.262c0-1.493-1.225-2.721-2.724-2.721h-5.435c-1.496 0-2.721 1.228-2.721 2.721v3.263c0 1.496-1.166 3.083-2.594 3.525l-4.549 1.87c-1.322.71-3.26.424-4.32-.636l-2.317-2.314c-1.057-1.057-2.782-1.057-3.843 0l-3.842 3.841c-1.063 1.057-1.063 2.788 0 3.845l2.305 2.314c1.057 1.057 1.351 3.003.639 4.317l-1.87 4.555c-.448 1.428-2.029 2.597-3.525 2.597l-3.265-.003c-1.496 0-2.721 1.222-2.721 2.718v5.435c0 1.493 1.225 2.718 2.721 2.718h3.265c1.496.003 3.077 1.172 3.519 2.6l1.876 4.552c.71 1.316.418 3.265-.639 4.32l-2.311 2.311c-1.057 1.057-1.057 2.785 0 3.848l3.848 3.845c1.057 1.057 2.782 1.057 3.843 0l2.317-2.311c1.054-1.054 2.997-1.343 4.308-.633l4.561 1.876c1.425.442 2.594 2.026 2.594 3.522v3.254c0 1.493 1.225 2.718 2.721 2.718h5.435c1.499 0 2.724-1.225 2.724-2.718v-3.254c0-1.496 1.169-3.08 2.597-3.522l4.558-1.876c1.313-.71 3.257-.421 4.32.633l2.306 2.311c1.054 1.057 2.785 1.057 3.84 0l3.854-3.845c1.057-1.06 1.057-2.788 0-3.848l-2.317-2.311c-1.051-1.051-1.34-3.003-.639-4.319l1.876-4.552c.442-1.425 2.038-2.597 3.524-2.597h3.259c1.496 0 2.715-1.222 2.715-2.718v-5.441c.001-1.491-1.221-2.715-2.714-2.715zm-19.015 5.435c0 7.508-6.086 13.589-13.592 13.589-7.511 0-13.595-6.08-13.595-13.589 0-7.505 6.083-13.589 13.595-13.589 7.503-.003 13.592 6.084 13.592 13.589z"/></g><g transform="translate(1352)"><g fill="#fff"><ellipse transform="matrix(.262 .965 -.965 .262 53.759 -7.87)" cx="32.026" cy="31.219" rx="6.676" ry="4.768"/><path d="M39.795 3.557c-20.128 0-36.444 16.316-36.444 36.444s16.316 36.441 36.444 36.441 36.444-16.314 36.444-36.441-16.316-36.444-36.444-36.444zm1.863 27.786c0 5.659-5.3 6.36-5.3 8.767s7.028 4.335 7.028 10.306c0 9.971-12.333 9.407-12.333 9.407s-10.657.385-10.657-7.641c0-8.03 12.095-7.706 12.717-7.706-.154-1.837-1.384-1.534-1.384-2.44v-2.25s-9.149 1.028-9.149-7.833c0-8.865 10.47-9.121 10.47-9.121h10.336c0 1.577-4.72 1.02-4.72 1.863 2.675 1.21 2.992 3.254 2.992 6.648zm21.127.803h-7.198v7.193h-2.116v-7.193h-7.193v-2.116h7.193v-7.2h2.116v7.2h7.198v2.116z"/><ellipse transform="matrix(.998 -.068 .068 .998 -3.421 2.308)" cx="32.338" cy="51.629" rx="7.744" ry="5.649"/></g></g><g transform="translate(1456)"><path fill="#fff" d="M40.077 2.762c-20.567 0-37.238 16.673-37.238 37.24 0 20.562 16.67 37.235 37.238 37.235 20.562 0 37.232-16.673 37.232-37.235 0-20.567-16.67-37.24-37.232-37.24m-13.591 48.273c-6.095 0-11.035-4.942-11.035-11.032 0-6.098 4.939-11.043 11.035-11.043s11.04 4.945 11.04 11.043c0 6.092-4.945 11.032-11.04 11.032m27.179 0c-6.095 0-11.04-4.942-11.04-11.032 0-6.098 4.945-11.043 11.04-11.043s11.035 4.945 11.035 11.043c0 6.092-4.94 11.032-11.035 11.032"/></g><g transform="translate(1560)"><g fill="#010101"><path d="M69.153 61.597l-12.664-12.669c-.176-.174-.377-.312-.564-.459 2.591-3.977 4.105-8.712 4.105-13.81 0-14.013-11.353-25.371-25.371-25.371-14.01 0-25.371 11.358-25.371 25.371 0 14.015 11.361 25.371 25.371 25.371 5.096 0 9.839-1.517 13.818-4.107.147.19.28.385.454.558l12.664 12.669c1.047 1.044 2.414 1.565 3.776 1.565 1.367 0 2.732-.521 3.782-1.562 2.08-2.09 2.08-5.471 0-7.556zm-34.494-9.582c-9.572 0-17.359-7.788-17.359-17.359s7.788-17.359 17.359-17.359c9.566 0 17.359 7.788 17.359 17.359s-7.793 17.359-17.359 17.359zM65.371 72.049c-1.779 0-3.456-.694-4.722-1.955l-12.431-12.441c-4.113 2.43-8.776 3.71-13.556 3.71-14.726 0-26.706-11.98-26.706-26.706s11.98-26.707 26.706-26.707 26.706 11.98 26.706 26.706c0 4.78-1.279 9.441-3.71 13.551l12.437 12.445c2.599 2.604 2.599 6.839 0 9.441-1.265 1.262-2.942 1.956-4.724 1.956zm-16.587-17.924l.75.98c.179.238.254.345.347.438l12.656 12.661c1.52 1.514 4.153 1.509 5.667 0 1.557-1.562 1.557-4.102 0-5.664l-12.661-12.669-.28-.23-.985-.75.529-1.151c2.542-3.912 3.888-8.437 3.888-13.083 0-13.252-10.781-24.036-24.036-24.036-13.252 0-24.036 10.784-24.036 24.036 0 13.254 10.784 24.036 24.036 24.036 4.65 0 9.179-1.346 13.089-3.891l1.036-.677zm-14.125-.775c-10.309 0-18.694-8.388-18.694-18.694 0-10.309 8.386-18.694 18.694-18.694 10.306 0 18.694 8.386 18.694 18.694 0 10.306-8.385 18.694-18.694 18.694zm0-34.718c-8.837 0-16.024 7.187-16.024 16.024s7.187 16.024 16.024 16.024 16.024-7.187 16.024-16.024-7.187-16.024-16.024-16.024z"/></g></g><g transform="translate(1664)"><path fill="#010101" d="M57.28 23.066c0-9.543-7.74-17.28-17.283-17.28-9.54 0-17.277 7.737-17.277 17.28 0 8.362 5.937 15.33 13.824 16.93v34.904l6.909.006v-34.91c7.89-1.6 13.827-8.568 13.827-16.93z"/></g><g transform="translate(1768)"><path fill="#fff" d="M39.573 6.374c-13.753 0-24.943 11.19-24.943 24.941 0 17.786 21.343 40.914 22.253 41.887.695.748 1.668 1.173 2.69 1.173 1.02 0 1.993-.425 2.688-1.173.909-.973 22.255-24.103 22.255-41.887 0-13.753-11.19-24.941-24.943-24.941zm-9.845 24.157c0-5.44 4.409-9.849 9.845-9.849 5.438 0 9.845 4.407 9.845 9.849 0 5.438-4.407 9.845-9.845 9.845s-9.845-4.41-9.845-9.845z"/></g><g transform="translate(1872)"><g><path d="M37.315 71.961c-.622-.217-.798-.822-1.114-1.299-.278-.42-.508-.871-.776-1.298-.053-.085-.187-.17-.283-.169-.381.004-.762.065-1.142.059-.194-.004-.432-.053-.572-.173-.456-.39-.874-.798-.883-1.489-.009-.711-.112-1.42-.174-2.13-.039-.453-.086-.905-.113-1.359l.047-.46c.005-1.272-.018-2.545.01-3.817.024-1.145-.023-2.283-.266-3.4-.222-1.021-.409-2.066-.787-3.032-.503-1.287-1.145-2.524-1.782-3.754-.9-1.737-1.883-3.431-2.769-5.175-.703-1.385-1.243-2.844-1.521-4.379-.178-.981-.208-1.978-.084-2.975.098-.788.135-1.585.263-2.368.252-1.542.658-3.048 1.344-4.458.404-.831.859-1.642 1.353-2.422.218-.345.585-.597.894-.882l.817-.717c1.255-1.199 2.66-2.195 4.161-3.057 1.213-.697 2.548-1.058 3.895-1.38 1.494-.357 3.017-.302 4.525-.228 1.374.067 2.701.462 4.001.936 1.432.522 2.654 1.377 3.87 2.266l2.451 2.058c1.423 1.043 1.978 2.596 2.655 4.085.576 1.266.867 2.624 1.111 3.986.116.648.147 1.312.209 1.97.03.32.047.641.064.962.082 1.617-.275 3.155-.832 4.659-.633 1.712-1.493 3.316-2.355 4.918-.713 1.325-1.477 2.622-2.173 3.956-.754 1.444-1.297 2.969-1.58 4.58-.126.719-.277 1.435-.37 2.159-.043.333.046.68.038 1.02-.031 1.373-.075 2.745-.119 4.117l-.052.965c-.002.129.054.257.075.388.019.121.071.26.033.363-.246.659-.137 1.345-.076 1.999.035.379.056.714-.064 1.069-.245.723-.889 1.207-1.669 1.212-.35.002-.702-.031-1.051-.061-.203-.017-.347.052-.491.197-.77.778-1.408 2.561-2.018 2.561-2.235-.003-4.467-.003-6.7-.003zm-3.242-14.385h13.593c.061-.359.103-.665.167-.966.194-.913.331-1.845.607-2.732.713-2.296 1.933-4.354 3.136-6.417 1.065-1.826 2.073-3.683 2.815-5.671.36-.965.624-1.961.689-2.988.044-.692-.039-1.392-.046-2.089-.011-1.257-.285-2.47-.567-3.685-.461-1.984-1.491-3.646-2.881-5.101-.774-.811-1.655-1.497-2.558-2.16-.824-.605-1.651-1.203-2.593-1.605-.725-.309-1.467-.582-2.258-.693-.875-.123-1.743-.325-2.621-.379-1.292-.08-2.573.054-3.847.344-1.091.249-2.161.535-3.12 1.107-.784.468-1.513 1.027-2.264 1.55-1.137.793-2.157 1.716-3 2.818-.677.885-1.289 1.818-1.653 2.881-.591 1.723-.909 3.502-.994 5.32-.064 1.37.052 2.718.485 4.037.774 2.356 1.998 4.488 3.207 6.632.698 1.237 1.382 2.484 2.022 3.751.961 1.903 1.471 3.94 1.681 6.046zm14.148 1.671l-14.643 2.377v1.827l2.071-.351c1.053-.176 2.106-.36 3.161-.522.803-.123 1.61-.218 2.415-.326l2.262-.305 1.711-.239c.521-.07 1.044-.123 1.563-.202.462-.07.919-.164 1.369-.246l.091-2.013zm-14.462 7.209c.565-.107 1.107-.224 1.653-.311 1.369-.218 2.739-.425 4.11-.632 1.667-.252 3.334-.502 5.002-.747 1.058-.155 2.119-.295 3.177-.447.166-.024.322-.076.32-.302-.006-.516-.002-1.032-.002-1.552-4.77.722-9.614 1.15-14.419 2.081l.159 1.91zm14.228-1.027l-.462.083c-.764.109-1.527.219-2.291.321l-2.388.306c-.54.071-1.079.148-1.617.227l-1.826.273-1.644.241c-.69.105-1.38.21-2.069.324-.577.095-1.154.197-1.727.314-.073.015-.15.136-.173.222-.018.066.022.198.075.224.16.08.339.17.511.171 1.574.013 3.148.015 4.721.006 2.384-.013 4.768-.04 7.152-.055.278-.002.557.027.835.056.27.027.791-.36.808-.639.041-.67.063-1.343.095-2.074zm-4.038-6.595l-.002-.06h-10.383v1.718c3.474-.554 6.93-1.106 10.385-1.658zM71.302 37.911c-.702.467-1.485.725-2.305.872-1.539.277-3.097.306-4.65.239-1.232-.053-2.473-.146-3.642-.61-.362-.143-.722-.294-.959-.633-.301-.431-.169-.95.336-1.093.49-.139 1.005-.252 1.511-.264 1.527-.036 3.056-.019 4.584-.02.406-.001.815-.024 1.218.013.934.086 1.869.179 2.797.317.462.069.858.317 1.11.74v.439zm-1.947-.161c-1.3-.291-5.076-.609-8.144-.261.722.512 7.024.714 8.144.261zM42.26 6.24c.331.196.382.541.43.869.177 1.212.397 2.422.488 3.642.082 1.107.061 2.226.002 3.336-.036.681-.24 1.351-.349 2.029-.082.51-.448.847-.721 1.238-.177.252-.505.176-.645-.13-.344-.751-.632-1.514-.648-2.361-.025-1.289-.106-2.577-.111-3.866-.003-.997.062-1.995.123-2.991.021-.346.082-.699.195-1.024.061-.177.257-.319.417-.445.152-.12.336-.199.506-.297h.313zm-.327 9.443c.062-2.125.19-4.255-.155-6.373-.088 2.126-.186 4.252.155 6.373zM9.337 35.658c.243-.359.643-.304.994-.37.1-.019.207-.003.321-.061l-.544-.105-.029-.068c.332-.131.659-.361.996-.375 1.203-.049 2.409-.046 3.613-.018.69.016 1.385.084 2.066.194.685.111 1.367.269 2.03.474.412.128.788.374.819.899.019.321-.14.535-.42.609-.495.132-.999.273-1.506.307-.943.064-1.893.099-2.837.065-1.631-.058-3.254-.215-4.797-.814-.291-.113-.548-.268-.706-.551v-.186zm8.858.619l.006-.118c-.512-.102-1.022-.227-1.538-.3-.766-.108-1.537-.187-2.307-.264-.566-.057-1.135-.098-1.703-.132-.636-.039-1.274-.281-1.907.063-.216.117-.478.15-.719.222l.004.107c2.689.755 5.418.762 8.164.422zM56.762 50.295c.321.114.592.18.836.301 1.278.634 2.5 1.36 3.571 2.315.736.656 1.471 1.316 2.179 2.002.294.285.534.631.767.971.1.145.157.341.17.518.033.47-.334.78-.781.625-.676-.234-1.355-.478-1.992-.798-1.289-.648-2.452-1.486-3.51-2.474-.342-.32-.776-.539-1.153-.824-.487-.369-.968-.75-1.158-1.372-.088-.289.039-.59.297-.737l.259-.193.515-.334zm1.239 2.093c.305.718 4.066 3.524 5.014 3.58-.983-1.263-3.946-3.184-5.014-3.58zM20.728 20.871l-.164-.364c.3.015.566-.028.792.048 1.769.596 3.246 1.586 4.216 3.229.249.422.427.866.351 1.375-.053.358-.294.579-.66.61-.7.06-1.316-.215-1.919-.504-1.506-.721-2.863-1.68-4.127-2.758-.537-.458-.964-1.049-1.425-1.594-.108-.127-.164-.305-.221-.468-.081-.23-.073-.486.136-.619.174-.111.453-.22.615-.155.653.262 1.281.588 1.915.898.155.076.294.18.491.302zm4.322 4.031c-.49-1.318-1.467-2.138-2.603-2.81.164.18.358.328.537.493.474.436.948.873 1.407 1.326.069.068.056.218.081.329-.102-.028-.226-.028-.303-.089-.555-.434-1.088-.896-1.652-1.317-1.125-.842-2.3-1.605-3.597-2.162l-.401-.119c.797 1.489 5.39 4.538 6.531 4.349zM62.356 17.011c-.057.703-.375 1.304-.789 1.848-1.049 1.379-2.312 2.522-3.873 3.295-.415.206-.885.356-1.343.403-.605.061-.998-.509-.745-1.059.2-.436.465-.859.774-1.226 1-1.188 2.164-2.211 3.363-3.192l1.15-.892c.347-.284.719-.232 1.043-.031.285.177.448.484.42.854zm-1.006-.094c-1.774 1.449-3.475 2.845-4.743 4.688.073.02.125.015.166-.009.609-.361 1.238-.693 1.818-1.095.937-.649 1.708-1.477 2.337-2.426.207-.314.415-.651.422-1.158zM27.211 53.021c-.216 1.221-.751 2.243-1.694 3.05-.609.522-1.267.954-2.033 1.197-.22.069-.475.122-.693.079-.503-.099-.755-.582-.494-1.077.275-.521.614-1.048 1.047-1.436.844-.758 1.772-1.421 2.666-2.124l.162-.136c.257-.365.731-.427 1.101-.137.321.252.297.43-.062.584zm-4.021 3.345c1.037-.246 2.558-1.709 2.643-2.538-.938.79-1.912 1.489-2.643 2.538zM62.801 40.219c.627.031 1.275-.017 1.784.394.255.206.429.534.587.834.111.21-.038.421-.225.514-.281.139-.581.269-.887.32-.898.151-1.796.081-2.68-.122-.359-.082-.715-.214-.895-.591-.172-.358-.08-.705.266-.908.637-.374 1.348-.415 2.05-.441zm-.834 1.099c.723.16 1.447.235 2.178.05-.722-.206-1.449-.17-2.178-.05zM44.289 15.304c.05-.58.103-1.23.167-1.878.011-.109.051-.224.109-.317.123-.2.268-.371.162-.646-.025-.064.173-.283.3-.321.235-.07.501-.023.606.241.131.331.285.677.304 1.023.057 1.024.048 2.053-.246 3.048-.066.222-.204.469-.385.602-.348.256-.816.056-.898-.381-.08-.425-.079-.863-.119-1.371zM15.445 40.304c-.126-.024-.324-.038-.506-.1-.281-.095-.433-.334-.456-.609-.021-.254.142-.469.379-.553.527-.186 1.057-.377 1.602-.493.448-.096.918-.093 1.379-.126.332-.024.579.437.381.759-.108.176-.285.329-.463.44-.685.426-1.443.627-2.316.682zM60.854 34.346c-.289-.072-.501-.166-.561-.437-.064-.291.148-.395.374-.475.295-.105.585-.23.887-.309.122-.032.3-.003.396.072.076.059.109.242.081.348-.037.139-.126.305-.243.372-.297.169-.621.289-.934.429zM44.211 46.714c.522.268 1.059.417 1.6.256.291-.087.575-.312.779-.547.168-.193.325-.291.549-.238.231.054.338.245.311.476-.053.449-.123.897-.195 1.343-.118.73-.241 1.46-.365 2.189-.198 1.164-.388 2.329-.602 3.489-.083.452-.22.894-.34 1.338-.075.278-.279.468-.55.461-.188-.005-.421-.119-.541-.262-.095-.114-.092-.355-.059-.525.25-1.277.524-2.55.779-3.827.188-.943.359-1.889.538-2.839-.906.083-1.782 0-2.59-.478-.074-.044-.227-.029-.305.019-.824.507-1.72.679-2.672.604-.143-.011-.301-.009-.423-.071-.341-.176-.627-.075-.956.065-1.219.52-2.312.228-3.3-.595l-.196-.184.08.465c.207 1.066.418 2.131.622 3.197.141.735.28 1.47.406 2.208.068.395.124.794.152 1.193.024.339-.182.566-.49.608-.328.045-.62-.149-.688-.484-.057-.282-.084-.569-.127-.854-.106-.701-.206-1.403-.321-2.103-.137-.83-.278-1.659-.433-2.485-.147-.786-.313-1.568-.47-2.352l-.089-.486c-.038-.309.15-.57.525-.756.285-.141.498-.014.691.179.395.396.772.812 1.181 1.193.554.515 1.199.637 1.957.341l-.291-.427c-.299-.432-.408-.916-.276-1.415.171-.646.584-.991 1.205-1.031.541-.035.983.244 1.265.742.327.578.309 1.157.054 1.748l-.134.272c.757.13 1.427-.041 2.048-.424.055-.034.063-.198.043-.292-.142-.682-.111-1.331.301-1.926.434-.627 1.286-.587 1.643.089.355.67.146 1.293-.181 1.901l-.135.225zm-4.832-1.301c-.309.354-.235.827.15 1.065.252-.453.212-.766-.15-1.065z"/></g><path d="M36.498 55.427c.36.011.574.203.566.509-.007.266-.242.451-.559.439-.322-.013-.576-.249-.565-.527.01-.293.195-.432.558-.421z"/></g><g transform="translate(1976)"><g><path d="M6.274 48.595v-21.704l.054-.206c.014-.205-.016-.418.031-.614.275-1.144 1.669-2.304 2.841-2.36.73-.035 1.461-.056 2.192-.057 3.778-.005 7.555-.001 11.333 0h.949v-.393c0-4.266 0-8.532.001-12.797 0-.249 0-.499.014-.748.021-.368.344-.575.882-.575h46.648l1.15.001c.446.004.682.199.788.628l.118.255v31.199c-.077.138-.198.268-.221.414-.073.464-.254.646-.727.646-5.148-.001-10.296-.002-15.444-.004h-2.139l.047.31c.38 1.356.755 2.714 1.148 4.066.502 1.725 1.028 3.443 1.524 5.17.155.54.484 1.065.243 1.668l.001.146c.018.242.049.484.053.727.007.437-.16.597-.601.597h-5.884v13.084999999999999c0 .446.036.895-.007 1.337-.108 1.132-1.138 2.151-2.315 2.273l-.213.115h-12.385l-.399-.117c-.881-.144-1.545-.592-1.758-1.476-.176-.73-.29-1.492-.305-2.242-.04-2.122-.017-4.244-.013-6.367.005-2.847.016-5.694.024-8.541v-.898h-.406c-7.801-.001-15.603 0-23.404-.006-.349 0-.71-.006-1.044-.092-1.067-.274-1.74-1.041-2.228-1.967-.245-.459-.37-.98-.548-1.473zm21.744-24.953l.197.008c3.488-.017 6.975-.036 10.463-.052 1.258-.006 2.518.036 3.773-.023.807-.038 1.528.175 2.208.535.34.18.694.452.881.775.245.422.332.936.484 1.412.064.201.163.404.17.609.035 1.148.059 2.296.063 3.444.009 2.585.004 5.169.004 7.754v.243h22.905l-.09-25.008h-41.057c-.001 3.438-.001 6.859-.001 10.303zm-16.909 3.737v.31c-.057 3.945.113 7.893-.111 11.837-.065 1.145-.057 2.296-.063 3.444-.01 1.739.004 3.479-.009 5.218-.002.289.084.355.363.355 7.44-.007 14.879-.006 22.319-.006h.329c0-.54-.021-1.041.005-1.54.029-.559.026-1.123.229-1.664.229-.608.513-1.191 1.152-1.426.438-.161.927-.235 1.396-.253 1.001-.037 2.004-.013 3.007-.013h.474v-16.374c-9.702.21-19.376.027-29.091.112zm16.009-3.738l.034-.462c-.004-2.442-.008-4.884-.019-7.326-.004-.893-.024-1.785-.037-2.678-.005-.39.213-.685.652-.681 1.662.014 3.324-.01 4.985-.013l5.657-.001c2.08-.005 4.16-.026 6.24-.025l5.835.031c1.728 0 3.456-.033 5.184-.031 1.901.003 3.803.037 5.704.045 1.975.008 3.951.002 5.926.002l2.088-.004c.383-.001.738.352.729.777-.042 2.13-.064 4.261-.067 6.392-.008 5.924-.004 11.847-.004 17.771 0 .268-.028.541.014.802.099.608-.189.977-.803.977l-21.73-.004h-1.225v1.836h25.62v-30.671h-46.8v13.263h2.017zm6.813 25.895h-.38c-2.027-.011-4.054-.028-6.08-.031-1.407-.002-2.814.021-4.221.021-1.162 0-2.325-.023-3.487-.026l-3.373.013c-.978-.001-1.956-.017-2.933-.022-.972-.006-1.944-.004-2.917-.013-.388-.003-.604-.222-.607-.593-.031-3.454.005-6.907-.093-10.363-.109-3.796-.015-7.598-.035-11.397-.003-.656.323-1.004 1.012-1.003 7.372.007 14.744-.001 22.115.007 2.444.003 4.888.037 7.332.061.154.002.313.025.461.069.386.113.636.434.641.837.008.635-.004 1.271 0 1.907.015 2.471.039 4.943.049 7.414.009 2.29.006 4.58.008 6.87v.327h3.302v-3.172c.001-3.479.002-6.958.002-10.437 0-.944-.023-1.888.01-2.83.018-.496-.047-.958-.249-1.405-.043-.095-.069-.236-.144-.273-.401-.198-.739-.467-1.263-.456-1.735.037-3.472-.032-5.208-.035-5.48-.01-10.959-.009-16.439-.011-3.086-.001-6.173.004-9.259 0-.966-.001-1.932-.015-2.898-.041-.359-.01-.657.1-.873.371-.353.445-.541.966-.538 1.533.008 1.704.049 3.408.047 5.112-.003 2.599-.037 5.198-.046 7.798-.009 2.791.011 5.583-.016 8.374-.006.643.185 1.184.535 1.688.427.616.905.981 1.779.976 7.745-.047 15.49-.028 23.235-.028.108 0 .229.025.32-.016.086-.039.192-.145.198-.228.027-.311.013-.626.013-.998zm8.409 20.882h5.838c.712-.001 1.3-.42 1.436-1.079.099-.483.178-.98.179-1.471.012-6.949.007-13.898.013-20.847 0-.29.047-.581.09-.869.038-.254-.224-.895-.462-.973-.382-.126-.775-.248-1.172-.287-.396-.039-.803.045-1.205.043-3.557-.015-7.113-.037-10.67-.053-.143-.001-.328-.002-.421.08-.355.313-.655.691-.668 1.186-.015.568.046 1.137.048 1.706.015 6.514.025 13.029.034 19.543.001.379-.057.762-.02 1.136.041.411.143.818.249 1.218.125.472.415.667.922.667h5.809zm14.508-17.585c-1.032-3.528-2.096-7.004-2.992-10.573h-7.599v1.315l.088.017c.839.037 1.679.055 2.516.116.507.037.994.198 1.388.536.716.615 1.014 1.432 1.021 2.35.015 1.984.005 3.969.005 5.954v.285h5.573zm-5.569 1.408h5.756v-.611h-5.756v.611zM42.944 36.27c.699-.049 1.211.439 1.241 1.075.036.766-.552 1.397-1.254 1.398-.623.001-1.131-.544-1.141-1.311-.009-.749.425-1.162 1.154-1.162zM49.268 56.968v9.964c0 .489-.204.634-.687.512-.157-.04-.329-.034-.494-.033-1.749.005-3.497.013-5.246.021-1.172.005-2.344.019-3.516.017-.933-.002-1.867-.01-2.8-.044-.383-.014-.568-.32-.491-.698l.024-.321c.001-2.565.009-5.129-.001-7.694-.012-3.152-.038-6.304-.056-9.456-.004-.782-.003-1.564 0-2.345.001-.379.231-.558.602-.489l.323.013c3.302.003 6.603.004 9.905.011.647.001 1.294.032 1.94.045.347.007.497.162.497.533v9.964zm-12.266-9.628c-.058 6.47-.134 12.876-.116 19.287h11.447v-19.287h-11.331zM42.871 69.944c-.592.065-1.108-.476-1.088-1.005.027-.713.428-1.024.973-1.048.573-.025 1.217.588 1.195 1.101-.025.588-.577 1.024-1.08.952z"/></g><g><path fill="#fff" d="M63.651 26.315c-.213-.727-.412-1.432-.63-2.131-.072-.23-.166-.466-.304-.661-.202-.288-.617-.383-.897-.254-.27.124-.432.476-.375.827l.141.781.382 2.003-1.006.37c-1.025.391-2.055.77-3.07 1.185-.414.169-.515.462-.379.827.181.486.444.664.888.541 1.16-.321 2.315-.663 3.472-.996l.475-.133c.114.528.201 1.021.328 1.503.152.577.31 1.155.519 1.713.159.426.635.632 1.068.543.349-.072.582-.415.593-.88l-.016-.323c-.062-.377-.13-.753-.201-1.129l-.381-2.019.292-.124c.876-.314 1.756-.615 2.626-.945.467-.177.601-.457.496-.895-.123-.514-.466-.822-.926-.761-.395.053-.789.15-1.169.272-.641.206-1.269.45-1.926.686zm-9.782-5.504l2.807 2.146.932-1.136-2.889-2.207-.85 1.197zm-35.997 9.724c-1.253.65-2.01 1.679-2.475 2.981l1.333.613c.365-1.062.969-1.893 1.971-2.39l-.829-1.204zm18.649-6.883c.278-.533.512-1.042.801-1.518.288-.475.632-.918.966-1.397l-1.126-.867c-.698.723-1.75 2.475-1.913 3.188l1.272.594zm-20.575 17.778c.82 1.089 1.885 1.761 3.164 2.172l.556-1.356c-1.085-.337-1.973-.904-2.643-1.805l-1.077.989zm4.137-9.956l3.452.478.274-1.384c-1.214-.272-2.405-.469-3.643-.49l-.083 1.396zm32.979-12.905l-3.332-1.527-.536 1.367 3.184 1.46.684-1.3zm-23.969 13.149l-3.456-.681-.334 1.429 3.573.706.217-1.454zm.989 10.024l-3.534.525.201 1.453 3.554-.529-.221-1.449zm3.055-11.94c-.663.923-1.507 1.552-2.569 1.899l.586 1.342c1.294-.441 2.298-1.201 3.09-2.275l-1.107-.966zm2.427 11.303l-3.631.328.192 1.455 3.505-.317-.066-1.466zm6.693 13.33l1.465-.073-.223-3.603-1.463.14.221 3.536zm-2.797-34.832l3.043-1.589-.507-1.278c-1.207.408-2.284.974-3.297 1.723l.761 1.144zm-14.706 22.911h-3.515v1.447h3.608l-.093-1.447zm12.974-1.189l-.538 1.363c.931.243 1.631.78 2.25 1.442.137.147.594.189.738.055.234-.219.443-.464.669-.705-.853-.951-1.793-1.794-3.119-2.155zm20.273-17.089l1.795 1.64.993-.944-1.803-1.686-.985.99zm-16.238 24.931l1.418-.357c-.179-.639-.348-1.25-.526-1.858-.015-.051-.089-.12-.137-.121-.474-.009-.949-.006-1.429-.006l.674 2.342zm-6.084-22.333c-.493 0-.943-.003-1.393.005-.051.001-.135.056-.148.102-.132.478-.253.96-.383 1.462l1.414.389.51-1.958z"/><path d="M45.506 60.922c-.777-.321-1.553-.646-2.335-.955-.085-.033-.224.007-.312.057-.659.381-1.358.653-2.099.821l-.252.021c.609-1.876 1.637-3.477 2.67-5.149.937 1.711 1.868 3.361 2.387 5.204l-.059.001zM45.919 16.276l1.844.254-.205 1.39-3.479-.226c0-.403-.004-.841.006-1.279l.124-.139h1.71zM14.896 36.387l.094-.781 1.441.079v3.445l-1.36.166-.175-1.199v-1.71zM63.651 26.315c.656-.236 1.285-.48 1.926-.687.38-.123.774-.22 1.169-.272.46-.061.803.247.926.761.105.437-.029.718-.496.895-.87.33-1.75.63-2.626.945l-.292.124.381 2.019c.07.376.138.752.201 1.129l.016.323c-.011.465-.244.808-.593.88-.433.09-.908-.116-1.068-.543-.208-.558-.366-1.136-.519-1.713-.127-.482-.215-.974-.328-1.503l-.475.133c-1.157.333-2.312.675-3.472.996-.444.123-.707-.056-.888-.541-.136-.365-.035-.658.379-.827 1.015-.415 2.045-.794 3.07-1.185l1.006-.37-.382-2.003-.141-.781c-.058-.351.105-.704.375-.827.28-.128.694-.034.897.254.137.196.232.431.304.661.219.7.417 1.405.63 2.132zM53.869 20.811l.851-1.198 2.889 2.207-.932 1.136-2.808-2.145zM17.872 30.535l.829 1.204c-1.002.497-1.607 1.327-1.971 2.39l-1.333-.613c.466-1.302 1.223-2.331 2.475-2.981zM36.521 23.652l-1.271-.594c.163-.713 1.215-2.465 1.913-3.188l1.126.867c-.335.479-.678.921-.966 1.397-.289.476-.524.985-.802 1.518zM15.946 41.43l1.077-.989c.67.9 1.558 1.467 2.643 1.805l-.556 1.356c-1.279-.411-2.345-1.083-3.164-2.172zM20.083 31.474l.084-1.396c1.238.021 2.429.217 3.643.49l-.274 1.384-3.453-.478zM53.062 18.569l-.683 1.301-3.184-1.46.536-1.367 3.331 1.526zM29.093 31.718l-.218 1.453-3.573-.706.334-1.429 3.457.682zM30.082 41.742l.222 1.449-3.554.529-.201-1.453 3.533-.525zM33.137 29.802l1.106.966c-.792 1.075-1.796 1.835-3.09 2.275l-.586-1.342c1.064-.347 1.907-.976 2.57-1.899zM35.564 41.105l.065 1.466-3.505.317-.192-1.455 3.632-.328zM42.257 54.435l-.221-3.536 1.463-.14.223 3.603-1.465.073zM39.46 19.603l-.76-1.144c1.014-.749 2.09-1.315 3.297-1.723l.507 1.278-3.044 1.589zM24.754 42.514l.092 1.447h-3.608v-1.447h3.516zM37.728 41.325c1.326.36 2.266 1.204 3.118 2.155-.226.241-.435.486-.669.705-.144.135-.6.092-.738-.055-.619-.662-1.32-1.199-2.25-1.442l.539-1.363zM58.001 24.236l.985-.991 1.803 1.686-.993.944-1.795-1.639zM41.763 49.167l-.674-2.342c.48 0 .955-.004 1.429.006.048.001.122.07.137.121.178.609.347 1.22.526 1.858l-1.418.357zM35.679 26.834l-.51 1.957-1.414-.389c.13-.502.251-.983.383-1.462.013-.046.096-.101.148-.102.45-.007.901-.004 1.393-.004z"/></g></g><g transform="translate(2080)"><path fill="#fff" d="M58.784 72.5l-18.871-20.968-18.697 20.968v-65h37.568z"/></g><g transform="translate(2184)"><g><path d="M58.526 15.625c-1.135-.358-2.187-.679-3.232-1.021-.87-.285-1.755-.443-2.669-.362-1.353.12-2.748.106-3.962.827-1.71 1.016-3.079 2.36-3.633 4.34-.372 1.332-.586 2.713-.323 4.083.292 1.519.868 2.949 1.84 4.186.388.494.486.875.25 1.211-.118.167-.282.302-.427.449-.649.656-1.303 1.307-1.949 1.966-.674.687-1.341 1.379-2.01 2.07-1.44 1.488-2.881 2.975-4.317 4.466-.285.296-.55.612-.83.926l-.988-1.344 8.606-8.926c-.983-1.462-1.478-3.075-1.747-4.78-.274-1.74-.198-3.44.444-5.094.503-1.296 1.29-2.388 2.322-3.324 1.006-.913 2.071-1.714 3.387-2.122 1.18-.366 2.38-.76 3.619-.636 1.303.13 2.596.409 3.876.698.92.207 1.815.527 2.714.818.297.096.584.24.852.4.109.065.24.248.219.348-.101.492-.125.994-.489 1.426-1.003 1.192-1.957 2.425-2.928 3.644-1.053 1.322-2.106 2.645-3.154 3.97-.142.18-.262.378-.409.592 1.919 1.896 4.174 3.298 6.468 4.805 1.098-1.519 2.158-3.012 3.248-4.485.898-1.214 1.83-2.401 2.744-3.603l.465-.648c.21-.277.495-.442.843-.391.369.054.613.26.745.647.092.27.307.51.505.729 1.475 1.637 2.528 3.534 3.313 5.569.64 1.66 1.092 3.401.801 5.192-.176 1.084-.586 2.134-.939 3.183-.75 2.231-2.434 3.57-4.424 4.651-1.29.701-2.681 1.05-4.083 1.337-.754.154-1.569.089-2.348.019-.857-.077-1.717-.22-2.551-.429-1.021-.256-2.02-.603-3.023-.926l-.794-.333c-.101-.032-.286.003-.349.078-1.208 1.449-2.395 2.916-3.605 4.363-1.132 1.354-2.283 2.692-3.431 4.033-.354.413-.721.814-1.109 1.251l-.975-1.293c2.879-3.378 5.747-6.742 8.679-10.181.878.321 1.835.665 2.788 1.02 1.241.462 2.514.829 3.839.85 1.835.029 3.664-.099 5.393-.821 1.615-.675 2.972-1.649 3.918-3.17.935-1.503 1.415-3.123 1.297-4.875-.056-.84-.334-1.666-.529-2.494-.406-1.715-1.275-3.204-2.276-4.629-.367-.522-.726-1.05-1.111-1.607-.595.768-1.201 1.519-1.774 2.295-1 1.354-1.994 2.714-2.962 4.091-.451.642-.845 1.326-1.248 2.002-.207.348-.717.477-1.195.213-.579-.319-1.162-.646-1.695-1.035-1.656-1.208-3.29-2.446-4.93-3.676l-1.142-.888c-.512-.389-.555-.663-.224-1.211.892-1.477 2.026-2.764 3.132-4.077.763-.906 1.463-1.864 2.197-2.793.396-.498.804-.988 1.28-1.574zM31.729 42.324l1.083 1.249c-1.264 1.357-2.541 2.71-3.798 4.083-1.304 1.424-2.58 2.874-3.883 4.299-1.075 1.176-2.187 2.318-3.253 3.502-.533.592-.989 1.251-1.498 1.865-.364.438-.777.835-1.137 1.276-.672.821-1.329 1.654-1.979 2.493-.692.895-1.464 1.746-1.871 2.822-.171.451-.285.947-.304 1.427-.023.585.036 1.185.143 1.762.157.844.686 1.513 1.17 2.196.73 1.03 1.731 1.739 2.834 2.29 1.008.503 2.08.338 3.143.126 1.203-.24 2.018-1.065 2.845-1.858 1.516-1.452 3.036-2.902 4.497-4.41 1.395-1.44 2.822-2.871 4.044-4.452 1.506-1.949 3.229-3.691 4.849-5.53.529-.6 1.031-1.223 1.574-1.871l1.189 1.36c-.408.456-.807.908-1.212 1.353-.507.558-1.026 1.106-1.529 1.668-1.072 1.196-2.141 2.395-3.204 3.599-.645.73-1.261 1.485-1.916 2.205-.833.917-1.657 1.846-2.546 2.707-1.703 1.648-3.473 3.226-5.166 4.883-.786.768-1.583 1.464-2.653 1.794-2.038.63-3.897.372-5.686-.866-1.311-.908-2.291-2.054-3.092-3.39-.598-.998-.815-2.078-.847-3.253-.045-1.669.692-2.99 1.635-4.224 1.186-1.554 2.461-3.04 3.685-4.565.598-.745 1.153-1.524 1.753-2.266.381-.471.81-.903 1.216-1.354 1.268-1.41 2.535-2.821 3.804-4.23.496-.551.992-1.102 1.496-1.645 1.085-1.167 2.18-2.325 3.261-3.496.458-.499.893-1.022 1.353-1.549zM43.332 45.921l-.726-.982c.514-.469 1.047-.916 1.533-1.408.82-.83 1.613-1.687 2.413-2.538.491-.522 1.021-1.017 1.445-1.589.63-.852.985-1.815.783-2.906-.107-.574-.585-.785-1.237-.734-1.101.087-1.896.716-2.669 1.381-.781.673-1.527 1.389-2.264 2.111-.795.78-1.56 1.589-2.35 2.397l-.043-.036c-.566-.788-.562-.784.14-1.503 1.037-1.061 2.021-2.181 3.118-3.175.76-.689 1.398-1.558 2.441-1.908.955-.32 1.894-.43 2.874-.09.763.264 1.071.843 1.145 1.512.166 1.506-.322 2.829-1.319 3.953-.588.663-1.221 1.285-1.84 1.921l-3.192 3.269-.252.325zM34.682 46.736l.566.871c-.454.468-.919.94-1.376 1.42-1.36 1.425-2.754 2.82-4.063 4.29-1.076 1.208-2.187 2.393-3.065 3.768-.499.781-.364 2.037.36 2.621.179.144.441.185.664.273.239.093.645.123.541.448-.07.218-.433.438-.693.481-.619.102-1.096-.271-1.466-.709-.547-.647-.91-1.399-.85-2.274.022-.325.1-.688.276-.952.562-.842 1.152-1.668 1.786-2.456.706-.879 1.462-1.717 2.214-2.558.43-.48.897-.926 1.341-1.394 1.029-1.084 2.049-2.175 3.083-3.253.2-.211.444-.378.682-.576zM24.274 65.797c-.04 1.17-.492 2.138-1.548 2.769-1.015.607-2.274.486-3.034-.491-.297-.381-.637-.746-.849-1.172-.531-1.069-.231-2.068.392-3.002.449-.673 1.091-1.102 1.883-1.186 1.002-.107 1.864.258 2.502 1.057.462.579.675 1.254.654 2.025zm-2.754-1.707l-.04-.093c-.312.133-.676.204-.926.412-.738.614-1.028 1.684-.196 2.659.371.435.76.668 1.346.521.74-.185 1.405-1.097 1.261-1.994-.159-.98-.579-1.456-1.445-1.505zM37.549 50.682l.889 1.04c-.986.951-1.969 1.889-2.941 2.84-.809.793-1.608 1.596-2.403 2.402-.828.841-1.646 1.692-2.468 2.539l-.183.178c-.208.169-.444.228-.66.048-.228-.19-.134-.435.01-.618.399-.505.804-1.009 1.241-1.481.898-.971 1.823-1.918 2.73-2.882.748-.796 1.486-1.602 2.229-2.402l1.556-1.664z"/></g><g><path d="M15.458 4.705c.291.184.393.441.37.788-.07 1.052-.046 2.097.242 3.126.354 1.264 1.189 1.998 2.439 2.305.233.057.459.149.694.188.294.048.45.223.61.457.215.315.101.584-.252.657-2.345.486-3.205 2.232-3.635 4.308-.095.459.044.965.058 1.449.008.262-.045.537-.332.62-.164.047-.436.049-.525-.049-.143-.159-.245-.42-.241-.635.02-1.124-.159-2.2-.501-3.275-.426-1.338-1.387-1.959-2.657-2.254-.466-.108-.941-.179-1.402-.303-.154-.041-.277-.195-.414-.297.155-.116.294-.289.467-.338l1.471-.332c1.042-.287 1.64-1.063 2.079-1.985.456-.958.671-1.979.765-3.033.032-.356.107-.713.212-1.055.042-.136.218-.23.333-.343l.219.001zm-.487 4.388c-.476 1.144-1.222 1.974-2.173 2.676 1.369.452 2.206 1.366 2.662 2.734.494-1.24 1.195-2.184 2.292-2.856-1.272-.493-2.25-1.22-2.781-2.554zM7.188 29.074c.257-.271.604-.188.919-.239 1.105-.178 1.811-.916 2.341-1.809.31-.522.488-1.133.66-1.722.073-.249-.035-.548-.035-.824.001-.216.047-.432.063-.648.022-.289.18-.458.461-.451.301.008.442.228.486.502l.08.754c.182 1.303.681 2.436 1.807 3.2.24.163.535.244.807.357l.144.011c.3.121.698.203.721.574.022.358-.348.423-.638.522-1.506.513-2.606 1.831-2.551 3.554.004.134.049.301-.013.395-.108.163-.264.349-.437.4-.2.059-.389-.067-.437-.326-.082-.447-.188-.89-.276-1.336-.256-1.305-1.404-2.158-2.676-2.384l-.315.052c-.389.027-.773.018-1.113-.215l.002-.367zm4.619 1.61l1.687-1.79c-.292-.246-.653-.508-.963-.822-.311-.315-.571-.681-.787-.944l-1.735 1.999c.785.314 1.392.88 1.798 1.557zM28.011 15.739c.007-1.035-.277-1.517-1.221-1.744-.23-.055-.459-.135-.671-.238-.129-.063-.226-.195-.337-.295.112-.113.206-.259.34-.332.355-.193.745-.325 1.089-.533.575-.349.705-.935.762-1.557.014-.154.087-.345.201-.437.112-.091.333-.142.461-.093.125.049.221.235.276.381.044.117.021.267.002.398-.117.803.223 1.401.979 1.707.124.05.27.08.362.167.1.094.217.25.203.364-.014.116-.171.291-.28.303-.316.035-.671-.009-.824.336-.173.391-.314.805-.403 1.223-.065.304-.031.631-.024.947.005.232-.034.411-.306.446-.282.036-.44-.108-.498-.362-.053-.225-.076-.455-.111-.681zm-.309-2.34l.717.653.491-.582-.61-.632-.598.561z"/></g><path d="M16.046 23.171c.146-.361.285-.724.44-1.081.58-1.338 1.669-2.207 2.824-2.996.979-.669 2.068-1.118 3.21-1.437.479-.134.662-.037.946.356l2.062 2.777c1.835 2.536 3.643 5.091 5.492 7.616 1.933 2.639 3.887 5.263 5.859 7.872 1.416 1.873 2.865 3.721 4.321 5.564.803 1.016 1.662 1.987 2.471 2.999 1.002 1.252 1.975 2.525 2.966 3.786.717.913 1.45 1.814 2.163 2.73 1.084 1.391 2.16 2.788 3.235 4.186.859 1.116 1.721 2.231 2.568 3.357 2.071 2.753 4.136 5.509 6.197 8.268.637.852 1.262 1.713 1.876 2.581.261.369.297.766.062 1.187-.165.295-.279.618-.405.933-.547 1.366-1.644 2.073-2.982 2.486l-.669.145c-1.214.385-2.113-.119-2.879-1.005-.731-.845-1.464-1.689-2.182-2.545-.521-.621-1.013-1.267-1.53-1.892l-1.595-1.89c-.578-.699-1.144-1.409-1.715-2.114-.89-1.098-1.781-2.194-2.669-3.294l-1.769-2.207c-.729-.903-1.467-1.798-2.193-2.705-1.131-1.414-2.247-2.84-3.383-4.249-1.297-1.609-2.611-3.205-3.917-4.807-1.491-1.829-2.998-3.646-4.465-5.494-1.096-1.381-2.128-2.812-3.212-4.203-.914-1.173-1.844-2.333-2.796-3.476-1.348-1.619-2.762-3.185-4.073-4.834-1.253-1.576-2.415-3.225-3.603-4.853-.251-.344-.439-.732-.657-1.1l.002-.661zm6.434-3.965c-.637.362-1.293.716-1.929 1.102-1.3.787-2.445 1.716-2.984 3.222-.093.259-.023.396.103.568.651.884 1.283 1.783 1.96 2.646.971 1.238 1.968 2.457 2.97 3.67l2.193 2.578c.793.956 1.565 1.929 2.341 2.889 1.326-1.547 2.984-2.681 4.651-3.727-3.097-4.308-6.192-8.615-9.305-12.948zm10.99 15.02c-.569.398-1.106.763-1.625 1.154-.067.051-.094.281-.04.35 1.115 1.429 2.234 2.855 3.374 4.265.852 1.054 1.735 2.082 2.6 3.126.902 1.089 1.802 2.181 2.696 3.276.957 1.172 1.914 2.346 2.86 3.527 1.117 1.395 2.227 2.796 3.332 4.202.993 1.263 1.973 2.536 2.961 3.803.913 1.171 1.822 2.346 2.747 3.508.724.909 1.467 1.801 2.207 2.697.878 1.063 1.762 2.122 2.644 3.182l2.807 3.378.929 1.106c.119-.258.2-.458.301-.647.19-.354.115-.645-.161-.924-.16-.161-.284-.359-.417-.545-1.153-1.618-2.282-3.254-3.461-4.853-1.381-1.873-2.804-3.715-4.21-5.57-1.108-1.463-2.206-2.934-3.33-4.384-1.425-1.838-2.874-3.659-4.311-5.488-.986-1.255-1.96-2.518-2.956-3.765l-2.121-2.578c-.67-.836-1.315-1.692-1.972-2.539-1.066-1.375-2.133-2.748-3.197-4.124l-1.657-2.157zm-.785-.918c-.094-.304-.258-.297-.487-.139l-1.67 1.123c-1.022.711-1.903 1.568-2.621 2.593l.26.293c1.337-1.489 2.837-2.769 4.518-3.87z"/></g><g transform="translate(2288)"><path fill="#fff" d="M74.527 31.99c-.18-.554-.7-.933-1.283-.933h-24.503l-7.585-23.293c-.182-.554-.698-.93-1.281-.93-.582 0-1.101.374-1.281.928l-7.626 23.298h-24.464c-.582 0-1.101.377-1.281.93-.179.554.018 1.165.488 1.508l19.795 14.419-7.626 23.427c-.182.554.018 1.165.488 1.508.471.341 1.112.341 1.585 0l19.922-14.462 19.883 14.463c.236.173.514.258.792.258s.556-.085.792-.258c.475-.346.67-.95.49-1.508l-7.628-23.425 19.837-14.419c.469-.344.666-.957.486-1.511z"/></g><g transform="translate(2392)"><g fill="#fff"><ellipse transform="matrix(.976 -.22 .22 .976 -10.442 3.929)" cx="12.432" cy="48.884" rx="3.269" ry="2.532"/><ellipse transform="matrix(-.22 -.976 .976 -.22 -31.365 80.624)" cx="16.561" cy="52.856" rx="1.442" ry="1.861"/><path d="M24.967 28.601c-.873-2.262-3.697-3.921-7.049-3.921-2.457 0-4.63.892-5.96 2.258l-.184-.004c-5.157 0-9.337 3.369-9.337 7.525 0 2.474 1.481 4.669 3.767 6.04.321 2.6 3.019 4.629 6.299 4.629.791 0 1.547-.119 2.245-.334 1.264.743 2.803 1.18 4.464 1.18 3.779 0 6.929-2.257 7.637-5.25 2.335-1.054 3.941-3.245 3.941-5.779-.001-3.169-2.513-5.802-5.823-6.344zm-16.261 9.379c-.162.029-.355.043-.577.043-.547 0-.962-.124-1.245-.372-.283-.248-.412-.661-.386-1.24l.067-1.688-.668-.114.029-.935.668-.219.019-1.011h1.421l-.009 1.059h1.106l-.029 1.154h-1.183l-.048 1.593c-.013.204.035.351.143.443.108.092.254.138.439.138l.281-.033.3-.081.172 1.145c-.171.05-.338.09-.5.118zm5.508-.1h-1.478v-2.623c0-.267-.055-.451-.165-.553-.11-.102-.256-.153-.438-.153-.169 0-.323.033-.461.1s-.254.145-.348.234v2.995h-1.478v-6.305l1.478-.181-.01 2.661c.196-.222.42-.404.673-.544.253-.14.524-.21.815-.21.442 0 .787.135 1.037.405.25.27.374.644.374 1.121v3.053zm2.404 0h-1.478v-4.359l1.478-.181v4.54zm-.105-5.265c-.153.134-.366.2-.639.2-.267 0-.479-.067-.634-.2-.156-.134-.234-.327-.234-.582 0-.261.078-.458.234-.591.156-.134.367-.2.634-.2.273 0 .487.067.639.2.153.134.229.331.229.591 0 .255-.077.449-.229.582zm5.417 5.265h-1.478v-2.623c0-.267-.055-.451-.165-.553-.11-.102-.262-.153-.456-.153-.163 0-.312.033-.447.1s-.25.145-.344.234v2.995h-1.478v-4.359l1.478-.181-.01.725c.196-.223.42-.405.673-.548.253-.143.521-.215.806-.215.448 0 .797.135 1.047.405.25.27.374.644.374 1.121v3.052zm3.796 0l-1.383-2.079h-.01v2.079h-1.478v-6.305l1.478-.181v3.958h.01l1.354-1.908h1.688l-1.631 2.108 1.64 2.327h-1.668zM36.93 34.307c-.149-.181-.329-.32-.539-.418-.21-.098-.438-.147-.685-.147-.259 0-.48.057-.664.172-.184.115-.339.239-.465.371l.009-2.267-1.336.164v5.828l1.25-.172c.132.046.283.085.453.116.169.032.32.047.453.047.27 0 .527-.05.772-.151.244-.1.458-.246.642-.435.184-.19.329-.418.435-.685.106-.267.16-.568.16-.901 0-.322-.043-.611-.129-.866-.089-.257-.207-.475-.356-.656zm-1.084 2.396c-.153.204-.372.306-.656.306-.239 0-.44-.055-.605-.164v-1.767c.091-.08.187-.147.29-.198.102-.052.227-.078.375-.078.273 0 .479.096.618.289.139.193.209.461.209.806-.001.334-.077.602-.231.806zM39.387 34.363v-.586l-1.337.163v3.94h1.336v-2.336c.121-.213.253-.363.397-.453.144-.089.299-.134.465-.134.172 0 .339.04.5.121l.267-1.172c-.213-.109-.434-.164-.664-.164-.407 0-.729.207-.964.621zM44.818 34.298c-.19-.181-.414-.319-.672-.414-.259-.095-.54-.142-.845-.142-.305 0-.589.047-.853.142-.264.095-.496.234-.694.418-.198.184-.354.409-.466.677-.112.267-.168.57-.168.909 0 .339.055.641.164.905.109.264.258.487.448.668.19.181.415.318.677.409.261.092.542.138.84.138.299 0 .58-.049.845-.147.264-.098.494-.238.69-.422.195-.184.351-.409.466-.677.115-.267.172-.568.172-.901 0-.339-.053-.639-.159-.901-.108-.26-.256-.481-.445-.662zm-.923 2.394c-.138.2-.345.301-.621.301s-.484-.099-.625-.296c-.141-.197-.211-.468-.211-.812 0-.343.069-.617.207-.82.138-.203.345-.305.621-.305s.484.102.625.305c.141.203.211.474.211.811 0 .343-.069.615-.207.816zM50.292 36.492l-.69-2.621h-1.388l-.681 2.664-.543-2.664h-1.345l1.13 4.026h1.344l.768-2.638.767 2.638h1.345l1.138-4.026h-1.38zM55.249 33.742c-.257 0-.5.065-.728.194-.228.129-.431.295-.608.496l.009-.655-1.336.164v3.94h1.336v-2.707c.085-.08.188-.151.311-.211.122-.06.256-.09.404-.09.176 0 .313.046.413.138.099.092.149.259.149.5v2.371h1.336v-2.759c0-.431-.113-.769-.338-1.013-.228-.246-.543-.368-.948-.368zM60.22 35.807c-.129-.1-.286-.185-.473-.254-.186-.069-.396-.129-.631-.181-.218-.046-.387-.096-.507-.151-.12-.055-.18-.136-.18-.246 0-.201.163-.302.489-.302.189 0 .408.032.657.095.249.063.488.152.717.267l.266-.948-.345-.134-.418-.112-.444-.073-.422-.026c-.276 0-.524.032-.746.095-.221.063-.407.152-.556.267-.15.115-.265.25-.345.405-.081.155-.121.328-.121.517 0 .196.036.365.108.509.072.144.174.267.306.371.132.103.293.19.483.259s.399.126.629.172c.23.052.401.105.513.16.112.055.168.139.168.254 0 .219-.181.328-.543.328-.236 0-.48-.033-.733-.099s-.497-.159-.733-.28l-.259.957c.103.058.226.108.366.151l.435.112c.149.032.302.055.457.069l.44.022c.293 0 .553-.034.78-.103.227-.069.418-.164.573-.285.155-.121.272-.261.349-.422.077-.161.116-.33.116-.509 0-.201-.034-.374-.103-.517-.065-.145-.164-.268-.293-.368zM63.408 36.902l-.254.03c-.167 0-.299-.042-.397-.125-.098-.083-.141-.217-.129-.401l.043-1.44h1.069l.026-1.043h-1l.009-.957h-1.285l-.018.914-.603.198-.026.845.603.103-.06 1.526c-.023.523.093.897.349 1.121.256.224.631.336 1.125.336.201 0 .375-.013.522-.039.147-.026.297-.062.452-.108l-.155-1.034-.271.074zM67.852 34.298c-.19-.181-.414-.319-.672-.414-.259-.095-.54-.142-.845-.142-.305 0-.589.047-.853.142-.265.095-.496.234-.694.418-.198.184-.353.409-.465.677-.112.267-.168.57-.168.909 0 .339.054.641.164.905.109.264.259.487.448.668.19.181.415.318.677.409.261.092.542.138.84.138.299 0 .581-.049.845-.147.264-.098.494-.238.69-.422.195-.184.35-.409.465-.677.115-.267.173-.568.173-.901 0-.339-.053-.639-.16-.901-.108-.26-.255-.481-.445-.662zm-.922 2.394c-.138.2-.345.301-.62.301-.276 0-.484-.099-.625-.296-.141-.197-.211-.468-.211-.812 0-.343.069-.617.207-.82.138-.203.345-.305.621-.305s.484.102.625.305c.141.203.211.474.211.811-.001.343-.071.615-.208.816zM71.766 33.742c-.257 0-.5.065-.728.194-.228.129-.431.295-.608.496l.009-.655-1.336.164v3.94h1.336v-2.707c.085-.08.188-.151.311-.211.122-.06.257-.09.404-.09.176 0 .313.046.413.138.099.092.149.259.149.5v2.371h1.336v-2.759c0-.431-.113-.769-.339-1.013-.227-.246-.542-.368-.947-.368zM77.149 34.208c-.302-.31-.737-.466-1.306-.466-.316 0-.608.052-.875.155-.267.103-.497.249-.69.435-.193.187-.342.414-.449.681-.106.267-.159.565-.159.892 0 .333.053.631.159.892.106.262.257.481.453.659.195.178.431.313.707.405.276.092.583.138.922.138.293 0 .576-.029.849-.086.273-.057.51-.138.711-.241l-.129-1.026c-.201.115-.415.208-.642.28-.227.072-.45.108-.668.108-.328 0-.581-.073-.759-.22-.178-.147-.279-.355-.302-.625v-.017l2.543-.043c.029-.086.05-.198.064-.336l.021-.371c.003-.499-.148-.904-.45-1.214zm-.78 1.293l-1.388.009c.023-.23.1-.43.233-.599.132-.169.313-.254.543-.254.207 0 .36.068.461.203.101.135.151.323.151.565v.076z"/></g></g><g transform="translate(2496)"><path d="M71.069 11.342c.207.284.151.646.151 1.136v17.607l-.068.29c-.027 1.213-.05 2.425-.072 3.638-.024 1.35-.054 2.701-.068 4.052-.028 2.785-.053 5.569-.069 8.354-.01 1.801-.002 3.601-.002 5.402 0 .721-.439 1.183-1.157 1.184-2.89.007-5.78.002-8.67.01-2.636.007-5.272.033-7.908.036-1.283.002-2.567-.032-3.85-.043-.889-.007-1.779-.001-2.765-.001.282.445.51.767.699 1.11.646 1.17 1.279 2.347 1.915 3.522 1.074 1.985 2.143 3.973 3.224 5.954.186.342.311.728.672.963.094.061.131.255.141.392.076.986.128 1.975.211 2.96.057.673-.215 1.168-.892 1.163-.845-.005-1.691.041-2.537.042l-12.248.006c-.212 0-.423.044-.635.068h-1.859l-.283-.066c-.616-.005-1.233-.004-1.849.002l-.208.065h-1.033l-.314-.064c-1.445-.006-2.89-.002-4.336-.011-.284-.002-.572-.024-.851-.074-.26-.046-.489-.187-.501-.485-.035-.851-.054-1.702-.07-2.554-.006-.315-.052-.486-.032-.898.011-.227.057-.746.234-1.048.113-.181.554-1.134.685-1.384 1.662-3.153 2.986-5.653 4.653-8.803.124-.234.267-.458.423-.724h-.271l-12.658-.069c-3.391-.018-6.781-.035-10.172-.051-.376-.002-.641-.246-.678-.624l-.07-.356v-39.791c.183-.468.458-.839 1.003-.887.41-.037.822-.065 1.234-.068 3.486-.021 6.972-.037 10.458-.052 2.312-.01 4.623-.01 6.935-.022 3.359-.018 6.719-.044 10.078-.067 2.855-.019 5.709-.047 8.564-.056l3.469.049 4.915-.06c2.205-.008 4.411.004 6.616.016 1.477.008 2.955.037 4.432.047 1.181.008 2.363-.008 3.544-.008 1.117.002 1.663-.086 1.87.198zm-1.499 40.388v-.335c-.019-1.603-.037-3.206-.059-4.808l-.145-10.383c-.025-1.799-.061-3.597-.064-5.396-.01-5.266-.006-10.531-.007-15.797v-2.139h-3.033c-9.44-.022-18.881-.042-28.321-.07-4.289-.013-8.577-.053-12.866-.065-4.348-.012-8.696-.003-13.045-.006l-.685-.029c-.638-.004-1.276-.001-1.915-.001v38.909c20.026.039 40.053.079 60.14.12zm-17.953 12.563l-.179-.392c-1.044-1.944-2.093-3.887-3.136-5.832-.844-1.575-1.686-3.152-2.513-4.736-.1-.192-.192-.265-.406-.261-1.73.028-3.461.054-5.191.063l-7.087.018c-.12.001-.298.072-.35.165-.727 1.309-1.444 2.624-2.15 3.944-1.111 2.079-2.212 4.164-3.317 6.247l-.41.785c8.263-.001 16.481-.001 24.739-.001zm-24.628 3.685h25.302c0-.718-.02-1.436.008-2.151.014-.36-.108-.44-.449-.435-2.189.036-4.379.071-6.569.068-4.301-.007-8.601-.041-12.902-.059-1.721-.007-3.442-.001-5.163-.001h-.38l.153 2.578zM67.276 19.77c0 1.62.002 3.24 0 4.859-.003 2.131-.007 4.263-.016 6.394-.008 1.898-.028 3.796-.033 5.695-.006 2.63-.002 5.26-.002 7.889 0 1.321.016 2.642-.007 3.963-.01.551-.18.8-.843.798-1.922-.007-3.844.043-5.765.044-1.822.001-3.643-.044-5.465-.048-2.596-.005-5.192.014-7.788.014-2.442 0-4.885-.019-7.327-.013-1.522.004-3.044.049-4.565.055-3.281.013-6.561.008-9.842.02-3.989.014-7.977.041-11.966.049-.322.001-.658-.061-.963-.165-.327-.111-.481-.38-.473-.75.051-2.403.115-4.807.13-7.211.019-3.027-.002-6.055-.011-9.083-.01-3.114-.033-6.229-.04-9.343-.004-1.9.011-3.8.022-5.7.002-.343-.01-.693.057-1.025.039-.196.182-.449.345-.52.168-.073.419.041.633.08.12.022.238.085.355.08.388-.016.774-.079 1.162-.079 6.757-.005 13.514-.004 20.271-.004 1.879 0 3.758.006 5.637-.002 2.208-.01 4.416-.042 6.624-.048 4.518-.012 9.035-.015 13.553-.017 1.869-.001 3.738.008 5.607.014.417.001.657.237.658.651.003 1.135.001 2.269.001 3.404l.051-.001zm-53.625 2.438v26.064c17.5.047 34.943.094 52.384.141v-26.206c-17.481.001-34.935.001-52.384.001zm52.395-5.332c-17.495-.061-34.959.078-52.429-.102v4.492l52.429.14v-4.53zM51.735 27.167v1.238c-.002.395-.204.576-.592.58-1.969.018-3.938.039-5.908.067-.732.011-1.464.059-2.196.064-4.31.028-8.619.048-12.929.071l-.309-.004c-.574-.116-.899-.07-.853-.901.045-.823.011-1.652.085-2.471.074-.82.326-.964 1.199-1.016.925-.056 1.853-.073 2.78-.074 5.55-.006 11.1-.002 16.65-.006.433 0 .866-.054 1.299-.062.504-.01.672.154.703.663.038.616.066 1.233.099 1.85l-.028.001zm-21.708 1.112l.204.018c3.153-.021 6.306-.032 9.459-.066 2.922-.031 5.844-.089 8.766-.13.718-.01 1.437-.002 2.188-.002v-2.4h-20.617v2.58zM32.222 37.138c1.808 0 3.615-.005 5.423.001 3.161.01 6.322.022 9.484.043 1.224.008 2.448.044 3.673.066.091.002.193.02.271-.013.338-.143.412.123.517.327.04.077.047.177.049.267.025 1.063.071 2.126.055 3.188-.007.439-.255.533-.682.439-.235-.052-.49-.017-.736-.01l-1.748.065c-1.157.028-2.313.046-3.47.071-.938.02-1.876.054-2.815.066-2.199.028-4.399.073-6.598.062-2.002-.009-4.003-.081-6.005-.129-.49-.012-.701-.399-.463-.817.046-.081.049-.195.049-.293.004-.814.006-1.628 0-2.442-.001-.093-.033-.196-.08-.278-.149-.257-.097-.455.173-.559.115-.044.242-.079.364-.08.846-.007 1.693-.004 2.54-.004l-.001.03zm18.537 1.097l-20.708-.238v2.579c1.7.062 3.345.16 4.991.171 2.234.015 4.469-.039 6.704-.058 1.032-.009 2.064.007 3.096-.014.995-.02 1.989-.082 2.984-.108.973-.026 1.946-.032 2.933-.047v-2.285zM32.462 31.189c2.957 0 5.913-.007 8.87.003 1.523.005 3.046.044 4.569.066l5.19.069c.407.005.628.187.635.598.017.951.016 1.903.002 2.854-.005.316-.24.455-.529.464-1.795.052-3.591.122-5.386.135-2.911.021-5.823.01-8.734-.002-1.706-.007-3.413-.037-5.119-.064-.56-.009-1.12-.055-1.68-.056-.13 0-.26.116-.392.174-.167.072-.355.222-.5.19-.258-.058-.384-.276-.372-.575.039-.958.062-1.917.08-2.875.002-.114-.055-.23-.09-.344-.042-.137-.168-.338-.119-.395.117-.139.312-.291.479-.296 1.031-.026 2.064-.013 3.095-.013l.001.067zm18.304.995l-20.86-.184v2.446c.692 0 1.322-.008 1.951.002 2.151.034 4.302.103 6.453.104 3.84.002 7.679-.036 11.519-.061.25-.002.501-.028.747-.071.072-.012.181-.118.183-.182.012-.681.007-1.363.007-2.054zM20.996 20.642c-.471-.049-.868-.193-1.192-.502-.441-.421-.481-1.054-.114-1.54.454-.601 1.665-.759 2.26-.295.694.542.614 1.629-.169 2.064-.239.132-.522.184-.785.273zM16.921 20.591c-.338-.142-.719-.225-1.004-.438-.552-.412-.607-1.071-.105-1.595.492-.514 1.422-.543 1.962-.092.403.337.531.797.36 1.29-.158.455-.626.755-1.213.835z"/></g><g transform="translate(2600)"><path fill="#fff" d="M40 2.544c-20.645 0-37.385 16.739-37.385 37.385s16.74 37.384 37.385 37.384c18.828 0 34.394-13.918 36.996-32.021.25-1.233.368-2.506.347-3.82.026-.508.042-1.025.042-1.544 0-20.647-16.735-37.384-37.385-37.384zm17.206 30.6c.016.347.021.694.021 1.043 0 10.675-8.122 22.984-22.976 22.984-4.563 0-8.805-1.335-12.38-3.632.631.076 1.272.112 1.924.112 3.783 0 7.267-1.288 10.033-3.457-3.536-.063-6.518-2.399-7.548-5.606.493.096 1.004.149 1.523.149.733 0 1.447-.102 2.128-.284-3.697-.743-6.482-4.008-6.482-7.919v-.102c1.09.6 2.339.967 3.661 1.009-2.169-1.452-3.596-3.921-3.596-6.722 0-1.481.396-2.868 1.095-4.065 3.981 4.889 9.937 8.101 16.648 8.443-.138-.592-.209-1.212-.209-1.843 0-4.461 3.616-8.078 8.078-8.078 2.323 0 4.42.983 5.893 2.553 1.843-.362 3.569-1.035 5.134-1.961-.605 1.885-1.885 3.468-3.554 4.466 1.635-.188 3.194-.626 4.639-1.267-1.088 1.614-2.452 3.035-4.032 4.177z"/></g></svg>