<?xml version="1.0" encoding="utf-8"?>
<!-- Generator: Adobe Illustrator 17.0.0, SVG Export Plug-In . SVG Version: 6.00 Build 0)  -->
<!DOCTYPE svg PUBLIC "-//W3C//DTD SVG 1.1//EN" "http://www.w3.org/Graphics/SVG/1.1/DTD/svg11.dtd">
<svg version="1.1" id="Layer_1" xmlns="http://www.w3.org/2000/svg" xmlns:xlink="http://www.w3.org/1999/xlink" x="0px" y="0px"
	 width="80px" height="80px" viewBox="0 0 80 80" enable-background="new 0 0 80 80" xml:space="preserve">
<path fill="#FFFFFF" d="M42.155,46.83c-0.403,0.403-1.055,0.403-1.459,0l-6.753-7.392c-0.403-0.403-0.403-1.055,0-1.459l6.753-7.392
	c0.403-0.403,1.055-0.403,1.459,0V46.83z M40.001,74.543c19.589,0,35.526-15.937,35.526-35.526c0-19.59-15.937-35.527-35.526-35.527
	c-19.59,0-35.527,15.937-35.527,35.527C4.474,58.606,20.41,74.543,40.001,74.543z M40.001,5.337
	c18.571,0,33.679,15.108,33.679,33.68c0,18.571-15.108,33.679-33.679,33.679c-18.572,0-33.68-15.108-33.68-33.679
	C6.32,20.445,21.43,5.337,40.001,5.337z"/>
</svg>
