<?xml version="1.0" encoding="utf-8"?>
<!-- Generator: Adobe Illustrator 17.0.0, SVG Export Plug-In . SVG Version: 6.00 Build 0)  -->
<!DOCTYPE svg PUBLIC "-//W3C//DTD SVG 1.1//EN" "http://www.w3.org/Graphics/SVG/1.1/DTD/svg11.dtd">
<svg version="1.1" id="Layer_1" xmlns="http://www.w3.org/2000/svg" xmlns:xlink="http://www.w3.org/1999/xlink" x="0px" y="0px"
	 width="80px" height="80px" viewBox="0 0 80 80" enable-background="new 0 0 80 80" xml:space="preserve">
<path fill="#FFFFFF" d="M37.845,30.587c0.404-0.403,1.056-0.403,1.459,0l6.753,7.392c0.403,0.404,0.403,1.056,0,1.459l-6.753,7.392
	c-0.404,0.403-1.056,0.403-1.459,0V30.587z M75.526,39.017c0-19.59-15.937-35.527-35.527-35.527
	C20.41,3.49,4.474,19.427,4.474,39.017c0,19.589,15.937,35.526,35.526,35.526C59.59,74.543,75.526,58.606,75.526,39.017z
	 M73.68,39.017c0,18.571-15.108,33.679-33.68,33.679c-18.571,0-33.679-15.108-33.679-33.679c0-18.572,15.108-33.68,33.679-33.68
	S73.68,20.445,73.68,39.017z"/>
</svg>
