<?xml version="1.0" encoding="utf-8"?>
<!-- Generator: Adobe Illustrator 15.1.0, SVG Export Plug-In . SVG Version: 6.00 Build 0)  -->
<!DOCTYPE svg PUBLIC "-//W3C//DTD SVG 1.1//EN" "http://www.w3.org/Graphics/SVG/1.1/DTD/svg11.dtd">
<svg version="1.1" id="Layer_1" xmlns="http://www.w3.org/2000/svg" xmlns:xlink="http://www.w3.org/1999/xlink" x="0px" y="0px"
	 width="80px" height="80px" viewBox="0 0 80 80" enable-background="new 0 0 80 80" xml:space="preserve">
<path fill-rule="evenodd" clip-rule="evenodd" fill="#3A9DCD" d="M11.264,32.17h57.404c0.58,0,1.049,0.47,1.049,1.049v8.388
	c0,0.579-0.469,1.048-1.049,1.048H11.264c-0.579,0-1.049-0.469-1.049-1.048v-8.388C10.215,32.64,10.685,32.17,11.264,32.17z"/>
<path fill-rule="evenodd" clip-rule="evenodd" fill="#3A9DCD" d="M75.41,36.014h-4.456c-0.29,0-0.524,0.235-0.524,0.524v9.436
	c0,0.29,0.234,0.524,0.524,0.524h4.456c0.289,0,0.524-0.036,0.524-0.524c0-1.592-2.621-4.665-2.621-4.665s2.621-2.352,2.621-4.771
	C75.935,36.003,75.699,36.014,75.41,36.014z"/>
<path fill-rule="evenodd" clip-rule="evenodd" fill="#3A9DCD" d="M3.899,36.539c0,2.419,2.621,4.771,2.621,4.771
	s-2.621,3.073-2.621,4.665c0,0.488,0.235,0.524,0.524,0.524H8.88c0.29,0,0.524-0.234,0.524-0.524v-9.436
	c0-0.29-0.234-0.524-0.524-0.524H4.423C4.134,36.014,3.899,36.003,3.899,36.539z"/>
</svg>
