<?xml version="1.0" encoding="utf-8"?>
<!-- Generator: Adobe Illustrator 17.0.0, SVG Export Plug-In . SVG Version: 6.00 Build 0)  -->
<!DOCTYPE svg PUBLIC "-//W3C//DTD SVG 1.1//EN" "http://www.w3.org/Graphics/SVG/1.1/DTD/svg11.dtd">
<svg version="1.1" id="Layer_1" xmlns="http://www.w3.org/2000/svg" xmlns:xlink="http://www.w3.org/1999/xlink" x="0px" y="0px"
	 width="80px" height="80px" viewBox="0 0 80 80" enable-background="new 0 0 80 80" xml:space="preserve">
<g>
	<path fill="#3A9DCD" d="M69.612,41.684c0,0.553-0.448,1.001-1.001,1.001H11.246c-0.553,0-1.001-0.448-1.001-1.001v-8.512
		c0-0.553,0.448-1.001,1.001-1.001h57.365c0.553,0,1.001,0.448,1.001,1.001L69.612,41.684L69.612,41.684z"/>
	<path fill="#3A9DCD" d="M8.329,46.604c0.553,0,1.001-0.448,1.001-1.001V37.09c0-0.553-0.459-0.951-1.012-0.951l-3.474-0.004
		c-0.516,0-0.935,0.419-0.935,0.935c0,1.848,1.411,3.456,2.926,4.284c-1.515,0.827-2.926,2.435-2.926,4.283
		c0,0.516,0.382,0.964,0.898,0.964L8.329,46.604z"/>
	<path fill="#3A9DCD" d="M71.528,46.604c-0.553,0-1.001-0.448-1.001-1.001V37.09c0-0.553,0.459-0.951,1.012-0.951l3.474-0.005
		c0.516,0,0.935,0.419,0.935,0.935c0,1.848-1.411,3.456-2.926,4.284c1.515,0.827,2.926,2.436,2.926,4.284
		c0,0.516-0.382,0.964-0.898,0.964L71.528,46.604z"/>
</g>
<path fill="#FFFFFF" d="M15.168,35.589h2.716v0.692h-1.926v1.084h1.567v0.679h-1.567v1.626h-0.79L15.168,35.589L15.168,35.589z
	 M18.649,39.67v-4.081h2.781v0.679h-1.998v1.019h1.639v0.672h-1.639v1.038h1.998v0.673L18.649,39.67L18.649,39.67z M25.78,39.67
	h-0.803l-0.339-0.967h-1.646l-0.339,0.967h-0.803l1.495-4.081h0.966L25.78,39.67z M23.821,36.281l-0.627,1.763h1.234L23.821,36.281z
	 M27.811,36.288v3.382h-0.797v-3.382h-1.365v-0.699h3.526v0.699H27.811z M31.56,39.768c-1.045,0-1.698-0.575-1.698-1.639v-2.54h0.79
	v2.429c0,0.672,0.3,1.051,0.934,1.051c0.562,0,0.888-0.313,0.888-1.012c0,0.02,0-2.468,0-2.468h0.79c0,0,0,2.422,0,2.461
	C33.264,39.161,32.644,39.768,31.56,39.768z M35.08,39.67h-0.797v-4.081c0,0,1.443,0,1.43,0c1.032,0,1.573,0.49,1.573,1.247
	c0,0.581-0.32,0.979-0.875,1.175l1.071,1.659h-0.914l-0.901-1.495L35.08,38.22V39.67z M35.668,37.574
	c0.49-0.026,0.81-0.248,0.81-0.692c0-0.425-0.32-0.627-0.888-0.627h-0.522v1.332L35.668,37.574z M38.176,39.67v-4.081h2.781v0.679
	H38.96v1.019h1.639v0.672H38.96v1.038h1.998v0.673L38.176,39.67L38.176,39.67z M43.159,39.67c-0.176,0-1.332,0-1.332,0v-4.081
	c0,0,1.077,0,1.378,0c1.397,0,2.207,0.797,2.207,2.011C45.412,38.86,44.609,39.67,43.159,39.67z M43.159,36.262h-0.536v2.736h0.574
	c0.862,0,1.417-0.451,1.417-1.358C44.615,36.719,44.099,36.262,43.159,36.262z M49.056,39.67h-0.81l-1.123-4.081h0.843l0.718,3.108
	l0.843-3.108h0.914l0.868,3.108l0.705-3.108h0.803l-1.123,4.081h-0.816l-0.901-3.147L49.056,39.67z M55.312,39.768
	c-1.201,0-2.089-0.79-2.089-2.129c0-1.254,0.888-2.148,2.096-2.148c1.208,0,2.096,0.79,2.096,2.122
	C57.414,38.873,56.52,39.768,55.312,39.768z M55.305,36.157c-0.777,0-1.28,0.588-1.28,1.456c0,0.894,0.509,1.489,1.306,1.489
	c0.777,0,1.28-0.588,1.28-1.463C56.611,36.745,56.102,36.157,55.305,36.157z M59.054,39.67h-0.797v-4.081c0,0,1.443,0,1.43,0
	c1.032,0,1.573,0.49,1.573,1.247c0,0.581-0.32,0.979-0.875,1.175l1.071,1.659h-0.914l-0.901-1.495l-0.588,0.046V39.67z
	 M59.642,37.574c0.49-0.026,0.81-0.248,0.81-0.692c0-0.425-0.32-0.627-0.888-0.627h-0.522v1.332L59.642,37.574z M64.494,35.589
	h0.947c-0.581,0.672-1.169,1.339-1.75,2.005c0.588,0.692,1.188,1.384,1.776,2.077h-0.973l-1.541-1.868
	c-0.013,0.242-0.007,1.868-0.007,1.868H62.15v-4.081h0.797v1.874C63.462,36.849,63.985,36.216,64.494,35.589z"/>
</svg>
