<?xml version="1.0" encoding="utf-8"?>
<!-- Generator: Adobe Illustrator 17.0.0, SVG Export Plug-In . SVG Version: 6.00 Build 0)  -->
<!DOCTYPE svg PUBLIC "-//W3C//DTD SVG 1.1//EN" "http://www.w3.org/Graphics/SVG/1.1/DTD/svg11.dtd">
<svg version="1.1" id="Layer_1" xmlns="http://www.w3.org/2000/svg" xmlns:xlink="http://www.w3.org/1999/xlink" x="0px" y="0px"
	 width="80px" height="80px" viewBox="0 0 80 80" enable-background="new 0 0 80 80" xml:space="preserve">
<g>
	<path fill="#3A9DCD" d="M69.612,41.684c0,0.553-0.448,1.001-1.001,1.001H11.246c-0.553,0-1.001-0.448-1.001-1.001v-8.512
		c0-0.553,0.448-1.001,1.001-1.001h57.365c0.553,0,1.001,0.448,1.001,1.001L69.612,41.684L69.612,41.684z"/>
	<path fill="#3A9DCD" d="M8.329,46.604c0.553,0,1.001-0.448,1.001-1.001V37.09c0-0.553-0.459-0.951-1.012-0.951l-3.474-0.004
		c-0.516,0-0.935,0.419-0.935,0.935c0,1.848,1.411,3.456,2.926,4.284c-1.515,0.827-2.926,2.435-2.926,4.283
		c0,0.516,0.382,0.964,0.898,0.964L8.329,46.604z"/>
	<path fill="#3A9DCD" d="M71.528,46.604c-0.553,0-1.001-0.448-1.001-1.001V37.09c0-0.553,0.459-0.951,1.012-0.951l3.474-0.005
		c0.516,0,0.935,0.419,0.935,0.935c0,1.848-1.411,3.456-2.926,4.284c1.515,0.827,2.926,2.436,2.926,4.284
		c0,0.516-0.382,0.964-0.898,0.964L71.528,46.604z"/>
</g>
</svg>
