<?xml version="1.0" encoding="utf-8"?>
<!-- Generator: Adobe Illustrator 17.0.0, SVG Export Plug-In . SVG Version: 6.00 Build 0)  -->
<!DOCTYPE svg PUBLIC "-//W3C//DTD SVG 1.1//EN" "http://www.w3.org/Graphics/SVG/1.1/DTD/svg11.dtd">
<svg version="1.1" id="Layer_1" xmlns="http://www.w3.org/2000/svg" xmlns:xlink="http://www.w3.org/1999/xlink" x="0px" y="0px"
	 width="80px" height="80px" viewBox="0 0 80 80" enable-background="new 0 0 80 80" xml:space="preserve">
<g id="UJiSq5_1_">
	<g>
		<path d="M58.822,9.834c0.553,0.216,0.661,0.373,0.662,0.989c0.001,8.906,0.002,17.812,0.002,26.718
			c0,0.533-0.439,0.835-0.944,0.665c-0.139-0.047-0.291-0.078-0.437-0.078c-12.12-0.004-24.24-0.002-36.36-0.009
			c-0.287,0-0.578-0.061-0.858-0.131c-0.319-0.08-0.45-0.31-0.45-0.691c0-4.443,0.007-8.886-0.003-13.329
			c-0.009-4.006-0.042-8.012-0.051-12.018c-0.001-0.452,0.063-0.907,0.129-1.355c0.054-0.372,0.514-0.633,1.08-0.635
			c1.37-0.004,2.739-0.003,4.109-0.003c8.34,0,16.681,0.001,25.021,0.001c2.478,0,4.956,0.002,7.434-0.006
			c0.182-0.001,0.364-0.076,0.546-0.117C58.742,9.834,58.782,9.834,58.822,9.834z M21.796,36.787c12.082,0,24.155,0,36.245,0
			c0.011-0.102,0.029-0.19,0.029-0.278c-0.002-0.609-0.014-1.218-0.011-1.828c0.008-1.333,0.035-2.666,0.034-3.999
			c-0.003-3.529-0.02-7.057-0.026-10.586c-0.003-1.798-0.002-3.596,0.016-5.394c0.003-0.308-0.07-0.405-0.394-0.405
			c-11.847,0.009-23.693,0.007-35.54,0.007c-0.106,0-0.213,0-0.353,0C21.796,21.821,21.796,29.291,21.796,36.787z M21.802,13.704
			c0.159,0,0.258,0,0.358,0c11.332,0,22.665,0.001,33.997,0.001c0.534,0,1.068,0.004,1.602-0.006
			c0.149-0.003,0.334,0.018,0.332-0.236c-0.007-0.703-0.002-1.407-0.002-2.145c-12.102,0-24.197,0-36.286,0
			C21.802,12.104,21.802,12.883,21.802,13.704z"/>
		<path d="M75.689,68.534c-0.057,0.553-0.437,0.812-0.907,0.981c-0.1,0.036-0.215,0.044-0.324,0.044
			c-6.232-0.001-12.464-0.004-18.695-0.006c-0.322,0-0.644,0.004-0.966,0.009c-0.59,0.009-0.869-0.259-0.869-0.849
			c-0.001-3.283-0.001-6.566,0-9.849c0.001-1.279,0.007-2.557,0.013-3.836c0.001-0.272,0.066-0.532-0.103-0.805
			c-0.143-0.23,0.04-0.532,0.332-0.639c0.156-0.057,0.329-0.097,0.494-0.098c2.393-0.008,4.787-0.009,7.18-0.009
			c2.51-0.001,5.021,0.007,7.531-0.001c1.715-0.005,3.43-0.042,5.144-0.04c0.44,0,0.89,0.075,1.074,0.586
			c0.036,0.1,0.065,0.203,0.097,0.305C75.689,59.063,75.689,63.798,75.689,68.534z M55.456,56.03c0,4.101,0,8.174,0,12.236
			c6.251,0,12.48,0,18.705,0c0-4.094,0-8.159,0-12.236C67.921,56.03,61.699,56.03,55.456,56.03z M55.433,55.216
			c6.269,0,12.499,0,18.734,0c0-0.159,0-0.296,0-0.45c-6.251,0-12.49,0-18.734,0C55.433,54.923,55.433,55.061,55.433,55.216z"/>
		<path d="M4.233,53.904c0.206-0.317,0.512-0.422,0.873-0.422c2.384,0,4.768-0.003,7.152-0.004c2.511-0.001,5.022,0.006,7.533-0.002
			c1.715-0.006,3.431-0.042,5.146-0.04c0.426,0,0.882,0.054,1.06,0.555c0.065,0.184,0.111,0.387,0.111,0.582
			c0.006,3.968,0.005,7.937,0.005,11.905c0,0.603-0.02,1.206,0.004,1.808c0.035,0.869-0.659,1.275-1.269,1.275
			c-6.224-0.004-12.447-0.006-18.671-0.009c-0.312,0-0.624,0.004-0.936,0.009c-0.614,0.01-0.885-0.251-0.885-0.862
			c-0.001-2.559-0.002-5.118,0-7.676c0.002-2.014,0.011-4.029,0.012-6.043c0-0.243,0.146-0.52-0.135-0.712
			C4.233,54.146,4.233,54.025,4.233,53.904z M5.877,68.268c6.254,0,12.483,0,18.714,0c0-4.012,0-7.997,0-12.026
			c-6.245,0-12.472,0-18.714,0C5.877,60.238,5.877,64.244,5.877,68.268z M24.597,54.772c-6.266,0-12.501,0-18.728,0
			c0,0.263,0,0.501,0,0.716c6.254,0,12.485,0,18.728,0C24.597,55.224,24.597,55.006,24.597,54.772z"/>
		<path d="M39.96,69.564c-3.272,0-6.544-0.001-9.817,0.001c-0.538,0-0.82-0.281-0.82-0.84c-0.001-4.271-0.001-8.542,0.002-12.813
			c0-0.422,0.028-0.844,0.039-1.266c0.002-0.067,0.004-0.143-0.023-0.201c-0.254-0.543-0.032-0.909,0.589-0.959
			c0.11-0.009,0.221-0.002,0.332-0.003c4.111-0.006,8.222-0.012,12.332-0.016c1.486-0.001,2.973,0.011,4.459,0.005
			c0.932-0.004,1.865-0.03,2.797-0.044c0.1-0.001,0.201,0.007,0.299,0.025c0.684,0.127,0.918,0.314,0.922,1.158
			c0.017,3.938,0.011,7.876,0.006,11.814c-0.001,0.731-0.005,1.465-0.059,2.193c-0.04,0.544-0.549,0.941-1.119,0.942
			c-2.599,0.002-5.197,0-7.796,0c-0.715,0-1.43,0-2.145,0C39.96,69.561,39.96,69.562,39.96,69.564z M49.559,56.177
			c-6.245,0-12.478,0-18.705,0c0,4.039,0,8.071,0,12.098c6.246,0,12.467,0,18.705,0C49.559,64.25,49.559,60.244,49.559,56.177z
			 M49.563,54.764c-6.26,0-12.49,0-18.724,0c0,0.221,0,0.425,0,0.637c6.254,0,12.483,0,18.724,0
			C49.563,55.184,49.563,54.986,49.563,54.764z"/>
		<path d="M50.111,18.271c0,0.644,0.009,1.289-0.003,1.933c-0.01,0.577-0.385,1.044-1.025,0.834c-0.083-0.027-0.179-0.02-0.269-0.02
			c-7.131,0-14.261,0-21.392,0.003c-1.041,0-2.083,0.026-3.124,0.022c-0.286-0.001-0.581-0.037-0.854-0.117
			c-0.115-0.033-0.264-0.22-0.265-0.338c-0.004-1.146,0.013-2.292,0.041-3.438c0.007-0.304-0.126-0.654,0.206-0.89
			c0.015-0.01-0.006-0.069-0.01-0.106c-0.04-0.359,0.075-0.512,0.439-0.51c0.43,0.002,0.86,0.053,1.29,0.053
			c4.401,0.004,8.802,0.003,13.204,0.003c3.676,0,7.352,0.001,11.028,0.002c0.499,0,0.738,0.235,0.737,0.726
			c0,0.614,0,1.229,0,1.843C50.114,18.271,50.112,18.271,50.111,18.271z M49.444,16.354c-8.564,0.023-17.099-0.011-25.587,0.017
			c0,1.399,0,2.709,0,4.043c8.557-0.003,17.069,0.006,25.587-0.004C49.444,18.995,49.444,17.667,49.444,16.354z"/>
		<path d="M37.513,33.148c0-3.66,0-7.3,0-10.965c0.114-0.005,0.222-0.014,0.329-0.014c3.716-0.001,7.432,0,11.148-0.006
			c0.14,0,0.289-0.044,0.416-0.104c0.252-0.119,0.531-0.02,0.578,0.26c0.049,0.295,0.066,0.598,0.064,0.897
			c-0.015,3.116-0.035,6.231-0.055,9.347c-0.003,0.4-0.178,0.603-0.543,0.603c-3.938,0.002-7.876,0-11.814-0.001
			C37.608,33.165,37.578,33.157,37.513,33.148z M38.255,22.813c0,3.265,0,6.468,0,9.678c3.673,0,7.339,0,10.994,0
			c0-3.237,0-6.443,0-9.678C45.582,22.813,41.941,22.813,38.255,22.813z"/>
		<path d="M50.996,29.877c0-1.496,0.004-2.991-0.001-4.487c-0.007-2.245-0.021-4.49-0.03-6.735c-0.003-0.755-0.001-1.511,0-2.266
			c0-0.387,0.08-0.459,0.457-0.454c1.59,0.024,3.18,0.044,4.771,0.066c0.05,0.001,0.101,0.003,0.151-0.001
			c0.554-0.037,0.662,0.047,0.659,0.598c-0.014,2.486-0.04,4.971-0.057,7.457c-0.019,2.788-0.036,5.576-0.045,8.364
			c-0.002,0.733,0.032,1.465,0.046,2.198c0.006,0.298-0.226,0.512-0.451,0.383c-0.373-0.215-0.775-0.177-1.165-0.184
			c-1.279-0.024-2.558-0.015-3.837-0.019c-0.422-0.001-0.525-0.087-0.523-0.501c0.006-0.943,0.028-1.886,0.039-2.83
			c0.006-0.53,0.001-1.06,0.001-1.59C51.006,29.877,51.001,29.877,50.996,29.877z M56.313,34.162
			c-0.032-5.884-0.064-11.707-0.096-17.513c-1.536,0-3.047,0-4.579,0c0,5.873,0,11.7,0,17.513
			C53.191,34.162,54.718,34.162,56.313,34.162z"/>
		<path d="M36.457,22.169c0,3.688,0,7.328,0,10.999c-0.443,0-0.874,0-1.305,0c-3.645,0-7.291,0.005-10.936-0.012
			c-0.27-0.001-0.553-0.141-0.8-0.273c-0.091-0.049-0.131-0.26-0.132-0.398c-0.009-1.43,0.001-2.86-0.008-4.29
			c-0.012-1.81-0.038-3.62-0.056-5.43c-0.005-0.526,0.114-0.635,0.633-0.598c0.02,0.001,0.04,0.001,0.06,0.001
			c3.171,0.02,6.342,0.046,9.512,0.057c0.894,0.003,1.788-0.036,2.682-0.056C36.205,22.167,36.304,22.169,36.457,22.169z
			 M35.812,22.818c-3.954,0-7.842,0-11.772,0c0,3.276,0,6.501,0,9.704c3.927,0,7.854,0,11.772,0
			C35.812,29.27,35.812,26.064,35.812,22.818z"/>
		<path d="M56.444,13.097c-0.391,0.001-0.747-0.287-0.759-0.612c-0.013-0.358,0.326-0.659,0.74-0.655
			c0.41,0.004,0.705,0.276,0.702,0.648C57.125,12.855,56.858,13.097,56.444,13.097z"/>
		<path d="M52.654,12.56c0.003,0.353-0.269,0.627-0.625,0.629c-0.365,0.003-0.751-0.34-0.761-0.675
			c-0.01-0.351,0.329-0.686,0.691-0.683C52.317,11.833,52.65,12.183,52.654,12.56z"/>
		<path d="M54.123,11.891c0.392-0.001,0.705,0.289,0.708,0.654c0.002,0.311-0.323,0.617-0.65,0.611
			c-0.359-0.006-0.706-0.317-0.708-0.635C53.471,12.159,53.747,11.891,54.123,11.891z"/>
	</g>
</g>
<g id="btCGay_1_">
	<g>
		<path d="M40.611,37.145c0,4.077,0,8.155,0,12.23c0.513,0.048,1.056-0.008,1.637,0.046c-0.903,0.958-1.895,1.79-2.781,2.73
			c-1.079-0.914-2.04-1.777-3.166-2.73c0.698-0.003,1.236-0.01,1.863-0.004c-0.031-4.104-0.061-8.188-0.092-12.272
			C38.918,37.145,39.765,37.145,40.611,37.145z"/>
		<path d="M16.042,50.072c0-1.52-0.059-3.034,0.001-4.492c0.487,0.466,0.94,0.899,1.421,1.358c0.776-0.927,1.536-1.827,2.287-2.733
			c1.468-1.771,2.918-3.557,4.405-5.311c0.469-0.553,1.027-1.032,1.559-1.529c0.224-0.21,0.486-0.175,0.704,0.031
			c0.311,0.295,0.815-0.238,1.119,0.065c0.056,0.056,1.216,0.194,1.164,0.249c-0.302,0.317-0.858,1.022-1.072,1.289
			c-0.356,0.445-0.726,0.881-1.099,1.312c-1.676,1.936-3.354,3.871-5.033,5.805c-0.696,0.801-2.343,2.599-2.343,2.599
			s0.7,0.652,0.889,0.909c0.077,0.105,0.118,0.29,0.078,0.406c-0.023,0.069-0.238,0.11-0.362,0.1
			C18.778,50.052,16.373,50.088,16.042,50.072z"/>
		<path d="M62.291,46.954c0.468-0.455,1.345-1.392,1.345-1.392s-0.006,3.109,0.053,4.519c-0.325,0.019-2.66,0.058-3.796,0.058
			c-0.332,0.028-0.464-0.164-0.278-0.438c0.196-0.287,0.309-0.403,0.551-0.656c0.15-0.157,0.319-0.407,0.319-0.407
			s-2.448-2.775-3.583-4.083c-1.095-1.261-2.207-2.507-3.307-3.764c-0.501-0.573-0.997-1.15-1.48-1.738
			c-0.259-0.314-1.229-1.269-0.879-1.48c0.058-0.035,1.744,0.121,2.055-0.175c0.218-0.207,0.476-0.24,0.705-0.034
			c0.483,0.434,0.986,0.854,1.415,1.337c0.797,0.898,1.552,1.834,2.317,2.76c1.394,1.687,2.782,3.378,4.174,5.066
			C62.009,46.656,62.07,46.715,62.291,46.954z"/>
	</g>
</g>
</svg>
