<?xml version="1.0" encoding="utf-8"?>
<!-- Generator: Adobe Illustrator 17.0.0, SVG Export Plug-In . SVG Version: 6.00 Build 0)  -->
<!DOCTYPE svg PUBLIC "-//W3C//DTD SVG 1.1//EN" "http://www.w3.org/Graphics/SVG/1.1/DTD/svg11.dtd">
<svg version="1.1" id="Layer_1" xmlns="http://www.w3.org/2000/svg" xmlns:xlink="http://www.w3.org/1999/xlink" x="0px" y="0px"
	 width="80px" height="80px" viewBox="0 0 80 80" enable-background="new 0 0 80 80" xml:space="preserve">
<g>
	<g id="nEb7lJ_1_">
		<g>
			<path d="M8.994,68.917c-0.091-0.023-0.182-0.066-0.274-0.068c-1.335-0.025-2.671-0.056-4.006-0.057
				c-0.326,0-0.399-0.104-0.399-0.412c0.008-5.098,0.019-10.195-0.011-15.292c-0.004-0.67,0.123-1.094,0.724-1.499
				c0.801-0.539,1.464-1.282,2.204-1.917c1.045-0.896,2.097-1.785,3.165-2.655c1.288-1.048,2.6-2.066,3.892-3.108
				c0.926-0.747,1.836-1.514,2.757-2.268c0.193-0.158,0.387-0.348,0.614-0.422c0.186-0.06,0.481-0.045,0.625,0.068
				c0.637,0.497,1.242,1.035,1.849,1.57c0.393,0.346,0.768,0.712,1.177,1.094c0.43-0.374,0.855-0.746,1.283-1.115
				c1.366-1.179,2.732-2.359,4.099-3.536c0.845-0.727,1.692-1.452,2.54-2.175c0.932-0.794,1.864-1.589,2.8-2.378
				c1.028-0.866,2.061-1.725,3.091-2.588c1.189-0.996,2.382-1.988,3.564-2.994c0.313-0.266,0.667-0.483,0.727-0.986
				c0.046-0.391,0.649-0.51,1.006-0.224c0.589,0.471,1.165,0.958,1.735,1.451c1.176,1.015,2.359,2.023,3.513,3.062
				c1.35,1.216,2.673,2.462,4.005,3.698c0.506,0.469,1.003,0.947,1.523,1.438c0.609-0.544,1.198-1.079,1.797-1.601
				c0.756-0.66,1.521-1.309,2.282-1.963c0.794-0.682,1.588-1.363,2.382-2.046c0.926-0.796,1.855-1.59,2.776-2.391
				c0.478-0.416,0.94-0.849,1.413-1.27c0.961-0.857,1.925-1.71,2.886-2.566c0.661-0.589,1.307-1.195,1.981-1.768
				c0.769-0.655,1.562-1.283,2.345-1.923c0.05-0.041,0.134-0.068,0.15-0.118c0.111-0.352,0.413-0.446,0.711-0.549
				c0.022,0,0.044,0,0.066,0c0.547,0.142,0.85,0.482,0.854,1.06c0.02,2.897,0.051,5.795,0.055,8.692
				c0.01,6.518,0.008,13.037,0.008,19.555c0,4.108-0.004,8.216-0.007,12.324c-0.001,1.626-0.001,3.253-0.005,4.879
				c-0.001,0.607-0.327,0.923-0.938,0.924c-1.502,0.002-3.004,0.003-4.505,0.004c-8.001,0.001-16.002,0.002-24.003,0.006
				c-0.159,0-0.317,0.04-0.476,0.061c-2.873,0-5.746,0-8.619,0c-0.071-0.015-0.142-0.043-0.214-0.044
				c-1.044-0.009-2.088-0.02-3.133-0.017c-0.376,0.001-0.752,0.039-1.128,0.061c-2.72,0-5.439,0-8.159,0
				c-0.062-0.012-0.123-0.035-0.185-0.035c-2.183-0.012-4.365-0.025-6.547-0.029c-0.3-0.001-0.6,0.042-0.901,0.064
				C11.056,68.917,10.025,68.917,8.994,68.917z M69.223,67.29c0-8.352,0-16.637,0-25.004c-0.745,0.648-1.419,1.248-2.107,1.831
				c-0.945,0.801-1.89,1.6-2.853,2.38c-1.138,0.922-2.285,1.832-3.443,2.729c-1.242,0.962-2.494,1.912-3.755,2.848
				c-1.385,1.028-2.782,2.039-4.182,3.045c-0.376,0.27-0.77,0.523-1.183,0.73c-0.288,0.145-0.538-0.042-0.6-0.349
				c-0.023-0.114-0.091-0.231-0.17-0.318c-0.153-0.171-0.325-0.325-0.494-0.481c-1.238-1.143-2.474-2.288-3.718-3.425
				c-0.986-0.901-1.98-1.792-2.975-2.683c-1.034-0.925-2.081-1.838-3.11-2.769c-0.534-0.484-1.043-0.996-1.575-1.507
				c-0.541,0.428-1.077,0.839-1.599,1.267c-1.088,0.894-2.176,1.787-3.248,2.7c-1.099,0.936-2.162,1.913-3.268,2.839
				c-1.691,1.416-3.395,2.817-5.114,4.198c-1.386,1.113-2.8,2.192-4.21,3.274c-0.172,0.132-0.266,0.243-0.256,0.475
				c0.022,0.516-0.407,0.788-0.885,0.573c-0.156-0.07-0.31-0.167-0.435-0.284c-1.142-1.054-2.299-2.093-3.41-3.18
				c-1.593-1.558-3.265-3.04-4.735-4.797c-0.079,0.095-0.148,0.195-0.233,0.279c-1.006,0.99-2.006,1.986-3.024,2.963
				c-0.647,0.621-1.325,1.209-1.985,1.817c-0.69,0.635-0.681,0.638-0.678,1.394c0.011,2.923,0.017,5.845,0.025,8.768
				c0.001,0.238,0,0.475,0,0.688C27.107,67.29,48.164,67.29,69.223,67.29z M52.049,54.353c0.203-0.167,0.385-0.322,0.572-0.471
				c1.223-0.975,2.44-1.956,3.671-2.92c1.402-1.098,2.825-2.169,4.224-3.271c0.983-0.774,1.945-1.576,2.911-2.372
				c0.907-0.747,1.811-1.498,2.708-2.258c0.791-0.67,1.574-1.348,2.351-2.034c0.396-0.349,0.782-0.654,0.762-1.318
				c-0.053-1.817-0.01-3.638-0.005-5.457c0.008-2.931,0.015-5.862,0.022-8.794c0.001-0.566,0-1.133,0-1.737
				c-0.091,0.043-0.157,0.057-0.201,0.096c-0.912,0.798-1.827,1.592-2.73,2.4c-0.791,0.707-1.558,1.44-2.353,2.142
				c-1.136,1.004-2.286,1.991-3.433,2.982c-0.949,0.82-1.901,1.638-2.856,2.451c-1.12,0.954-2.239,1.91-3.37,2.85
				c-1.129,0.939-2.163,2.031-3.721,2.384c-3.334-3.217-6.772-6.37-10.387-9.364c-0.929,0.798-1.816,1.575-2.72,2.332
				c-1.483,1.241-2.979,2.466-4.465,3.703c-1.982,1.651-3.958,3.307-5.937,4.961c-1.634,1.365-3.268,2.73-4.898,4.1
				c-0.076,0.064-0.143,0.166-0.167,0.262c-0.164,0.658-0.874,0.909-1.367,0.444c-0.557-0.525-1.076-1.091-1.603-1.647
				c-0.349-0.368-0.684-0.75-1.015-1.114c-0.522,0.417-1.032,0.829-1.546,1.234c-1.398,1.101-2.805,2.19-4.195,3.301
				c-2.031,1.624-4.052,3.26-6.069,4.901c-0.115,0.093-0.211,0.28-0.215,0.426c-0.023,0.778-0.015,1.557-0.014,2.335
				c0,0.068,0.023,0.135,0.036,0.202c0.05-0.007,0.078-0.002,0.091-0.014c1.355-1.154,2.709-2.308,4.063-3.464
				c0.498-0.425,0.988-0.86,1.496-1.274c0.298-0.243,0.562-0.17,0.749,0.16c0.063,0.112,0.132,0.23,0.226,0.314
				c0.755,0.664,1.527,1.308,2.273,1.982c1.185,1.071,2.351,2.162,3.53,3.24c0.686,0.627,1.383,1.244,2.083,1.874
				c0.041-0.022,0.094-0.039,0.134-0.073c0.783-0.664,1.566-1.327,2.346-1.995c1.146-0.981,2.288-1.967,3.435-2.946
				c1.238-1.057,2.484-2.106,3.721-3.164c1.279-1.094,2.541-2.207,3.829-3.29c1.295-1.088,2.607-2.156,3.923-3.218
				c0.345-0.278,0.708-0.566,1.111-0.731c0.52-0.213,1.062,0.217,0.941,0.707c-0.067,0.271,0.039,0.402,0.211,0.544
				c0.11,0.09,0.221,0.179,0.327,0.274c1.093,0.977,2.177,1.963,3.279,2.93c1.092,0.957,2.217,1.877,3.297,2.846
				c1.344,1.206,2.656,2.447,3.983,3.672C51.406,53.772,51.73,54.063,52.049,54.353z"/>
		</g>
	</g>
	<g id="zGXQHZ_1_">
		<g>
			<path d="M69.791,27.267c-0.414-0.067-0.838-0.097-1.24-0.206c-1.877-0.51-3.238-1.597-3.72-3.552
				c-0.317-1.285,0.038-2.471,0.743-3.558c0.228-0.352,0.5-0.676,0.757-1.02c-0.61-0.731-1.21-1.434-1.792-2.152
				c-0.471-0.581-0.915-1.185-1.385-1.767c-0.074-0.091-0.219-0.173-0.333-0.176c-1.387-0.033-2.776-0.037-4.162-0.083
				c-0.248-0.008-0.546-0.118-0.724-0.284c-0.339-0.315-0.139-0.852,0.322-0.946c0.212-0.043,0.431-0.067,0.647-0.069
				c1.335-0.014,2.671-0.008,4.006-0.036c0.427-0.009,0.735,0.118,1.014,0.45c0.932,1.111,1.889,2.201,2.84,3.295
				c0.228,0.262,0.472,0.511,0.685,0.741c2.05-0.858,3.975-0.709,5.722,0.644c0.971,0.752,1.567,1.782,1.757,3.019
				c0.006,0.038,0.04,0.071,0.062,0.106c0,0.417,0,0.833,0,1.25c-0.021,0.033-0.056,0.064-0.062,0.1
				c-0.361,1.901-1.432,3.222-3.244,3.909c-0.435,0.165-0.909,0.225-1.365,0.334C70.142,27.267,69.966,27.267,69.791,27.267z
				 M70.111,18.712c-0.853-0.043-1.63,0.211-2.34,0.702c-1.017,0.704-1.599,1.679-1.723,2.896c-0.117,1.154,0.32,2.094,1.236,2.823
				c0.95,0.756,2.049,1.032,3.209,0.86c2.061-0.305,3.408-2.465,3.061-4.311C73.275,20.205,71.908,18.605,70.111,18.712z"/>
			<path d="M55.513,13.055c0.13,0.048,0.266,0.083,0.388,0.147c0.269,0.141,0.456,0.359,0.431,0.675
				c-0.026,0.333-0.26,0.526-0.56,0.609c-0.207,0.057-0.43,0.075-0.646,0.074c-2.478-0.016-4.957-0.041-7.435-0.057
				c-0.456-0.003-0.793-0.178-0.995-0.593c0-0.066,0-0.132,0-0.197c0.12-0.389,0.404-0.566,0.791-0.588
				c0.249-0.014,0.5,0.005,0.749-0.005c0.386-0.015,0.772-0.043,1.158-0.065C51.433,13.055,53.473,13.055,55.513,13.055z"/>
			<path d="M46.696,18.516c0.167-0.417,0.4-0.587,0.833-0.59c2.568-0.023,5.136-0.047,7.704-0.059
				c0.211-0.001,0.432,0.054,0.631,0.13c0.3,0.113,0.489,0.351,0.469,0.679c-0.02,0.332-0.255,0.527-0.556,0.613
				c-0.196,0.056-0.408,0.077-0.613,0.075c-2.502-0.016-5.003-0.04-7.505-0.059c-0.445-0.003-0.767-0.191-0.963-0.592
				C46.696,18.648,46.696,18.582,46.696,18.516z"/>
			<path d="M51.622,15.491c1.316,0,2.631-0.002,3.947,0.001c0.505,0.001,0.866,0.402,0.793,0.866
				c-0.054,0.341-0.42,0.577-0.917,0.577c-1.36,0.003-2.719,0.002-4.078,0c-1.107-0.001-2.214-0.002-3.321-0.011
				c-0.228-0.002-0.46-0.022-0.684-0.064c-0.365-0.069-0.636-0.427-0.595-0.752c0.045-0.358,0.383-0.614,0.842-0.615
				C48.947,15.488,50.285,15.491,51.622,15.491z"/>
		</g>
	</g>
</g>
</svg>
