<?xml version="1.0" encoding="utf-8"?>
<!-- Generator: Adobe Illustrator 17.0.0, SVG Export Plug-In . SVG Version: 6.00 Build 0)  -->
<!DOCTYPE svg PUBLIC "-//W3C//DTD SVG 1.1//EN" "http://www.w3.org/Graphics/SVG/1.1/DTD/svg11.dtd">
<svg version="1.1" id="Layer_1" xmlns="http://www.w3.org/2000/svg" xmlns:xlink="http://www.w3.org/1999/xlink" x="0px" y="0px"
	 width="80px" height="80px" viewBox="0 0 80 80" enable-background="new 0 0 80 80" xml:space="preserve">
<g>
	<path fill="#FFFFFF" d="M39.363,40.979c0.953-0.401,1.978-0.654,2.965-1.096c-0.457-0.86-0.894-1.847-1.293-2.644
		c-0.141-0.292-0.243-0.651-0.51-0.838c-6.347,1.84-13.383,2.989-21.592,2.967c-0.165,6.627,2.241,11.249,5.414,14.756
		C28.007,48.459,32.877,43.701,39.363,40.979z"/>
	<path fill="#FFFFFF" d="M43.679,43.49c-7.31,2.637-13.052,6.841-16.625,13.213c2.401,1.888,5.662,3.516,9.475,4.19
		c4.194,0.739,8.593-0.044,11.73-1.417c-0.943-5.407-2.464-10.547-4.19-15.081C43.956,44.102,43.971,43.699,43.679,43.49z"/>
	<path fill="#FFFFFF" d="M30.987,20.933c-5.876,2.933-10,7.623-11.667,14.761c7.305-0.085,13.791-0.991,19.526-2.644
		C36.365,28.872,33.871,24.712,30.987,20.933z"/>
	<path fill="#FFFFFF" d="M40,4.316C20.289,4.316,4.316,20.294,4.316,40S20.289,75.684,40,75.684
		c17.966,0,32.826-13.283,35.31-30.561c0.243-1.181,0.355-2.396,0.335-3.648c0.019-0.488,0.039-0.982,0.039-1.475
		C75.684,20.294,59.706,4.316,40,4.316z M58.243,56.765c-1.968,2.156-4.306,3.888-7.086,5.286c-2.765,1.392-5.92,2.462-9.662,2.644
		c-7.888,0.384-14.068-2.651-18.175-6.442c-4.233-3.908-7.431-9.142-7.99-16.693c-0.296-4.015,0.491-7.563,1.677-10.569
		c1.23-3.125,2.688-5.468,4.7-7.667c2.819-3.077,6.649-5.755,11.473-7.089c1.73-0.481,3.533-0.787,5.351-0.904
		c8.068-0.52,14.034,2.731,18.233,6.508c4.19,3.762,7.485,9.232,7.927,16.756C65.159,46.513,62.117,52.542,58.243,56.765z"/>
	<path fill="#FFFFFF" d="M47.742,42.459c1.628,4.731,3.125,9.589,4.058,15.018c1.166-0.654,2.202-1.558,3.159-2.515
		c2.916-2.919,5.069-6.7,5.925-11.599C57.256,42.301,52.168,41.759,47.742,42.459z"/>
	<path fill="#FFFFFF" d="M43.038,31.827c4.413-1.791,8.34-4.073,10.953-7.669c-3.465-2.916-8.462-5.553-14.821-5.217
		c-1.541,0.078-2.678,0.192-4.058,0.515c2.372,3.482,4.899,7.094,6.96,10.763C42.372,30.748,42.576,31.378,43.038,31.827z"/>
	<path fill="#FFFFFF" d="M44.583,35.047c0.496,0.967,0.996,2.046,1.419,3.03c0.151,0.36,0.214,0.78,0.515,1.033
		c4.899-0.549,10.345-0.141,14.627,0.707c-0.165-5.786-2.085-9.815-4.768-13.084C53.315,30.372,49.254,33.016,44.583,35.047z"/>
</g>
</svg>
