<?xml version="1.0" encoding="utf-8"?>
<!-- Generator: Adobe Illustrator 17.0.0, SVG Export Plug-In . SVG Version: 6.00 Build 0)  -->
<!DOCTYPE svg PUBLIC "-//W3C//DTD SVG 1.1//EN" "http://www.w3.org/Graphics/SVG/1.1/DTD/svg11.dtd">
<svg version="1.1" id="Layer_1" xmlns="http://www.w3.org/2000/svg" xmlns:xlink="http://www.w3.org/1999/xlink" x="0px" y="0px"
	 width="80px" height="80px" viewBox="0 0 80 80" enable-background="new 0 0 80 80" xml:space="preserve">
<path fill="#FFFFFF" d="M40.162,4.282c-19.817,0-35.88,16.065-35.88,35.877c0,19.819,16.063,35.885,35.88,35.885
	s35.88-16.065,35.88-35.885C76.039,20.347,59.979,4.282,40.162,4.282 M50.571,25.55h-5.035c-0.995,0-2.005,1.043-2.005,1.817v5.177
	h7.03c-0.282,3.969-0.86,7.601-0.86,7.601h-6.203V62.65h-9.246V40.146h-4.497v-7.571h4.497v-6.193c0-1.134-0.228-8.713,9.474-8.713
	h6.847v7.88L50.571,25.55L50.571,25.55z"/>
</svg>
