<?xml version="1.0" encoding="utf-8"?>
<!-- Generator: Adobe Illustrator 17.0.0, SVG Export Plug-In . SVG Version: 6.00 Build 0)  -->
<!DOCTYPE svg PUBLIC "-//W3C//DTD SVG 1.1//EN" "http://www.w3.org/Graphics/SVG/1.1/DTD/svg11.dtd">
<svg version="1.1" id="Layer_1" xmlns="http://www.w3.org/2000/svg" xmlns:xlink="http://www.w3.org/1999/xlink" x="0px" y="0px"
	 width="80px" height="80px" viewBox="0 0 80 80" enable-background="new 0 0 80 80" xml:space="preserve">
<g>
	<path fill="#333333" d="M72.624,33.562h-3.262c-1.496,0-3.083-1.166-3.524-2.597l-1.876-4.552c-0.701-1.313-0.415-3.26,0.639-4.317
		l2.317-2.311c1.057-1.06,1.057-2.788,0-3.848l-3.854-3.843c-1.051-1.057-2.783-1.057-3.84,0l-2.32,2.314
		c-1.054,1.057-3.003,1.346-4.319,0.636l-4.543-1.87c-1.425-0.442-2.597-2.029-2.597-3.525V6.387c0-1.493-1.225-2.721-2.724-2.721
		h-5.435c-1.496,0-2.721,1.228-2.721,2.721V9.65c0,1.496-1.166,3.083-2.594,3.525l-4.549,1.87c-1.322,0.71-3.26,0.424-4.32-0.636
		l-2.317-2.314c-1.057-1.057-2.782-1.057-3.843,0L13.1,15.936c-1.063,1.057-1.063,2.788,0,3.845l2.305,2.314
		c1.057,1.057,1.351,3.003,0.639,4.317l-1.87,4.555c-0.448,1.428-2.029,2.597-3.525,2.597l-3.265-0.003
		c-1.496,0-2.721,1.222-2.721,2.718v5.435c0,1.493,1.225,2.718,2.721,2.718h3.265c1.496,0.003,3.077,1.172,3.519,2.6l1.876,4.552
		c0.71,1.316,0.418,3.265-0.639,4.32l-2.311,2.311c-1.057,1.057-1.057,2.785,0,3.848l3.848,3.845c1.057,1.057,2.782,1.057,3.843,0
		l2.317-2.311c1.054-1.054,2.997-1.343,4.308-0.633l4.561,1.876c1.425,0.442,2.594,2.026,2.594,3.522v3.254
		c0,1.493,1.225,2.718,2.721,2.718h5.435c1.499,0,2.724-1.225,2.724-2.718v-3.254c0-1.496,1.169-3.08,2.597-3.522l4.558-1.876
		c1.313-0.71,3.257-0.421,4.32,0.633l2.306,2.311c1.054,1.057,2.785,1.057,3.84,0l3.854-3.845c1.057-1.06,1.057-2.788,0-3.848
		l-2.317-2.311c-1.051-1.051-1.34-3.003-0.639-4.319l1.876-4.552c0.442-1.425,2.038-2.597,3.524-2.597h3.259
		c1.496,0,2.715-1.222,2.715-2.718v-5.441C75.339,34.786,74.117,33.562,72.624,33.562z M53.609,38.997
		c0,7.508-6.086,13.589-13.592,13.589c-7.511,0-13.595-6.08-13.595-13.589c0-7.505,6.083-13.589,13.595-13.589
		C47.52,25.405,53.609,31.492,53.609,38.997z"/>
</g>
</svg>
