<?xml version="1.0" encoding="utf-8"?>
<!-- Generator: Adobe Illustrator 17.0.0, SVG Export Plug-In . SVG Version: 6.00 Build 0)  -->
<!DOCTYPE svg PUBLIC "-//W3C//DTD SVG 1.1//EN" "http://www.w3.org/Graphics/SVG/1.1/DTD/svg11.dtd">
<svg version="1.1" id="Layer_1" xmlns="http://www.w3.org/2000/svg" xmlns:xlink="http://www.w3.org/1999/xlink" x="0px" y="0px"
	 width="80px" height="80px" viewBox="0 0 80 80" enable-background="new 0 0 80 80" xml:space="preserve">
<g>
	
		<ellipse transform="matrix(0.2621 0.965 -0.965 0.2621 53.7594 -7.8702)" fill="#FFFFFF" cx="32.026" cy="31.219" rx="6.676" ry="4.768"/>
	<path fill="#FFFFFF" d="M39.795,3.557c-20.128,0-36.444,16.316-36.444,36.444s16.316,36.441,36.444,36.441
		s36.444-16.314,36.444-36.441S59.923,3.557,39.795,3.557z M41.658,31.343c0,5.659-5.3,6.36-5.3,8.767s7.028,4.335,7.028,10.306
		c0,9.971-12.333,9.407-12.333,9.407s-10.657,0.385-10.657-7.641c0-8.03,12.095-7.706,12.717-7.706
		c-0.154-1.837-1.384-1.534-1.384-2.44v-2.25c0,0-9.149,1.028-9.149-7.833c0-8.865,10.47-9.121,10.47-9.121h10.336
		c0,1.577-4.72,1.02-4.72,1.863C41.341,25.905,41.658,27.949,41.658,31.343z M62.785,32.146h-7.198v7.193h-2.116v-7.193h-7.193
		V30.03h7.193v-7.2h2.116v7.2h7.198C62.785,30.03,62.785,32.146,62.785,32.146z"/>
	
		<ellipse transform="matrix(0.9977 -0.0677 0.0677 0.9977 -3.4211 2.3078)" fill="#FFFFFF" cx="32.338" cy="51.629" rx="7.744" ry="5.649"/>
</g>
</svg>
