<?xml version="1.0" encoding="utf-8"?>
<!-- Generator: Adobe Illustrator 16.0.4, SVG Export Plug-In . SVG Version: 6.00 Build 0)  -->
<!DOCTYPE svg PUBLIC "-//W3C//DTD SVG 1.1//EN" "http://www.w3.org/Graphics/SVG/1.1/DTD/svg11.dtd">
<svg version="1.1" id="Layer_1" xmlns="http://www.w3.org/2000/svg" xmlns:xlink="http://www.w3.org/1999/xlink" x="0px" y="0px"
	 width="1740.174px" height="1722.172px" viewBox="0 0 1740.174 1722.172" enable-background="new 0 0 1740.174 1722.172"
	 xml:space="preserve">
<g id="wrench">
	<g>
		<path fill-rule="evenodd" clip-rule="evenodd" d="M1061.487,470.19c-15.513-4.886-29.884-9.275-44.161-13.95
			c-11.884-3.891-23.981-6.06-36.47-4.952c-18.483,1.639-37.557,1.453-54.138,11.3c-23.369,13.88-42.079,32.246-49.64,59.306
			c-5.087,18.206-8.008,37.078-4.408,55.796c3.992,20.763,11.867,40.3,25.142,57.197c5.304,6.751,6.642,11.961,3.412,16.553
			c-1.606,2.284-3.85,4.125-5.839,6.134c-8.874,8.958-17.8,17.865-26.63,26.866c-9.204,9.383-18.33,18.84-27.471,28.284
			c-19.677,20.33-39.366,40.647-58.987,61.031c-3.896,4.047-7.51,8.366-11.342,12.659c-4.588-6.243-8.862-12.061-13.497-18.366
			c39.025-40.477,78.386-81.302,117.601-121.976c-13.438-19.978-20.201-42.022-23.869-65.317
			c-3.741-23.771-2.705-47.001,6.074-69.608c6.879-17.714,17.631-32.63,31.728-45.42c13.752-12.477,28.305-23.422,46.281-28.996
			c16.123-4.999,32.526-10.383,49.452-8.688c17.804,1.783,35.472,5.595,52.968,9.541c12.568,2.834,24.804,7.207,37.093,11.184
			c4.058,1.312,7.974,3.276,11.646,5.46c1.485,0.884,3.274,3.384,2.993,4.752c-1.38,6.724-1.711,13.577-6.682,19.486
			c-13.702,16.292-26.742,33.143-40.014,49.797c-14.395,18.064-28.773,36.142-43.106,54.255c-1.943,2.457-3.579,5.159-5.592,8.088
			c26.219,25.913,57.044,45.07,88.381,65.666c15.002-20.754,29.495-41.162,44.378-61.283c12.267-16.583,25.007-32.815,37.503-49.229
			c2.2-2.89,4.161-5.961,6.358-8.853c2.876-3.785,6.765-6.041,11.521-5.339c5.047,0.744,8.371,3.551,10.185,8.848
			c1.262,3.684,4.194,6.964,6.895,9.961c20.155,22.368,34.544,48.289,45.27,76.101c8.745,22.679,14.92,46.476,10.941,70.943
			c-2.408,14.807-8.013,29.157-12.834,43.492c-10.255,30.486-33.264,48.786-60.451,63.559
			c-17.623,9.575-36.633,14.343-55.798,18.264c-10.3,2.107-21.442,1.212-32.079,0.261c-11.711-1.047-23.457-3-34.862-5.856
			c-13.953-3.493-27.597-8.246-41.31-12.653c-3.722-1.195-7.132-3.357-10.853-4.557c-1.374-0.442-3.912,0.043-4.766,1.067
			c-16.512,19.8-32.729,39.846-49.263,59.627c-15.467,18.504-31.203,36.782-46.881,55.109c-4.831,5.646-9.859,11.125-15.16,17.089
			c-4.818-6.393-9.334-12.385-13.322-17.675c39.347-46.155,78.538-92.13,118.599-139.122c12,4.385,25.072,9.092,38.094,13.935
			c16.957,6.308,34.36,11.324,52.454,11.609c25.08,0.394,50.066-1.347,73.689-11.217c22.063-9.219,40.607-22.537,53.539-43.314
			c12.778-20.532,19.338-42.672,17.726-66.612c-0.772-11.472-4.558-22.766-7.235-34.08c-5.545-23.435-17.428-43.788-31.104-63.25
			c-5.016-7.139-9.926-14.352-15.176-21.953c-8.13,10.488-16.409,20.758-24.238,31.36c-13.666,18.507-27.247,37.084-40.475,55.905
			c-6.169,8.779-11.551,18.125-17.049,27.356c-2.831,4.752-9.8,6.514-16.336,2.911c-7.917-4.364-15.872-8.824-23.157-14.139
			c-22.626-16.511-44.957-33.425-67.367-50.229c-5.27-3.952-10.356-8.147-15.602-12.133c-6.991-5.312-7.587-9.061-3.059-16.555
			c12.192-20.178,27.686-37.774,42.799-55.714c10.424-12.374,19.992-25.465,30.024-38.17
			C1049.412,484.896,1054.986,478.193,1061.487,470.19z"/>
		<path fill-rule="evenodd" clip-rule="evenodd" d="M695.301,835.034c5.279,6.088,9.936,11.457,14.797,17.063
			c-17.268,18.537-34.729,37.032-51.905,55.789c-17.819,19.46-35.255,39.273-53.062,58.746
			c-14.692,16.068-29.886,31.68-44.451,47.859c-7.278,8.084-13.51,17.101-20.475,25.479c-4.974,5.984-10.615,11.417-15.542,17.437
			c-9.182,11.217-18.167,22.6-27.037,34.066c-9.461,12.231-20.003,23.859-25.574,38.562c-2.337,6.167-3.895,12.942-4.149,19.506
			c-0.31,8,0.488,16.187,1.957,24.078c2.146,11.532,9.371,20.673,15.992,30.015c9.979,14.08,23.652,23.766,38.723,31.291
			c13.773,6.877,28.429,4.623,42.951,1.726c16.433-3.277,27.571-14.551,38.881-25.388c20.714-19.847,41.489-39.66,61.447-60.256
			c19.067-19.679,38.561-39.227,55.265-60.843c20.58-26.634,44.119-50.435,66.265-75.561c7.224-8.196,14.083-16.714,21.514-25.565
			c5.465,6.252,10.772,12.323,16.244,18.582c-5.577,6.236-11.025,12.405-16.561,18.495c-6.935,7.627-14.021,15.117-20.9,22.792
			c-14.65,16.344-29.26,32.724-43.787,49.176c-8.808,9.975-17.238,20.288-26.183,30.136c-11.381,12.528-22.64,25.228-34.791,36.985
			c-23.268,22.515-47.454,44.083-70.597,66.722c-10.735,10.501-21.638,20.003-36.252,24.519
			c-27.845,8.604-53.257,5.09-77.701-11.835c-17.917-12.405-31.311-28.065-42.257-46.32c-8.177-13.636-11.135-28.396-11.569-44.457
			c-0.616-22.812,9.461-40.856,22.336-57.726c16.206-21.234,33.628-41.537,50.351-62.382c8.166-10.178,15.752-20.821,23.953-30.969
			c5.202-6.438,11.067-12.338,16.612-18.5c17.333-19.262,34.644-38.544,51.985-57.797c6.777-7.524,13.551-15.055,20.442-22.473
			c14.822-15.953,29.789-31.771,44.556-47.775C683.077,849.386,689.022,842.235,695.301,835.034z"/>
		<path fill-rule="evenodd" clip-rule="evenodd" d="M853.862,884.185c-3.494-4.728-6.122-8.282-9.919-13.42
			c7.023-6.409,14.304-12.511,20.949-19.239c11.206-11.345,22.046-23.053,32.968-34.676c6.704-7.135,13.951-13.894,19.744-21.719
			c8.614-11.636,13.466-24.801,10.697-39.714c-1.456-7.846-7.994-10.727-16.902-10.024c-15.045,1.185-25.915,9.778-36.478,18.872
			c-10.678,9.192-20.867,18.978-30.931,28.851c-10.859,10.654-21.323,21.71-32.118,32.752c0.088,0.071-0.342-0.148-0.592-0.497
			c-7.734-10.767-7.68-10.717,1.917-20.537c14.171-14.502,27.611-29.802,42.605-43.39c10.387-9.413,19.102-21.293,33.356-26.068
			c13.053-4.373,25.888-5.87,39.272-1.229c10.42,3.614,14.637,11.514,15.646,20.659c2.271,20.581-4.405,38.657-18.02,54.017
			c-8.029,9.06-16.688,17.563-25.139,26.245c-14.516,14.914-29.099,29.764-43.62,44.673
			C856.147,880.924,855.258,882.364,853.862,884.185z"/>
		<path fill-rule="evenodd" clip-rule="evenodd" d="M735.659,895.322c2.082,3.207,4.679,7.206,7.73,11.907
			c-6.199,6.389-12.554,12.846-18.808,19.399c-18.583,19.474-37.634,38.534-55.526,58.624
			c-14.699,16.505-29.888,32.703-41.884,51.493c-6.812,10.668-4.975,27.833,4.919,35.811c2.441,1.968,6.02,2.528,9.08,3.724
			c3.264,1.274,8.812,1.68,7.39,6.118c-0.955,2.982-5.911,5.986-9.473,6.571c-8.46,1.391-14.979-3.706-20.038-9.686
			c-7.477-8.836-12.432-19.117-11.613-31.069c0.304-4.438,1.365-9.407,3.768-13.009c7.674-11.502,15.745-22.791,24.403-33.567
			c9.647-12.006,19.985-23.467,30.26-34.953c5.87-6.564,12.263-12.659,18.33-19.051c14.057-14.807,28.005-29.717,42.13-44.458
			C729.066,900.317,732.405,898.032,735.659,895.322z"/>
		<path fill-rule="evenodd" clip-rule="evenodd" d="M593.433,1155.794c-0.545,15.985-6.727,29.216-21.152,37.843
			c-13.871,8.295-31.075,6.637-41.461-6.71c-4.053-5.209-8.709-10.189-11.604-16.013c-7.26-14.603-3.156-28.262,5.356-41.022
			c6.131-9.19,14.913-15.053,25.734-16.208c13.699-1.463,25.478,3.524,34.193,14.442
			C590.814,1136.037,593.716,1145.262,593.433,1155.794z M555.793,1132.47c-0.181-0.422-0.36-0.844-0.541-1.265
			c-4.265,1.824-9.244,2.79-12.66,5.634c-10.078,8.39-14.054,23.01-2.681,36.34c5.07,5.941,10.39,9.123,18.395,7.124
			c10.108-2.524,19.2-14.994,17.227-27.249C573.372,1139.642,567.628,1133.133,555.793,1132.47z"/>
		<path fill-rule="evenodd" clip-rule="evenodd" d="M774.829,949.239c3.857,4.512,7.6,8.889,12.151,14.213
			c-13.467,12.989-26.913,25.81-40.187,38.807c-11.059,10.83-21.979,21.803-32.841,32.83
			c-11.318,11.492-22.491,23.127-33.732,34.694c-0.812,0.835-1.6,1.707-2.498,2.438c-2.842,2.312-6.07,3.12-9.024,0.658
			c-3.116-2.597-1.837-5.95,0.139-8.448c5.459-6.903,10.984-13.789,16.955-20.244c12.277-13.273,24.915-26.212,37.304-39.382
			c10.228-10.871,20.3-21.889,30.464-32.819C760.556,964.462,767.591,956.977,774.829,949.239z"/>
	</g>
</g>
<g id="sparkles">
	<g>
		<path fill-rule="evenodd" clip-rule="evenodd" d="M472.957,320.969c3.979,2.516,5.369,6.022,5.055,10.77
			c-0.953,14.373-0.622,28.655,3.31,42.711c4.831,17.27,16.246,27.306,33.328,31.502c3.184,0.782,6.273,2.042,9.49,2.567
			c4.011,0.654,6.154,3.047,8.337,6.246c2.936,4.303,1.386,7.981-3.448,8.984c-32.038,6.646-43.792,30.501-49.675,58.87
			c-1.301,6.272,0.597,13.181,0.789,19.804c0.104,3.58-0.613,7.338-4.542,8.477c-2.237,0.647-5.963,0.676-7.172-0.673
			c-1.952-2.177-3.345-5.737-3.292-8.683c0.28-15.354-2.166-30.061-6.848-44.758c-5.826-18.289-18.96-26.774-36.314-30.805
			c-6.364-1.479-12.854-2.447-19.154-4.142c-2.1-0.564-3.786-2.665-5.662-4.063c2.114-1.588,4.011-3.947,6.384-4.617
			c6.6-1.864,13.485-2.709,20.101-4.531c14.24-3.919,22.415-14.531,28.406-27.122c6.227-13.085,9.172-27.044,10.456-41.44
			c0.435-4.864,1.461-9.748,2.896-14.414c0.57-1.853,2.982-3.14,4.556-4.684C470.957,320.969,471.957,320.969,472.957,320.969z
			 M466.306,380.928c-6.498,15.634-16.699,26.977-29.697,36.569c18.708,6.179,30.142,18.664,36.37,37.365
			c6.744-16.95,16.323-29.842,31.319-39.033C486.927,409.09,473.558,399.159,466.306,380.928z"/>
		<path fill-rule="evenodd" clip-rule="evenodd" d="M359.957,653.969c3.514-3.703,8.25-2.569,12.56-3.263
			c15.099-2.428,24.754-12.517,31.991-24.722c4.232-7.139,6.665-15.476,9.021-23.533c0.996-3.409-0.48-7.484-0.472-11.256
			c0.007-2.954,0.642-5.901,0.867-8.861c0.301-3.951,2.463-6.265,6.296-6.164c4.11,0.109,6.045,3.122,6.637,6.864
			c0.539,3.409,0.619,6.889,1.097,10.31c2.491,17.812,9.306,33.286,24.699,43.729c3.275,2.222,7.313,3.328,11.031,4.876
			c0.577,0.24,1.388-0.082,1.971,0.153c4.097,1.654,9.539,2.769,9.846,7.842c0.296,4.896-4.75,5.778-8.717,7.13
			c-20.586,7.015-35.605,25.025-34.855,48.564c0.058,1.83,0.672,4.116-0.174,5.396c-1.474,2.229-3.611,4.767-5.975,5.462
			c-2.73,0.803-5.318-0.916-5.969-4.457c-1.124-6.11-2.575-12.158-3.772-18.256c-3.5-17.83-19.189-29.494-36.572-32.581
			c-1.348-0.239-2.855,0.609-4.305,0.711c-5.318,0.371-10.566,0.246-15.205-2.944C359.957,657.302,359.957,655.636,359.957,653.969z
			 M423.068,675.973c7.736-8.21,15.459-16.404,23.053-24.463c-3.992-3.358-8.926-6.946-13.156-11.229
			c-4.253-4.307-7.806-9.306-10.76-12.901c-7.741,8.92-15.754,18.153-23.707,27.316C409.221,658.99,417.522,666.719,423.068,675.973
			z"/>
		<path fill-rule="evenodd" clip-rule="evenodd" d="M644.499,471.748c0.091-14.148-3.785-20.736-16.691-23.832
			c-3.146-0.755-6.275-1.841-9.176-3.259c-1.769-0.865-3.083-2.658-4.602-4.033c1.533-1.542,2.817-3.544,4.648-4.537
			c4.854-2.632,10.182-4.436,14.886-7.287c7.859-4.764,9.639-12.782,10.413-21.273c0.191-2.11,1.195-4.719,2.74-5.973
			c1.531-1.243,4.555-1.941,6.297-1.265c1.708,0.664,3.022,3.212,3.769,5.21c0.597,1.598,0.288,3.642,0.026,5.436
			c-1.603,10.975,3.049,19.139,13.383,23.32c1.695,0.686,3.688,1.1,4.947,2.276c1.37,1.28,2.963,3.419,2.769,4.973
			c-0.197,1.58-2.336,3.972-3.83,4.136c-4.323,0.475-9.174-0.117-11.258,4.587c-2.368,5.346-4.291,10.998-5.507,16.709
			c-0.884,4.151-0.429,8.617-0.333,12.938c0.07,3.165-0.465,5.613-4.182,6.09c-3.858,0.495-6.006-1.479-6.81-4.947
			C645.285,477.976,644.98,474.841,644.499,471.748z M640.279,439.776c3.488,3.171,6.641,6.037,9.798,8.917
			c2.278-2.704,4.557-5.407,6.707-7.959c-2.873-2.977-5.606-5.81-8.331-8.632C645.689,434.697,643.042,437.182,640.279,439.776z"/>
	</g>
</g>
<g id="wand">
	<g>
		<path fill-rule="evenodd" clip-rule="evenodd" d="M481,573.308c1.999-4.928,3.899-9.899,6.014-14.777
			c7.926-18.282,22.802-30.152,38.594-40.946c13.382-9.146,28.263-15.28,43.862-19.637c6.548-1.829,9.05-0.501,12.925,4.858
			c9.231,12.766,18.945,25.182,28.181,37.945c25.073,34.651,49.775,69.572,75.045,104.078
			c26.41,36.063,53.114,71.915,80.062,107.577c19.344,25.599,39.154,50.849,59.043,76.029
			c10.968,13.887,22.712,27.158,33.771,40.975c13.687,17.102,26.99,34.51,40.526,51.732c9.804,12.475,19.808,24.791,29.561,37.305
			c14.812,19.007,29.51,38.103,44.208,57.198c11.743,15.256,23.522,30.484,35.096,45.869
			c28.296,37.613,56.518,75.281,84.688,112.988c8.698,11.643,17.247,23.402,25.639,35.268c3.569,5.047,4.059,10.469,0.841,16.217
			c-2.252,4.025-3.815,8.447-5.539,12.752c-7.477,18.664-22.459,28.324-40.748,33.967c-2.968,0.916-6.183,1.039-9.142,1.979
			c-16.589,5.266-28.881-1.631-39.347-13.729c-9.99-11.549-20.008-23.076-29.822-34.775c-7.123-8.488-13.848-17.311-20.906-25.855
			c-7.174-8.684-14.62-17.143-21.798-25.826c-7.899-9.557-15.626-19.256-23.432-28.889c-12.158-15.004-24.342-29.986-36.472-45.014
			c-8.093-10.025-16.078-20.137-24.17-30.162c-9.961-12.342-20.053-24.576-29.961-36.959
			c-15.457-19.316-30.701-38.805-46.231-58.063c-17.729-21.984-35.678-43.793-53.52-65.686c-20.372-25-40.966-49.824-61.018-75.078
			c-14.98-18.869-29.086-38.43-43.894-57.44c-12.484-16.027-25.204-31.882-38.202-47.496c-18.42-22.129-37.748-43.524-55.653-66.056
			c-17.12-21.542-33-44.074-49.23-66.313c-3.426-4.694-6.003-10.007-8.972-15.035C481,579.308,481,576.308,481,573.308z
			 M568.91,519.121c-8.698,4.948-17.663,9.786-26.366,15.055c-17.764,10.755-33.41,23.446-40.783,44.032
			c-1.267,3.538-0.313,5.417,1.414,7.76c8.899,12.074,17.526,24.363,26.781,36.158c13.273,16.918,26.892,33.57,40.585,50.152
			c9.815,11.886,20.131,23.357,29.972,35.223c10.835,13.062,21.382,26.363,31.991,39.483c18.126-21.133,40.782-36.642,63.55-50.933
			C653.753,637.187,611.46,578.333,568.91,519.121z M719.098,724.372c-7.769,5.442-15.12,10.427-22.206,15.764
			c-0.922,0.694-1.284,3.837-0.546,4.784c15.234,19.531,30.533,39.016,46.102,58.281c11.64,14.402,23.715,28.451,35.528,42.713
			c12.328,14.883,24.62,29.797,36.844,44.766c13.084,16.021,26.151,32.057,39.079,48.203c15.266,19.068,30.438,38.212,45.533,57.415
			c13.569,17.26,26.964,34.658,40.465,51.973c12.48,16.004,24.893,32.064,37.537,47.939c9.89,12.416,20.05,24.617,30.16,36.855
			c12.003,14.529,24.083,28.994,36.127,43.488c12.785,15.387,25.561,30.783,38.354,46.164c4.05,4.869,8.145,9.701,12.688,15.109
			c1.623-3.52,2.728-6.256,4.111-8.844c2.591-4.844,1.565-8.816-2.201-12.623c-2.18-2.203-3.879-4.9-5.693-7.447
			c-15.753-22.113-31.188-44.461-47.299-66.311c-18.871-25.594-38.32-50.764-57.528-76.109
			c-15.147-19.986-30.143-40.094-45.508-59.912c-19.476-25.123-39.269-49.999-58.904-74.997
			c-13.469-17.146-26.788-34.41-40.39-51.451c-9.487-11.885-19.48-23.365-28.988-35.234c-9.154-11.426-17.972-23.121-26.942-34.693
			c-14.562-18.787-29.143-37.558-43.686-56.358C734.373,744.33,727.076,734.765,719.098,724.372z M708.372,711.826
			c-1.288-4.159-3.522-4.063-6.658-1.899c-7.544,5.206-15.294,10.113-22.817,15.349c-13.972,9.72-26.011,21.423-35.818,35.436
			c1.256,1.414,2.414,2.718,3.553,4.001C664.903,744.369,685.4,726.873,708.372,711.826z"/>
	</g>
</g>
</svg>
