<?xml version="1.0" encoding="utf-8"?>
<!-- Generator: Adobe Illustrator 16.0.4, SVG Export Plug-In . SVG Version: 6.00 Build 0)  -->
<!DOCTYPE svg PUBLIC "-//W3C//DTD SVG 1.1//EN" "http://www.w3.org/Graphics/SVG/1.1/DTD/svg11.dtd">
<svg version="1.1" id="Layer_1" xmlns="http://www.w3.org/2000/svg" xmlns:xlink="http://www.w3.org/1999/xlink" x="0px" y="0px"
	 width="1256px" height="1172px" viewBox="0 0 1256 1172" enable-background="new 0 0 1256 1172" xml:space="preserve">
<g id="TCJ0al_1_">
	<g>
		<path d="M56,731c0-122.667,0-245.333,0-368c0.32-1.164,0.841-2.314,0.922-3.495c0.238-3.472-0.269-7.092,0.528-10.411
			c4.657-19.397,28.3-39.063,48.169-40.023c12.375-0.599,24.773-0.949,37.162-0.965c64.05-0.082,128.1-0.02,192.15-0.008
			c5.261,0.001,10.521,0,16.086,0c0-2.719,0-4.694,0-6.67c0-72.329-0.004-144.658,0.009-216.987
			c0.001-4.226,0.003-8.46,0.242-12.677c0.354-6.24,5.831-9.744,14.947-9.745c263.649-0.001,527.298,0,790.946,0
			c6.497,0,12.995-0.047,19.491,0.01c7.558,0.066,11.569,3.382,13.353,10.653c0.371,1.511,1.313,2.882,1.993,4.318
			c0,176.333,0,352.667,0,529c-1.298,2.334-3.361,4.548-3.751,7.025c-1.237,7.86-4.305,10.947-12.319,10.946
			c-87.286-0.009-174.572-0.039-261.858-0.062c-11.937-0.004-23.873-0.001-36.263-0.001c0.304,2.097,0.361,3.727,0.789,5.253
			c6.45,22.994,12.805,46.017,19.473,68.948c8.506,29.251,17.438,58.38,25.834,87.662c2.625,9.156,8.209,18.052,4.118,28.274
			c-0.285,0.714-0.053,1.653,0.009,2.482c0.304,4.108,0.836,8.211,0.905,12.322c0.125,7.413-2.72,10.127-10.189,10.128
			c-31.327,0.005-62.655,0.002-93.982,0.002c-1.781,0-3.562,0-5.782,0c0,1.81-0.001,3.108-0.001,4.406
			c0,72.486,0,144.974,0.001,217.46c0,7.559,0.606,15.175-0.111,22.664c-1.838,19.191-19.291,36.463-39.258,38.545
			c-1.259,0.132-2.411,1.272-3.613,1.943c-70,0-140,0-210,0c-2.256-0.674-4.47-1.603-6.773-1.979
			c-14.94-2.443-26.198-10.039-29.81-25.03c-2.982-12.383-4.925-25.291-5.163-38.007c-0.674-35.973-0.288-71.967-0.223-107.952
			c0.088-48.274,0.269-96.549,0.405-144.823c0.015-5.016,0.002-10.031,0.002-15.227c-2.91,0-4.896,0-6.884,0
			c-132.278-0.011-264.557-0.003-396.834-0.096c-5.916-0.004-12.04-0.11-17.708-1.567c-18.096-4.653-29.495-17.651-37.778-33.349
			C61.128,748.188,59.015,739.356,56,731z M424.675,307.892c1.351,0.06,2.345,0.146,3.338,0.141
			c59.133-0.292,118.266-0.608,177.398-0.881c21.328-0.099,42.688,0.604,63.974-0.383c13.685-0.636,25.901,2.966,37.443,9.071
			c5.769,3.052,11.765,7.658,14.937,13.137c4.147,7.161,5.633,15.873,8.198,23.938c1.086,3.412,2.771,6.854,2.876,10.321
			c0.59,19.457,0.998,38.925,1.065,58.391c0.151,43.825,0.065,87.651,0.076,131.477c0.001,1.577,0,3.155,0,4.114
			c129.841,0,258.887,0,388.365,0c-0.512-141.827-1.021-282.851-1.529-424.016c-232.354,0-463.901,0-696.142,0
			C424.675,191.507,424.675,249.5,424.675,307.892z M137.981,371.266c0,1.983,0.021,3.621-0.003,5.259
			c-0.974,66.896,1.908,133.822-1.878,200.705c-1.1,19.422-0.968,38.924-1.076,58.391c-0.164,29.493,0.072,58.989-0.156,88.481
			c-0.038,4.896,1.431,6.021,6.152,6.017c126.141-0.126,252.282-0.1,378.423-0.1c1.761,0,3.521,0,5.575,0
			c0-9.157-0.35-17.651,0.093-26.105c0.496-9.479,0.438-19.041,3.888-28.209c3.881-10.316,8.691-20.195,19.528-24.179
			c7.433-2.731,15.713-3.987,23.674-4.284c16.974-0.632,33.985-0.212,50.982-0.223c2.452-0.002,4.904,0,8.041,0
			c0-92.846,0-185.192,0-277.635C466.719,372.92,302.694,369.815,137.981,371.266z M409.416,307.875
			c0.203-2.645,0.58-5.235,0.576-7.825c-0.07-41.405-0.144-82.81-0.322-124.215c-0.064-15.137-0.407-30.272-0.622-45.409
			c-0.093-6.619,3.61-11.612,11.058-11.551c28.174,0.231,56.353-0.165,84.53-0.218c31.975-0.061,63.95,0.059,95.925-0.019
			c35.27-0.086,70.539-0.445,105.81-0.429c32.979,0.016,65.958,0.517,98.938,0.526c29.299,0.008,58.597-0.564,87.895-0.519
			c32.237,0.05,64.474,0.628,96.711,0.765c33.491,0.143,66.984,0.04,100.478,0.032c11.799-0.003,23.599-0.027,35.398-0.072
			c6.496-0.024,12.513,5.961,12.369,13.182c-0.719,36.12-1.081,72.25-1.131,108.377c-0.139,100.438-0.062,200.876-0.062,301.314
			c0,4.541-0.478,9.174,0.245,13.605c1.682,10.303-3.204,16.561-13.612,16.559c-122.816-0.021-245.632-0.045-368.448-0.068
			c-6.935-0.001-13.869,0-20.771,0c0,11.033,0,21.406,0,31.124c145.082,0,289.74,0,434.404,0c0-173.692,0-346.626,0-520.046
			c-264.606,0-528.956,0-793.526,0c0,75.203,0,149.926,0,224.886C386.663,307.875,397.77,307.875,409.416,307.875z M524.932,746.95
			c-2.542,0-4.496,0.009-6.451-0.001c-34.365-0.187-68.73-0.475-103.096-0.53c-23.855-0.038-47.711,0.353-71.565,0.351
			c-19.708-0.001-39.416-0.395-59.124-0.436c-19.062-0.039-38.125,0.231-57.188,0.212c-16.58-0.018-33.159-0.28-49.739-0.38
			c-16.483-0.098-32.969-0.075-49.452-0.213c-6.575-0.055-10.234-3.77-10.291-10.055c-0.525-58.565,0.091-117.117-1.584-175.704
			c-1.841-64.366-0.25-128.826-0.59-193.244c-0.059-11.126,5.473-17.015,17.166-17.004c124.992,0.116,249.985-0.013,374.977,0.12
			c41.439,0.044,82.88,0.625,124.319,1.038c2.616,0.026,5.311,0.429,7.82,1.163c6.552,1.918,10.78,7.361,10.871,14.194
			c0.143,10.775-0.061,21.555,0.006,32.331c0.26,41.904,0.657,83.807,0.831,125.71c0.161,38.827,0.103,77.655,0.14,116.482
			c0.002,1.925,0,3.851,0,5.548c19.054,0,37.394,0,55.995,0c0-18.248-0.004-36.017,0-53.784
			c0.013-58.989,0.027-117.979,0.042-176.969c0.004-15.998-0.395-32.011,0.178-47.989c0.301-8.41-0.805-16.236-4.214-23.82
			c-0.727-1.616-1.17-4.001-2.438-4.628c-6.791-3.361-12.537-7.918-21.414-7.727c-29.417,0.634-58.867-0.538-88.305-0.591
			c-92.912-0.167-185.824-0.153-278.737-0.183c-52.329-0.017-104.659,0.071-156.988,0.003c-16.378-0.021-32.761-0.25-49.133-0.695
			c-6.09-0.165-11.148,1.7-14.799,6.297c-5.988,7.541-9.17,16.375-9.125,26.001c0.137,28.894,0.832,57.785,0.801,86.677
			c-0.047,44.071-0.634,88.143-0.779,132.214c-0.156,47.326,0.183,94.655-0.271,141.978c-0.104,10.896,3.143,20.078,9.066,28.627
			c7.238,10.446,15.346,16.633,30.156,16.542c131.318-0.804,262.645-0.467,393.968-0.473c1.83,0,3.886,0.42,5.424-0.272
			c1.457-0.656,3.26-2.453,3.365-3.864C525.169,758.59,524.932,753.256,524.932,746.95z M667.509,1101.019
			c32.997,0,65.994,0.015,98.992-0.008c12.078-0.009,22.045-7.114,24.346-18.296c1.685-8.186,3.026-16.619,3.041-24.945
			c0.199-117.823,0.126-235.646,0.217-353.47c0.004-4.915,0.794-9.853,1.522-14.734c0.642-4.305-3.8-15.169-7.828-16.493
			c-6.477-2.13-13.147-4.211-19.877-4.873c-6.721-0.66-13.615,0.762-20.432,0.733c-60.304-0.249-120.606-0.633-180.91-0.896
			c-2.418-0.011-5.563-0.029-7.131,1.357c-6.013,5.315-11.108,11.708-11.332,20.102c-0.257,9.625,0.784,19.277,0.806,28.92
			c0.25,110.455,0.424,220.911,0.576,331.367c0.009,6.429-0.971,12.92-0.342,19.269c0.689,6.962,2.426,13.867,4.226,20.66
			c2.119,7.996,7.033,11.303,15.635,11.304C601.848,1101.021,634.678,1101.019,667.509,1101.019z M913.503,802.853
			c-17.496-59.819-35.542-118.762-50.733-179.268c-42.373,0-85.353,0-128.853,0c0,7.304,0,14.698,0,22.29
			c0.195,0.041,0.835,0.267,1.484,0.295c14.22,0.63,28.463,0.933,42.653,1.963c8.604,0.625,16.855,3.35,23.539,9.085
			c12.148,10.422,17.193,24.282,17.31,39.852c0.252,33.648,0.078,67.3,0.078,100.95c0,1.586,0,3.172,0,4.833
			C850.668,802.853,881.619,802.853,913.503,802.853z M819.082,826.718c32.55,0,65.044,0,97.604,0c0-3.644,0-7.033,0-10.356
			c-32.726,0-65.117,0-97.604,0C819.082,819.896,819.082,823.052,819.082,826.718z"/>
		<path fill-rule="evenodd" clip-rule="evenodd" d="M677.75,522.019c11.845-0.831,20.538,7.448,21.046,18.234
			c0.612,12.99-9.365,23.688-21.266,23.711c-10.557,0.021-19.177-9.217-19.341-22.224
			C658.029,529.019,665.395,522.018,677.75,522.019z"/>
		<path fill-rule="evenodd" clip-rule="evenodd" d="M784.981,872.953c-0.001,56.316-0.001,112.633,0,168.948
			c0,8.295-3.463,10.745-11.649,8.681c-2.67-0.673-5.575-0.571-8.372-0.562c-29.648,0.086-59.297,0.217-88.945,0.354
			c-19.874,0.091-39.749,0.33-59.623,0.281c-15.824-0.038-31.656-0.177-47.468-0.752c-6.49-0.236-9.625-5.424-8.324-11.827
			c0.359-1.769,0.401-3.624,0.402-5.438c0.021-43.486,0.145-86.973-0.017-130.459c-0.196-53.441-0.649-106.883-0.956-160.324
			c-0.076-13.255-0.047-26.511,0.004-39.767c0.023-6.423,3.917-9.455,10.207-8.294c1.779,0.328,3.648,0.216,5.477,0.218
			c55.979,0.056,111.959,0.06,167.938,0.184c10.968,0.024,21.935,0.547,32.902,0.77c5.877,0.12,8.421,2.754,8.422,9.042
			C784.984,760.321,784.981,816.638,784.981,872.953z M576.995,709.706c-0.976,109.695-2.279,218.312-1.974,327.024
			c65.819,0,130.204,0,194.09,0c0-109.389,0-218.486,0-327.024C704.641,709.706,641.077,709.706,576.995,709.706z"/>
		<path fill-rule="evenodd" clip-rule="evenodd" d="M676.515,1092.981c-10.04,1.105-18.78-8.078-18.445-17.033
			c0.452-12.082,7.249-17.367,16.493-17.769c9.711-0.421,20.632,9.966,20.262,18.676
			C694.402,1086.806,685.043,1094.196,676.515,1092.981z"/>
	</g>
</g>
<g id="_x30_N3O4X_1_">
	<g>
		<path fill="#FFFFFF" d="M1028.855,353.22c-3.617-12.328-6.98-24.282-10.688-36.13c-1.221-3.908-2.822-7.896-5.15-11.213
			c-3.43-4.887-10.461-6.492-15.201-4.315c-4.578,2.102-7.332,8.079-6.355,14.03c0.729,4.428,1.562,8.839,2.398,13.249
			c2.125,11.228,4.277,22.449,6.475,33.969c-5.881,2.155-11.498,4.145-17.062,6.267c-17.379,6.629-34.844,13.054-52.057,20.089
			c-7.025,2.871-8.73,7.833-6.432,14.021c3.062,8.234,7.52,11.265,15.055,9.178c19.676-5.448,39.256-11.241,58.875-16.89
			c2.613-0.753,5.238-1.467,8.057-2.254c1.93,8.956,3.414,17.306,5.568,25.479c2.58,9.777,5.258,19.582,8.793,29.039
			c2.701,7.227,10.764,10.719,18.102,9.201c5.918-1.223,9.869-7.043,10.055-14.929c0.043-1.826,0.027-3.688-0.27-5.482
			c-1.059-6.396-2.211-12.776-3.4-19.149c-2.123-11.395-4.299-22.78-6.467-34.239c1.906-0.812,3.4-1.538,4.955-2.097
			c14.846-5.328,29.775-10.427,44.521-16.015c7.92-3.002,10.186-7.754,8.406-15.168c-2.09-8.717-7.906-13.944-15.703-12.908
			c-6.701,0.891-13.383,2.535-19.822,4.619C1050.646,345.086,1039.984,349.213,1028.855,353.22z M863,259.907
			c15.998,12.23,31.648,24.194,47.588,36.38c5.176-6.306,10.279-12.522,15.811-19.261c-16.443-12.564-32.51-24.841-48.977-37.424
			C872.305,246.808,867.633,253.384,863,259.907z M252.651,424.779c-21.244,11.021-34.076,28.471-41.973,50.551
			c7.371,3.388,14.652,6.734,22.601,10.388c6.182-18.013,16.438-32.097,33.427-40.518
			C261.66,437.87,257.162,431.333,252.651,424.779z M568.853,308.07c4.715-9.033,8.687-17.665,13.583-25.735
			c4.891-8.061,10.708-15.558,16.385-23.682c-6.364-4.902-12.744-9.818-19.085-14.703c-11.838,12.258-29.677,41.961-32.44,54.052
			C554.392,301.317,561.563,304.666,568.853,308.07z M219.981,609.5c13.898,18.469,31.96,29.863,53.649,36.822
			c3.109-7.588,6.147-15,9.419-22.986c-18.398-5.721-33.46-15.334-44.812-30.602C231.885,598.568,226.039,603.938,219.981,609.5z
			 M290.125,440.7c19.984,2.767,39.108,5.415,58.534,8.104c1.549-7.81,3.08-15.527,4.654-23.467
			c-20.587-4.619-40.779-7.951-61.766-8.304C291.047,425.375,290.572,433.269,290.125,440.7z M849.309,221.88
			c-19.176-8.787-37.631-17.243-56.492-25.885c-3.373,8.606-6.301,16.072-9.09,23.182c18.254,8.37,35.979,16.498,53.994,24.758
			C841.359,237.01,845.043,229.997,849.309,221.88z M442.897,444.827c-19.672-3.878-38.869-7.663-58.603-11.553
			c-1.786,7.636-3.616,15.459-5.666,24.223c20.451,4.039,40.236,7.946,60.575,11.964
			C440.535,460.582,441.711,452.735,442.897,444.827z M459.672,614.789c-20.149,2.992-39.781,5.908-59.915,8.898
			c1.155,8.352,2.238,16.182,3.407,24.629c20.325-3.023,40.093-5.963,60.265-8.963C462.142,630.939,460.969,623.266,459.672,614.789
			z M511.471,412.34c-11.237,15.649-25.544,26.313-43.56,32.198c3.521,8.067,6.724,15.407,9.932,22.758
			c21.938-7.471,38.957-20.357,52.385-38.576C524.117,423.383,518.134,418.159,511.471,412.34z M552.625,604
			c-21.017,1.896-41.117,3.709-61.567,5.553c1.196,9.09,2.244,17.047,3.248,24.67c20.219-1.828,39.691-3.588,59.428-5.371
			C553.376,620.848,553.031,613.104,552.625,604z M666.111,830.014c8.273-0.414,16.168-0.811,24.842-1.246
			c-1.268-20.484-2.502-40.465-3.777-61.086c-8.865,0.85-16.848,1.615-24.807,2.379C663.629,790.242,664.848,809.76,666.111,830.014
			z M618.686,239.422c17.469-9.121,34.326-17.924,51.604-26.944c-2.666-6.726-5.619-14.176-8.588-21.668
			c-20.463,6.913-38.721,16.51-55.906,29.21C610.37,226.905,614.831,233.62,618.686,239.422z M369.34,627.885
			c-20.176,0-39.588,0-59.606,0c0,8.605,0,16.637,0,24.535c20.342,0,40.562,0,61.172,0
			C370.334,643.459,369.83,635.545,369.34,627.885z M589.314,607.732c-3.025,7.66-5.972,15.121-9.13,23.117
			c15.779,4.121,27.648,13.232,38.152,24.453c2.33,2.49,10.072,3.211,12.508,0.928c3.967-3.717,7.518-7.875,11.344-11.955
			C627.736,628.145,611.79,613.844,589.314,607.732z M933.059,317.964c9.844,8.993,19.975,18.251,30.432,27.805
			c4.66-4.432,10.496-9.981,16.836-16.012c-10.574-9.891-20.713-19.372-30.574-28.594
			C944.998,305.949,939.416,311.566,933.059,317.964z M657.727,740.682c8.061-2.031,15.74-3.967,24.037-6.059
			c-3.039-10.828-5.904-21.189-8.92-31.508c-0.254-0.865-1.512-2.029-2.322-2.045c-8.043-0.154-16.092-0.094-24.23-0.094
			C650.199,714.545,653.904,727.408,657.727,740.682z M554.575,362.028c-8.353,0-15.99-0.058-23.624,0.078
			c-0.873,0.016-2.289,0.953-2.503,1.726c-2.245,8.111-4.296,16.275-6.494,24.786c8.129,2.235,15.864,4.361,23.979,6.592
			C548.866,383.946,551.652,373.25,554.575,362.028z"/>
		<path fill-rule="evenodd" clip-rule="evenodd" d="M721.188,940.004c-13.182-5.436-26.332-10.959-39.596-16.188
			c-1.434-0.566-3.793,0.111-5.285,0.973c-11.168,6.455-23.025,11.078-35.59,13.918c-0.934,0.211-1.926,0.172-4.27,0.357
			c10.33-31.805,27.754-58.957,45.264-87.299c15.893,29.016,31.68,56.996,40.477,88.238
			C721.854,940.004,721.52,940.004,721.188,940.004z"/>
		<path fill-rule="evenodd" clip-rule="evenodd" d="M728.188,183.004c10.148,1.398,20.297,2.797,31.273,4.309
			c-1.211,8.194-2.381,16.119-3.482,23.575c-19.508-1.267-38.736-2.515-58.986-3.83c0-6.827-0.066-14.261,0.096-21.691
			c0.018-0.803,1.367-1.576,2.1-2.363C708.854,183.004,718.52,183.004,728.188,183.004z"/>
		<path fill-rule="evenodd" clip-rule="evenodd" d="M202.187,524.004c0.506-4.213,1.012-8.426,1.589-13.237
			c7.958,0.438,15.849,0.874,24.43,1.347c0,19.346,0,38.485,0,58.406c-6.902,0.844-14.698,1.797-23.056,2.819
			c-1.031-7.072-1.997-13.704-2.963-20.335C202.187,543.337,202.187,533.671,202.187,524.004z"/>
		<path fill-rule="evenodd" clip-rule="evenodd" d="M1028.855,353.22c11.129-4.007,21.791-8.134,32.652-11.648
			c6.439-2.084,13.121-3.729,19.822-4.619c7.797-1.036,13.613,4.191,15.703,12.908c1.779,7.414-0.486,12.166-8.406,15.168
			c-14.746,5.588-29.676,10.687-44.521,16.015c-1.555,0.559-3.049,1.284-4.955,2.097c2.168,11.459,4.344,22.845,6.467,34.239
			c1.189,6.373,2.342,12.754,3.4,19.149c0.297,1.794,0.312,3.656,0.27,5.482c-0.186,7.886-4.137,13.706-10.055,14.929
			c-7.338,1.518-15.4-1.975-18.102-9.201c-3.535-9.457-6.213-19.262-8.793-29.039c-2.154-8.174-3.639-16.523-5.568-25.479
			c-2.818,0.787-5.443,1.501-8.057,2.254c-19.619,5.648-39.199,11.441-58.875,16.89c-7.535,2.087-11.992-0.943-15.055-9.178
			c-2.299-6.188-0.594-11.149,6.432-14.021c17.213-7.035,34.678-13.46,52.057-20.089c5.564-2.122,11.182-4.111,17.062-6.267
			c-2.197-11.52-4.35-22.741-6.475-33.969c-0.836-4.41-1.67-8.821-2.398-13.249c-0.977-5.951,1.777-11.929,6.355-14.03
			c4.74-2.177,11.771-0.571,15.201,4.315c2.328,3.317,3.93,7.305,5.15,11.213C1021.875,328.938,1025.238,340.892,1028.855,353.22z"
			/>
		<path fill-rule="evenodd" clip-rule="evenodd" d="M863,259.907c4.633-6.522,9.305-13.099,14.422-20.306
			c16.467,12.583,32.533,24.86,48.977,37.424c-5.531,6.739-10.635,12.956-15.811,19.261
			C894.648,284.101,878.998,272.137,863,259.907z"/>
		<path fill-rule="evenodd" clip-rule="evenodd" d="M252.651,424.779c4.511,6.555,9.009,13.091,14.054,20.421
			c-16.988,8.421-27.245,22.505-33.427,40.518c-7.948-3.653-15.23-7-22.601-10.388C218.575,453.25,231.407,435.799,252.651,424.779z
			"/>
		<path fill-rule="evenodd" clip-rule="evenodd" d="M568.853,308.07c-7.29-3.404-14.461-6.753-21.558-10.067
			c2.764-12.091,20.603-41.794,32.44-54.052c6.341,4.885,12.721,9.8,19.085,14.703c-5.677,8.124-11.494,15.621-16.385,23.682
			C577.54,290.405,573.568,299.037,568.853,308.07z"/>
		<path fill-rule="evenodd" clip-rule="evenodd" d="M219.981,609.5c6.057-5.562,11.903-10.932,18.257-16.766
			c11.352,15.268,26.413,24.881,44.812,30.602c-3.272,7.986-6.31,15.398-9.419,22.986C251.942,639.363,233.88,627.969,219.981,609.5
			z"/>
		<path fill-rule="evenodd" clip-rule="evenodd" d="M290.125,440.7c0.447-7.431,0.921-15.324,1.423-23.666
			c20.986,0.353,41.179,3.685,61.766,8.304c-1.574,7.939-3.105,15.657-4.654,23.467C329.234,446.115,310.11,443.466,290.125,440.7z"
			/>
		<path fill-rule="evenodd" clip-rule="evenodd" d="M849.309,221.88c-4.266,8.117-7.949,15.13-11.588,22.055
			c-18.016-8.261-35.74-16.388-53.994-24.758c2.789-7.109,5.717-14.576,9.09-23.182C811.678,204.638,830.133,213.094,849.309,221.88
			z"/>
		<path fill-rule="evenodd" clip-rule="evenodd" d="M442.897,444.827c-1.186,7.908-2.362,15.755-3.693,24.634
			c-20.339-4.018-40.124-7.925-60.575-11.964c2.05-8.764,3.88-16.587,5.666-24.223C404.028,437.164,423.225,440.949,442.897,444.827
			z"/>
		<path fill-rule="evenodd" clip-rule="evenodd" d="M459.672,614.789c1.297,8.477,2.47,16.15,3.757,24.564
			c-20.172,3-39.939,5.939-60.265,8.963c-1.169-8.447-2.252-16.277-3.407-24.629C419.891,620.697,439.523,617.781,459.672,614.789z"
			/>
		<path fill-rule="evenodd" clip-rule="evenodd" d="M511.471,412.34c6.663,5.818,12.646,11.043,18.757,16.38
			c-13.428,18.219-30.447,31.105-52.385,38.576c-3.208-7.351-6.411-14.69-9.932-22.758
			C485.927,438.654,500.234,427.99,511.471,412.34z"/>
		<path fill-rule="evenodd" clip-rule="evenodd" d="M552.625,604c0.406,9.104,0.752,16.848,1.108,24.852
			c-19.736,1.783-39.209,3.543-59.428,5.371c-1.004-7.623-2.052-15.58-3.248-24.67C511.507,607.709,531.608,605.896,552.625,604z"/>
		<path fill-rule="evenodd" clip-rule="evenodd" d="M666.111,830.014c-1.264-20.254-2.482-39.771-3.742-59.953
			c7.959-0.764,15.941-1.529,24.807-2.379c1.275,20.621,2.51,40.602,3.777,61.086C682.279,829.203,674.385,829.6,666.111,830.014z"
			/>
		<path fill-rule="evenodd" clip-rule="evenodd" d="M618.686,239.422c-3.855-5.802-8.316-12.518-12.89-19.402
			c17.185-12.7,35.443-22.297,55.906-29.21c2.969,7.492,5.922,14.942,8.588,21.668C653.012,221.499,636.154,230.301,618.686,239.422
			z"/>
		<path fill-rule="evenodd" clip-rule="evenodd" d="M369.34,627.885c0.489,7.66,0.994,15.574,1.565,24.535
			c-20.61,0-40.83,0-61.172,0c0-7.898,0-15.93,0-24.535C329.752,627.885,349.165,627.885,369.34,627.885z"/>
		<path fill-rule="evenodd" clip-rule="evenodd" d="M589.314,607.732c22.476,6.111,38.422,20.412,52.874,36.543
			c-3.826,4.08-7.377,8.238-11.344,11.955c-2.436,2.283-10.178,1.562-12.508-0.928c-10.503-11.221-22.373-20.332-38.152-24.453
			C583.342,622.854,586.289,615.393,589.314,607.732z"/>
		<path fill-rule="evenodd" clip-rule="evenodd" d="M933.059,317.964c6.357-6.398,11.939-12.016,16.693-16.801
			c9.861,9.222,20,18.703,30.574,28.594c-6.34,6.03-12.176,11.58-16.836,16.012C953.033,336.215,942.902,326.958,933.059,317.964z"
			/>
		<path fill-rule="evenodd" clip-rule="evenodd" d="M657.727,740.682c-3.822-13.273-7.527-26.137-11.436-39.705
			c8.139,0,16.188-0.061,24.23,0.094c0.811,0.016,2.068,1.18,2.322,2.045c3.016,10.318,5.881,20.68,8.92,31.508
			C673.467,736.715,665.787,738.65,657.727,740.682z"/>
		<path fill-rule="evenodd" clip-rule="evenodd" d="M554.575,362.028c-2.923,11.223-5.709,21.918-8.643,33.182
			c-8.114-2.23-15.85-4.356-23.979-6.592c2.198-8.511,4.249-16.675,6.494-24.786c0.214-0.772,1.63-1.71,2.503-1.726
			C538.584,361.97,546.222,362.028,554.575,362.028z"/>
	</g>
</g>
</svg>
