<?xml version="1.0" encoding="utf-8"?>
<!-- Generator: Adobe Illustrator 16.0.4, SVG Export Plug-In . SVG Version: 6.00 Build 0)  -->
<!DOCTYPE svg PUBLIC "-//W3C//DTD SVG 1.1//EN" "http://www.w3.org/Graphics/SVG/1.1/DTD/svg11.dtd">
<svg version="1.1" id="Layer_1" xmlns="http://www.w3.org/2000/svg" xmlns:xlink="http://www.w3.org/1999/xlink" x="0px" y="0px"
	 width="1188px" height="1008px" viewBox="0 0 1188 1008" enable-background="new 0 0 1188 1008" xml:space="preserve">
<g id="nEb7lJ_1_">
	<g>
		<path fill-rule="evenodd" clip-rule="evenodd" d="M145,937c-1.387-0.357-2.769-1.003-4.162-1.029
			c-20.295-0.379-40.591-0.852-60.888-0.862c-4.961-0.003-6.065-1.583-6.058-6.257c0.124-77.473,0.282-154.946-0.164-232.417
			c-0.059-10.184,1.862-16.634,11.008-22.786c12.181-8.193,22.245-19.487,33.493-29.13c15.887-13.618,31.869-27.136,48.097-40.345
			c19.569-15.929,39.511-31.4,59.154-47.24c14.077-11.353,27.902-23.017,41.905-34.463c2.936-2.4,5.882-5.295,9.326-6.408
			c2.834-0.917,7.31-0.684,9.506,1.029c9.683,7.552,18.881,15.736,28.101,23.867c5.966,5.261,11.666,10.823,17.894,16.632
			c6.528-5.677,12.997-11.334,19.501-16.95c20.758-17.922,41.514-35.846,62.299-53.735c12.841-11.051,25.717-22.062,38.609-33.052
			c14.163-12.073,28.326-24.147,42.559-36.14c15.617-13.16,31.317-26.222,46.973-39.337c18.075-15.143,36.204-30.221,54.165-45.497
			c4.754-4.044,10.134-7.343,11.042-14.979c0.706-5.937,9.867-7.746,15.291-3.409c8.947,7.155,17.699,14.563,26.373,22.051
			c17.874,15.429,35.859,30.739,53.398,46.542c20.518,18.486,40.629,37.422,60.874,56.21c7.684,7.13,15.247,14.39,23.144,21.853
			c9.263-8.265,18.205-16.392,27.31-24.333c11.492-10.024,23.116-19.897,34.685-29.834c12.064-10.363,24.136-20.72,36.196-31.089
			c14.076-12.102,28.192-24.158,42.196-36.343c7.261-6.317,14.287-12.903,21.472-19.309c14.604-13.021,29.257-25.988,43.863-39.006
			c10.044-8.952,19.87-18.156,30.11-26.876c11.694-9.958,23.738-19.505,35.637-29.223c0.759-0.62,2.039-1.029,2.279-1.789
			c1.694-5.345,6.28-6.778,10.812-8.345c0.333,0,0.667,0,1,0c8.309,2.161,12.916,7.331,12.976,16.108
			c0.302,44.036,0.768,88.072,0.835,132.109c0.15,99.067,0.121,198.136,0.125,297.203c0.003,62.435-0.065,124.87-0.105,187.305
			c-0.016,24.716-0.014,49.432-0.073,74.146c-0.022,9.229-4.964,14.034-14.252,14.044c-22.824,0.023-45.648,0.053-68.473,0.057
			c-121.601,0.022-243.201,0.032-364.801,0.096c-2.411,0.001-4.821,0.608-7.231,0.933c-43.667,0-87.333,0-131,0
			c-1.082-0.232-2.162-0.66-3.245-0.669c-15.87-0.134-31.74-0.305-47.609-0.255c-5.716,0.019-11.431,0.6-17.146,0.924
			c-41.333,0-82.667,0-124,0c-0.935-0.187-1.869-0.53-2.805-0.536c-33.17-0.183-66.34-0.375-99.509-0.44
			c-4.562-0.009-9.124,0.635-13.687,0.977C176.333,937,160.667,937,145,937z M1060.376,912.27c0-126.935,0-252.855,0-380.013
			c-11.325,9.855-21.573,18.963-32.029,27.826c-14.356,12.169-28.731,24.324-43.353,36.173
			c-17.289,14.012-34.727,27.846-52.322,41.469c-18.878,14.615-37.897,29.052-57.069,43.278
			c-21.048,15.618-42.277,30.994-63.565,46.285c-5.713,4.104-11.708,7.944-17.982,11.093c-4.383,2.2-8.174-0.639-9.113-5.302
			c-0.348-1.729-1.386-3.505-2.58-4.837c-2.326-2.598-4.942-4.943-7.511-7.314c-18.82-17.368-37.602-34.779-56.51-52.051
			c-14.982-13.687-30.087-27.24-45.211-40.771c-15.721-14.065-31.622-27.93-47.261-42.084c-8.122-7.351-15.848-15.14-23.932-22.902
			c-8.228,6.506-16.376,12.744-24.299,19.256c-16.53,13.587-33.075,27.16-49.362,41.034c-16.696,14.222-32.859,29.074-49.675,43.15
			c-25.701,21.514-51.593,42.808-77.724,63.797c-21.063,16.92-42.552,33.314-63.991,49.761c-2.619,2.009-4.043,3.691-3.893,7.215
			c0.336,7.841-6.185,11.978-13.45,8.707c-2.378-1.07-4.706-2.545-6.618-4.311c-17.355-16.022-34.939-31.816-51.823-48.325
			c-24.217-23.68-49.625-46.202-71.965-72.906c-1.2,1.448-2.25,2.964-3.541,4.235c-15.285,15.048-30.483,30.188-45.962,45.033
			c-9.836,9.435-20.141,18.38-30.172,27.612c-10.489,9.653-10.354,9.689-10.31,21.184c0.167,44.42,0.263,88.839,0.383,133.259
			c0.01,3.61,0.001,7.221,0.001,10.449C420.285,912.27,740.316,912.27,1060.376,912.27z M799.356,715.652
			c3.083-2.543,5.851-4.895,8.689-7.157c18.58-14.813,37.081-29.729,55.792-44.376c21.312-16.683,42.936-32.97,64.199-49.713
			c14.944-11.767,29.559-23.954,44.237-36.054c13.783-11.36,27.531-22.768,41.161-34.313c12.018-10.181,23.926-20.494,35.733-30.918
			c6.016-5.311,11.884-9.947,11.588-20.025c-0.812-27.622-0.146-55.288-0.074-82.937c0.115-44.549,0.228-89.098,0.333-133.646
			c0.021-8.609,0.003-17.218,0.003-26.392c-1.383,0.646-2.381,0.872-3.058,1.464c-13.86,12.123-27.764,24.197-41.489,36.47
			c-12.016,10.743-23.679,21.882-35.758,32.551c-17.267,15.252-34.746,30.265-52.181,45.326
			c-14.43,12.464-28.889,24.896-43.405,37.258c-17.024,14.498-34.026,29.026-51.224,43.317
			c-17.166,14.266-32.871,30.863-56.55,36.233c-50.664-48.896-102.919-96.817-157.866-142.312
			c-14.123,12.128-27.601,23.943-41.34,35.444c-22.535,18.864-45.282,37.474-67.863,56.282
			c-30.116,25.086-60.161,50.257-90.234,75.394c-24.827,20.753-49.664,41.495-74.438,62.312c-1.16,0.975-2.174,2.52-2.539,3.979
			c-2.499,10.003-13.276,13.821-20.772,6.749c-8.463-7.983-16.35-16.585-24.364-25.034c-5.308-5.596-10.397-11.396-15.421-16.924
			c-7.94,6.34-15.686,12.592-23.503,18.75c-21.246,16.734-42.636,33.288-63.76,50.175c-30.868,24.676-61.585,49.541-92.237,74.485
			c-1.741,1.416-3.205,4.249-3.27,6.467c-0.347,11.821-0.222,23.657-0.211,35.487c0,1.027,0.356,2.054,0.544,3.063
			c0.753-0.105,1.178-0.033,1.389-0.213c20.595-17.533,41.177-35.083,61.752-52.64c7.572-6.461,15.021-13.072,22.732-19.36
			c4.529-3.693,8.545-2.587,11.376,2.431c0.96,1.701,2.001,3.502,3.438,4.766c11.471,10.092,23.215,19.879,34.549,30.12
			c18.008,16.271,35.726,32.864,53.642,49.238c10.433,9.536,21.013,18.91,31.661,28.479c0.616-0.327,1.432-0.594,2.037-1.107
			c11.9-10.086,23.801-20.172,35.652-30.314c17.418-14.905,34.768-29.891,52.203-44.774c18.818-16.064,37.746-32,56.547-48.085
			c19.435-16.627,38.62-33.548,58.197-50.004c19.675-16.54,39.614-32.769,59.624-48.903c5.238-4.224,10.754-8.598,16.878-11.106
			c7.901-3.238,16.146,3.3,14.308,10.744c-1.017,4.114,0.595,6.117,3.21,8.272c1.666,1.374,3.36,2.719,4.971,4.157
			c16.61,14.846,33.092,29.838,49.839,44.528c16.589,14.552,33.693,28.523,50.112,43.261c20.421,18.328,40.363,37.189,60.529,55.803
			C789.583,706.832,794.507,711.245,799.356,715.652z"/>
	</g>
</g>
<g id="zGXQHZ_1_">
	<g>
		<path fill-rule="evenodd" clip-rule="evenodd" d="M1069,304c-6.292-1.012-12.735-1.468-18.851-3.131
			c-28.527-7.755-49.209-24.275-56.532-53.989c-4.813-19.529,0.577-37.552,11.292-54.08c3.471-5.354,7.604-10.28,11.505-15.497
			c-9.271-11.112-18.389-21.801-27.231-32.712c-7.162-8.837-13.912-18.006-21.053-26.861c-1.118-1.386-3.325-2.631-5.058-2.672
			c-21.086-0.497-42.185-0.555-63.262-1.263c-3.771-0.127-8.294-1.789-11.01-4.312c-5.154-4.791-2.117-12.956,4.887-14.37
			c3.221-0.65,6.551-1.015,9.836-1.05c20.294-0.219,40.594-0.123,60.883-0.545c6.494-0.135,11.165,1.788,15.409,6.845
			c14.168,16.881,28.71,33.448,43.169,50.082c3.465,3.986,7.166,7.767,10.407,11.264c31.163-13.039,60.406-10.783,86.964,9.79
			c14.75,11.426,23.811,27.09,26.71,45.89c0.088,0.571,0.613,1.075,0.935,1.611c0,6.333,0,12.667,0,19
			c-0.326,0.503-0.847,0.97-0.95,1.516c-5.491,28.894-21.767,48.969-49.304,59.408c-6.606,2.506-13.814,3.427-20.746,5.076
			C1074.333,304,1071.667,304,1069,304z M1073.863,173.981c-12.957-0.656-24.767,3.2-35.56,10.676
			c-15.456,10.706-24.305,25.511-26.183,44.016c-1.781,17.544,4.867,31.83,18.78,42.901c14.438,11.488,31.147,15.679,48.766,13.068
			c31.317-4.64,51.802-37.47,46.514-65.512C1121.947,196.675,1101.178,172.357,1073.863,173.981z"/>
		<path fill-rule="evenodd" clip-rule="evenodd" d="M852,88c1.974,0.732,4.049,1.269,5.899,2.236
			c4.094,2.14,6.933,5.451,6.555,10.263c-0.397,5.057-3.954,7.994-8.517,9.263c-3.139,0.873-6.537,1.145-9.816,1.124
			c-37.668-0.239-75.334-0.622-113.002-0.872c-6.925-0.046-12.053-2.699-15.119-9.014c0-1,0-2,0-3
			c1.828-5.906,6.137-8.599,12.019-8.939c3.782-0.219,7.593,0.08,11.382-0.071c5.87-0.233,11.733-0.651,17.6-0.99
			C790,88,821,88,852,88z"/>
		<path fill-rule="evenodd" clip-rule="evenodd" d="M718,171c2.537-6.342,6.079-8.914,12.66-8.972
			c39.026-0.345,78.053-0.709,117.081-0.898c3.203-0.015,6.562,0.828,9.586,1.969c4.559,1.719,7.43,5.33,7.128,10.32
			c-0.305,5.045-3.869,8.016-8.445,9.324c-2.978,0.851-6.206,1.166-9.318,1.146c-38.021-0.241-76.041-0.608-114.062-0.89
			c-6.763-0.05-11.654-2.909-14.63-8.999C718,173,718,172,718,171z"/>
		<path fill-rule="evenodd" clip-rule="evenodd" d="M792.873,125.021c19.996-0.002,39.993-0.033,59.99,0.014
			c7.677,0.018,13.169,6.103,12.053,13.157c-0.821,5.185-6.382,8.762-13.933,8.776c-20.662,0.038-41.323,0.029-61.985,0.005
			c-16.826-0.019-33.653-0.035-50.479-0.174c-3.47-0.028-6.985-0.33-10.392-0.975c-5.549-1.052-9.668-6.49-9.047-11.426
			c0.684-5.434,5.826-9.328,12.802-9.352C752.212,124.978,772.542,125.022,792.873,125.021z"/>
	</g>
</g>
</svg>
