<?xml version="1.0" encoding="utf-8"?>
<!-- Generator: Adobe Illustrator 16.0.4, SVG Export Plug-In . SVG Version: 6.00 Build 0)  -->
<!DOCTYPE svg PUBLIC "-//W3C//DTD SVG 1.1//EN" "http://www.w3.org/Graphics/SVG/1.1/DTD/svg11.dtd">
<svg version="1.1" id="Layer_1" xmlns="http://www.w3.org/2000/svg" xmlns:xlink="http://www.w3.org/1999/xlink" x="0px" y="0px"
	 width="978px" height="904px" viewBox="0 0 978 904" enable-background="new 0 0 978 904" xml:space="preserve">
<g id="SabnQa_1_">
	<g>
		<path d="M941.8,34.743c3,4.125,2.2,9.382,2.2,16.507s0,168.417,0,255.75c-0.344,1.403-0.959,2.801-0.99,4.212
			c-0.397,17.613-0.726,35.229-1.04,52.844c-0.352,19.617-0.782,39.234-0.981,58.854c-0.41,40.449-0.768,80.898-0.996,121.349
			c-0.147,26.156-0.025,52.314-0.028,78.472c-0.002,10.474-6.377,17.178-16.804,17.203c-41.977,0.105-83.954,0.031-125.932,0.146
			c-38.29,0.106-76.579,0.475-114.869,0.524c-18.641,0.025-37.282-0.469-55.925-0.619c-12.917-0.104-25.835-0.02-40.161-0.02
			c4.097,6.463,7.406,11.137,10.156,16.12c9.379,16.995,18.576,34.09,27.814,51.162c15.604,28.834,31.129,57.711,46.829,86.492
			c2.708,4.965,4.511,10.576,9.763,13.988c1.364,0.886,1.898,3.704,2.053,5.693c1.109,14.327,1.854,28.684,3.058,43.002
			c0.821,9.773-3.116,16.96-12.963,16.897c-12.281-0.079-24.565,0.596-36.85,0.611c-59.304,0.075-118.607,0.021-177.911,0.083
			c-3.074,0.003-6.148,0.643-9.223,0.985c-9,0-18,0-27,0c-1.37-0.337-2.737-0.952-4.109-0.964
			c-8.955-0.079-17.91-0.058-26.865,0.026c-1.011,0.009-2.017,0.61-3.025,0.938c-5,0-10,0-15,0
			c-1.521-0.322-3.042-0.921-4.564-0.927c-20.992-0.084-41.985-0.032-62.978-0.155c-4.129-0.023-8.306-0.351-12.365-1.073
			c-3.778-0.673-7.098-2.716-7.274-7.039c-0.505-12.357-0.783-24.726-1.024-37.092c-0.089-4.573-0.75-7.059-0.46-13.047
			c0.159-3.299,0.833-10.833,3.402-15.218c1.648-2.622,8.042-16.472,9.955-20.099c24.145-45.794,43.368-82.113,67.592-127.865
			c1.8-3.397,3.872-6.651,6.139-10.521c-1.951,0-2.945,0.005-3.939,0c-61.288-0.333-122.576-0.675-183.864-0.997
			c-49.251-0.26-98.503-0.502-147.754-0.735c-5.461-0.025-9.31-3.573-9.847-9.059c-0.17-1.741-0.668-3.45-1.016-5.174
			c0-192.667,0-385.333,0-578c2.654-6.791,6.648-12.182,14.57-12.891c5.956-0.533,11.943-0.949,17.918-0.986
			c50.638-0.31,101.275-0.541,151.914-0.752c33.578-0.14,67.157-0.142,100.735-0.326c48.796-0.267,97.592-0.638,146.388-0.971
			c41.467-0.283,82.935-0.685,124.402-0.81c16.795-0.05,33.593,0.761,50.387,0.708c23.799-0.076,47.596-0.784,71.395-0.866
			c32.033-0.109,64.069,0.054,96.104,0.229c21.461,0.118,42.92,0.533,64.38,0.677c17.162,0.115,34.325-0.114,51.485-0.114
			C930.875,31.898,938.8,30.618,941.8,34.743z M920.035,621.405c0-1.622,0.018-3.245-0.002-4.868
			c-0.28-23.281-0.535-46.563-0.854-69.845c-0.688-50.271-1.424-100.543-2.11-150.815c-0.357-26.126-0.882-52.253-0.931-78.381
			c-0.143-76.488-0.084-152.977-0.103-229.465c-0.003-10.264-0.001-20.528-0.001-31.07c-15.118,0-29.584,0.029-44.05-0.005
			c-137.127-0.324-274.255-0.604-411.382-1.015c-62.297-0.187-124.593-0.771-186.89-0.94c-63.161-0.172-126.322-0.049-189.484-0.086
			c-3.318-0.002-6.636-0.396-9.955-0.417c-9.269-0.061-18.539-0.021-27.812-0.021c0,188.426,0,376.871,0,565.18
			C337.34,620.238,628.25,620.821,920.035,621.405z M659.252,803.899c-1.012-2.228-1.705-4.019-2.607-5.697
			c-15.172-28.245-30.409-56.455-45.551-84.716c-12.259-22.883-24.494-45.779-36.499-68.795c-1.458-2.795-2.784-3.845-5.899-3.794
			c-25.134,0.411-50.271,0.782-75.407,0.908c-34.312,0.172-68.627,0.081-102.939,0.262c-1.742,0.01-4.332,1.04-5.086,2.396
			c-10.562,19.012-20.973,38.11-31.224,57.292c-16.141,30.204-32.137,60.486-48.187,90.739c-1.961,3.697-3.876,7.419-5.956,11.404
			C419.926,803.899,539.295,803.899,659.252,803.899z M301.506,857.424c122.445,0,244.805,0,367.529,0
			c0-10.429-0.293-20.853,0.123-31.249c0.209-5.232-1.563-6.396-6.518-6.314c-31.804,0.519-63.613,1.031-95.419,0.981
			c-62.472-0.097-124.942-0.599-187.414-0.86c-24.999-0.104-49.998-0.017-74.998-0.017c-1.796,0-3.592,0-5.517,0
			C300.03,832.435,300.738,844.434,301.506,857.424z"/>
		<path fill-rule="evenodd" clip-rule="evenodd" d="M886.704,157.158c0,23.528,0.027,47.058-0.007,70.586
			c-0.046,30.96-0.1,61.92-0.226,92.88c-0.112,27.574-0.413,55.147-0.476,82.722c-0.087,38.2-0.029,76.4-0.031,114.6
			c-0.001,19.188,0.239,38.381-0.107,57.562c-0.145,7.998-2.621,11.626-12.249,11.592c-27.914-0.102-55.831,0.629-83.746,0.642
			c-26.46,0.012-52.92-0.644-79.38-0.695c-37.707-0.073-75.414,0.202-113.121,0.207c-35.479,0.004-70.957-0.273-106.435-0.19
			c-22.106,0.052-44.211,0.713-66.316,0.801c-47.654,0.191-95.309,0.119-142.962,0.285c-57.938,0.201-115.875,0.594-173.812,0.712
			c-4.679,0.009-9.554-0.891-13.988-2.396c-4.749-1.614-6.981-5.521-6.867-10.898c0.745-34.912,1.67-69.824,1.888-104.741
			c0.274-43.976-0.022-87.955-0.164-131.933c-0.146-45.24-0.483-90.479-0.577-135.72c-0.058-27.6,0.158-55.201,0.322-82.801
			c0.029-4.978-0.138-10.062,0.824-14.89c0.566-2.844,2.638-6.521,5.018-7.557c2.438-1.061,6.087,0.596,9.189,1.157
			c1.738,0.314,3.459,1.231,5.159,1.163c5.631-0.228,11.25-1.149,16.874-1.153c98.148-0.078,196.298-0.058,294.447-0.061
			c27.296,0,54.593,0.093,81.889-0.029c32.076-0.143,64.15-0.607,96.226-0.693c65.621-0.174,131.243-0.218,196.865-0.254
			c27.151-0.015,54.303,0.118,81.453,0.209c6.054,0.021,9.539,3.439,9.555,9.452c0.043,16.481,0.015,32.962,0.015,49.443
			C886.211,157.158,886.457,157.158,886.704,157.158z M107.767,192.578c0,126.718,0,252.413,0,378.605
			c254.208,0.686,507.577,1.368,760.922,2.052c0-127.586,0-254.297,0-380.657C614.761,192.578,361.22,192.578,107.767,192.578z
			 M868.84,115.131c-254.127-0.886-507.809,1.14-761.568-1.476c0,21.633,0,43.366,0,65.246
			c253.983,0.68,507.659,1.357,761.568,2.037C868.84,158.867,868.84,137.267,868.84,115.131z"/>
		<path fill-rule="evenodd" clip-rule="evenodd" d="M660.964,264.609c0,5.996,0.021,11.993-0.006,17.99
			c-0.025,5.74-2.957,8.374-8.603,8.424c-28.604,0.255-57.209,0.568-85.812,0.979c-10.636,0.153-21.265,0.855-31.899,0.925
			c-62.6,0.408-125.201,0.704-187.802,1.035c-1.499,0.008-3.047,0.229-4.489-0.063c-8.336-1.688-13.056-1.018-12.39-13.085
			c0.66-11.953,0.159-23.99,1.237-35.895c1.078-11.909,4.736-13.999,17.421-14.765c13.436-0.811,26.922-1.059,40.387-1.074
			c80.62-0.092,161.239-0.023,241.858-0.088c6.289-0.006,12.574-0.784,18.866-0.902c7.315-0.138,9.757,2.238,10.211,9.625
			c0.551,8.953,0.963,17.914,1.435,26.872C661.241,264.595,661.103,264.603,660.964,264.609z M345.644,280.762
			c1.661,0.149,2.31,0.263,2.958,0.258c45.802-0.302,91.604-0.471,137.404-0.964c42.445-0.457,84.888-1.292,127.332-1.891
			c10.433-0.147,20.868-0.022,31.784-0.022c0-12.398,0-24.105,0-34.859c-99.933,0-199.935,0-299.479,0
			C345.644,256.54,345.644,268.467,345.644,280.762z"/>
		<path fill-rule="evenodd" clip-rule="evenodd" d="M377.516,409.443c26.258,0,52.517-0.068,78.774,0.015
			c45.919,0.146,91.838,0.313,137.756,0.618c17.784,0.118,35.565,0.637,53.348,0.957c1.322,0.023,2.804,0.285,3.943-0.196
			c4.914-2.077,5.979,1.791,7.503,4.755c0.576,1.121,0.684,2.568,0.714,3.874c0.356,15.437,1.036,30.88,0.793,46.309
			c-0.101,6.376-3.707,7.743-9.905,6.378c-3.408-0.751-7.119-0.251-10.688-0.139c-8.464,0.267-16.922,0.741-25.387,0.946
			c-16.8,0.408-33.604,0.668-50.404,1.033c-13.629,0.296-27.254,0.787-40.885,0.962c-31.947,0.412-63.899,1.057-95.846,0.905
			c-29.079-0.138-58.153-1.179-87.229-1.872c-7.115-0.17-10.18-5.801-6.729-11.867c0.671-1.181,0.707-2.829,0.714-4.263
			c0.06-11.826,0.081-23.652,0-35.478c-0.01-1.355-0.475-2.852-1.16-4.033c-2.16-3.726-1.416-6.615,2.512-8.115
			c1.672-0.639,3.516-1.145,5.285-1.158c12.295-0.099,24.592-0.053,36.889-0.053C377.514,409.162,377.515,409.303,377.516,409.443z
			 M646.792,425.39c-100.775-1.157-201.155-2.31-300.807-3.453c0,13.105,0,25.499,0,37.455c24.688,0.895,48.591,2.325,72.502,2.489
			c32.456,0.222,64.918-0.56,97.378-0.844c14.991-0.132,29.987,0.095,44.974-0.208c14.454-0.291,28.895-1.185,43.348-1.575
			c14.13-0.382,28.267-0.463,42.605-0.68C646.792,446.91,646.792,436.306,646.792,425.39z"/>
		<path fill-rule="evenodd" clip-rule="evenodd" d="M381.012,323.04c42.949,0,85.898-0.108,128.847,0.045
			c22.123,0.079,44.245,0.642,66.367,0.952c25.132,0.353,50.263,0.666,75.395,1c5.909,0.078,9.119,2.718,9.229,8.688
			c0.254,13.816,0.235,27.643,0.034,41.461c-0.067,4.596-3.491,6.612-7.684,6.733c-26.077,0.754-52.156,1.77-78.239,1.957
			c-42.287,0.304-84.579,0.139-126.868-0.03c-24.787-0.099-49.574-0.532-74.359-0.931c-8.14-0.131-16.272-0.8-24.409-0.818
			c-1.894-0.004-3.771,1.69-5.69,2.523c-2.422,1.051-5.151,3.231-7.262,2.759c-3.742-0.839-5.582-4.007-5.402-8.354
			c0.573-13.915,0.894-27.842,1.164-41.767c0.033-1.658-0.798-3.347-1.306-4.997c-0.61-1.989-2.436-4.909-1.735-5.739
			c1.701-2.015,4.528-4.23,6.955-4.293c14.98-0.383,29.975-0.192,44.964-0.192C381.011,322.371,381.012,322.705,381.012,323.04z
			 M646.893,337.488c-101.591-0.896-202.569-1.785-303.019-2.67c0,12.592,0,24.436,0,35.53c10.054,0,19.198-0.12,28.338,0.022
			c31.246,0.487,62.49,1.502,93.735,1.516c55.772,0.023,111.545-0.52,167.316-0.89c3.627-0.024,7.282-0.413,10.856-1.027
			c1.045-0.179,2.635-1.707,2.652-2.643C646.967,357.427,646.893,347.522,646.893,337.488z"/>
		<path fill-rule="evenodd" clip-rule="evenodd" d="M214.455,169.83c-6.836-0.717-12.605-2.804-17.314-7.296
			c-6.407-6.111-6.987-15.312-1.663-22.366c6.592-8.734,24.182-11.031,32.827-4.285c10.086,7.869,8.926,23.664-2.459,29.976
			C222.38,167.779,218.27,168.539,214.455,169.83z"/>
		<path fill-rule="evenodd" clip-rule="evenodd" d="M155.267,169.09c-4.905-2.061-10.442-3.274-14.582-6.362
			c-8.017-5.98-8.81-15.563-1.521-23.171c7.149-7.462,20.66-7.881,28.493-1.333c5.858,4.896,7.72,11.571,5.228,18.745
			C170.591,163.573,163.789,167.934,155.267,169.09z"/>
	</g>
</g>
</svg>
