<?xml version="1.0" encoding="utf-8"?>
<!-- Generator: Adobe Illustrator 16.0.4, SVG Export Plug-In . SVG Version: 6.00 Build 0)  -->
<!DOCTYPE svg PUBLIC "-//W3C//DTD SVG 1.1//EN" "http://www.w3.org/Graphics/SVG/1.1/DTD/svg11.dtd">
<svg version="1.1" id="Layer_1" xmlns="http://www.w3.org/2000/svg" xmlns:xlink="http://www.w3.org/1999/xlink" x="0px" y="0px"
	 width="1101.11px" height="1140.114px" viewBox="0 0 1101.11 1140.114" enable-background="new 0 0 1101.11 1140.114"
	 xml:space="preserve">
<g id="X9wiX1_1_">
	<g>
		<path fill-rule="evenodd" clip-rule="evenodd" d="M505.236,1087.237c-9.934-3.467-12.755-13.131-17.805-20.75
			c-4.444-6.703-8.109-13.919-12.398-20.732c-0.854-1.356-2.987-2.715-4.516-2.698c-6.086,0.065-12.172,1.039-18.244,0.931
			c-3.104-0.056-6.896-0.851-9.138-2.765c-7.288-6.223-13.964-12.757-14.102-23.792c-0.143-11.354-1.794-22.688-2.781-34.029
			c-0.63-7.236-1.375-14.466-1.811-21.713c-0.146-2.426,0.748-4.897,0.757-7.35c0.073-20.33-0.28-40.667,0.153-60.988
			c0.391-18.289-0.369-36.471-4.246-54.324c-3.543-16.31-6.541-33.006-12.574-48.44c-8.038-20.564-18.295-40.323-28.478-59.974
			c-14.38-27.752-30.09-54.819-44.235-82.686c-11.229-22.12-19.859-45.443-24.306-69.966c-2.843-15.679-3.324-31.597-1.342-47.533
			c1.566-12.59,2.157-25.323,4.198-37.827c4.021-24.639,10.52-48.694,21.466-71.216c6.453-13.277,13.729-26.228,21.624-38.698
			c3.485-5.505,9.349-9.539,14.277-14.085c4.253-3.923,8.869-7.458,13.051-11.452c20.058-19.151,42.493-35.065,66.475-48.842
			c19.376-11.13,40.703-16.896,62.229-22.048c23.864-5.711,48.207-4.823,72.291-3.649c21.954,1.069,43.16,7.378,63.918,14.947
			c22.876,8.342,42.396,21.995,61.826,36.199c13.858,10.131,25.496,22.874,39.157,32.885c22.736,16.662,31.602,41.475,42.421,65.27
			c9.195,20.225,13.854,41.926,17.747,63.687c1.854,10.359,2.349,20.966,3.341,31.472c0.482,5.111,0.756,10.246,1.015,15.375
			c1.306,25.832-4.401,50.407-13.292,74.434c-10.121,27.355-23.851,52.983-37.622,78.575
			c-11.389,21.165-23.595,41.896-34.715,63.198c-12.04,23.065-20.729,47.432-25.243,73.167c-2.016,11.491-4.42,22.932-5.914,34.49
			c-0.687,5.315,0.734,10.866,0.61,16.297c-0.502,21.929-1.204,43.854-1.902,65.777c-0.164,5.142-0.755,10.272-0.835,15.414
			c-0.031,2.057,0.865,4.113,1.199,6.193c0.31,1.93,1.139,4.151,0.526,5.792c-3.933,10.527-2.184,21.491-1.214,31.942
			c0.562,6.057,0.892,11.401-1.026,17.073c-3.908,11.553-14.206,19.28-26.664,19.358c-5.599,0.034-11.21-0.497-16.799-0.979
			c-3.245-0.279-5.546,0.829-7.839,3.146c-12.298,12.43-22.491,40.913-32.241,40.913
			C576.569,1087.237,540.903,1087.237,505.236,1087.237z M453.429,857.425c72.801,0,145.201,0,217.177,0
			c0.979-5.73,1.649-10.617,2.669-15.43c3.092-14.588,5.286-29.469,9.695-43.655c11.399-36.684,30.88-69.557,50.103-102.525
			c17.012-29.176,33.126-58.846,44.967-90.601c5.75-15.422,9.976-31.325,11.013-47.739c0.699-11.063-0.628-22.242-0.729-33.372
			c-0.182-20.077-4.551-39.467-9.063-58.868c-7.372-31.692-23.818-58.247-46.023-81.498c-12.37-12.953-26.438-23.922-40.872-34.514
			c-13.166-9.662-26.378-19.218-41.429-25.644c-11.578-4.943-23.441-9.291-36.069-11.073c-13.973-1.972-27.851-5.188-41.881-6.05
			c-20.645-1.271-41.104,0.863-61.46,5.503c-17.428,3.973-34.522,8.551-49.841,17.689c-12.525,7.472-24.18,16.408-36.172,24.767
			c-18.17,12.664-34.457,27.414-47.925,45.024c-10.813,14.142-20.587,29.043-26.417,46.032
			c-9.447,27.528-14.524,55.955-15.888,84.991c-1.027,21.884,0.823,43.419,7.745,64.494c12.363,37.646,31.925,71.706,51.237,105.958
			c11.145,19.767,22.075,39.679,32.308,59.928C441.929,791.231,450.078,823.772,453.429,857.425z M679.472,884.123
			c-78.153,12.685-155.872,25.3-233.947,37.972c0,9.377,0,19.12,0,29.188c11.155-1.893,22.114-3.774,33.08-5.608
			c16.829-2.815,33.639-5.753,50.501-8.346c12.828-1.973,25.726-3.486,38.591-5.212c12.05-1.615,24.102-3.222,36.146-4.869
			c9.116-1.246,18.218-2.595,27.337-3.817c8.319-1.116,16.677-1.969,24.975-3.225c7.374-1.116,14.689-2.628,21.873-3.937
			C678.538,904.897,679.014,894.302,679.472,884.123z M448.418,999.286c9.029-1.712,17.683-3.573,26.41-4.964
			c21.868-3.483,43.764-6.792,65.659-10.099c26.629-4.021,53.261-8.027,79.908-11.928c16.905-2.475,33.847-4.706,50.759-7.142
			c2.659-0.383,5.152-1.216,5.112-4.829c-0.093-8.24-0.029-16.483-0.029-24.789c-76.208,11.537-153.603,18.366-230.366,33.244
			C446.728,979.041,447.563,989.053,448.418,999.286z M675.735,982.884c-3.226,0.584-5.293,1.028-7.381,1.326
			c-12.199,1.734-24.395,3.497-36.607,5.13c-12.706,1.698-25.437,3.219-38.146,4.895c-8.623,1.137-17.233,2.372-25.84,3.626
			c-9.729,1.417-19.447,2.917-29.173,4.357c-8.755,1.296-17.521,2.517-26.271,3.849c-11.027,1.679-22.055,3.362-33.06,5.183
			c-9.223,1.525-18.435,3.144-27.59,5.021c-1.162,0.238-2.392,2.171-2.771,3.545c-0.291,1.054,0.358,3.169,1.198,3.584
			c2.564,1.271,5.417,2.715,8.169,2.737c25.144,0.204,50.289,0.236,75.433,0.097c38.091-0.212,76.181-0.634,114.271-0.871
			c4.445-0.027,8.906,0.438,13.338,0.887c4.309,0.437,12.633-5.744,12.905-10.212C674.863,1005.309,675.219,994.563,675.735,982.884
			z M611.225,877.526c-0.013-0.32-0.026-0.642-0.039-0.963c-55.387,0-110.772,0-165.878,0c0,9.356,0,18.336,0,27.447
			C500.81,895.151,556.018,886.338,611.225,877.526z"/>
		<path fill-rule="evenodd" clip-rule="evenodd" d="M1048.236,543.237c-11.211,7.458-23.729,11.577-36.827,13.935
			c-24.584,4.425-49.474,4.888-74.29,3.821c-19.687-0.847-39.506-2.338-58.188-9.74c-5.779-2.29-11.538-4.693-15.321-10.115
			c-4.807-6.887-2.7-15.182,5.37-17.463c7.835-2.215,16.051-4.025,24.142-4.217c24.401-0.58,48.823-0.297,73.236-0.324
			c6.49-0.008,13.022-0.379,19.462,0.214c14.927,1.375,29.864,2.862,44.686,5.061c7.385,1.095,13.705,5.062,17.731,11.829
			C1048.236,538.57,1048.236,540.904,1048.236,543.237z M1017.125,540.665c-20.766-4.653-81.093-9.722-130.114-4.17
			C898.541,544.683,999.224,547.91,1017.125,540.665z"/>
		<path fill-rule="evenodd" clip-rule="evenodd" d="M584.236,37.237c5.296,3.136,6.102,8.642,6.868,13.89
			c2.832,19.367,6.346,38.701,7.796,58.182c1.317,17.679,0.973,35.57,0.026,53.295c-0.58,10.873-3.836,21.585-5.579,32.419
			c-1.311,8.147-7.152,13.538-11.518,19.772c-2.821,4.029-8.061,2.815-10.297-2.069c-5.493-11.998-10.096-24.189-10.354-37.72
			c-0.393-20.592-1.694-41.173-1.766-61.761c-0.055-15.929,0.992-31.874,1.956-47.787c0.335-5.52,1.312-11.167,3.12-16.365
			c0.98-2.822,4.106-5.096,6.66-7.117c2.427-1.919,5.37-3.187,8.086-4.74C580.903,37.237,582.569,37.237,584.236,37.237z
			 M579.016,188.104c0.986-33.949,3.031-67.974-2.479-101.822C575.126,120.252,573.559,154.226,579.016,188.104z"/>
		<path fill-rule="evenodd" clip-rule="evenodd" d="M58.236,507.237c3.884-5.732,10.266-4.851,15.881-5.912
			c1.602-0.303,3.309-0.046,5.124-0.981c-2.9-0.557-5.799-1.113-8.699-1.67c-0.152-0.362-0.305-0.726-0.457-1.088
			c5.298-2.093,10.533-5.774,15.907-5.991c19.217-0.775,38.491-0.734,57.727-0.28c11.03,0.261,22.122,1.337,33.015,3.103
			c10.942,1.773,21.847,4.293,32.431,7.575c6.586,2.042,12.595,5.978,13.09,14.368c0.303,5.125-2.24,8.544-6.703,9.736
			c-7.907,2.113-15.962,4.357-24.066,4.906c-15.069,1.021-30.244,1.58-45.329,1.041c-26.062-0.933-51.988-3.432-76.646-13.002
			c-4.655-1.808-8.754-4.284-11.273-8.805C58.236,509.237,58.236,508.237,58.236,507.237z M199.762,517.13
			c0.03-0.627,0.06-1.254,0.089-1.882c-8.188-1.624-16.325-3.621-24.579-4.786c-12.239-1.729-24.55-2.987-36.854-4.218
			c-9.048-0.905-18.126-1.559-27.204-2.116c-10.159-0.623-20.356-4.489-30.462,1.004c-3.45,1.875-7.635,2.398-11.484,3.539
			c0.022,0.571,0.044,1.142,0.067,1.713C112.29,522.448,155.879,522.563,199.762,517.13z"/>
		<path fill-rule="evenodd" clip-rule="evenodd" d="M815.921,741.101c5.128,1.815,9.455,2.875,13.349,4.806
			c20.424,10.13,39.945,21.734,57.046,36.979c11.764,10.485,23.497,21.022,34.815,31.979c4.7,4.551,8.526,10.089,12.26,15.515
			c1.59,2.311,2.512,5.444,2.713,8.275c0.532,7.506-5.342,12.462-12.477,9.99c-10.793-3.739-21.643-7.638-31.821-12.756
			c-20.594-10.355-39.167-23.734-56.071-39.521c-5.469-5.107-12.398-8.615-18.421-13.172c-7.782-5.888-15.463-11.979-18.499-21.92
			c-1.409-4.61,0.616-9.423,4.752-11.777c1.482-0.845,2.712-2.123,4.139-3.081C810.407,744.602,813.167,742.875,815.921,741.101z
			 M835.729,774.526c4.865,11.464,64.962,56.309,80.101,57.191C900.132,811.556,852.788,780.859,835.729,774.526z"/>
		<path fill-rule="evenodd" clip-rule="evenodd" d="M240.227,271.004c-0.959-2.132-1.496-3.325-2.613-5.808
			c4.785,0.235,9.044-0.454,12.661,0.764c28.265,9.52,51.863,25.34,67.354,51.593c3.976,6.737,6.825,13.828,5.615,21.961
			c-0.851,5.724-4.697,9.249-10.55,9.747c-11.19,0.952-21.02-3.441-30.653-8.052c-24.066-11.518-45.741-26.846-65.932-44.071
			c-8.586-7.324-15.396-16.767-22.759-25.462c-1.726-2.037-2.618-4.879-3.536-7.477c-1.298-3.675-1.167-7.76,2.177-9.89
			c2.775-1.768,7.237-3.515,9.833-2.476c10.439,4.183,20.469,9.398,30.591,14.354C234.858,267.384,237.076,269.042,240.227,271.004z
			 M309.272,335.393c-7.826-21.053-23.433-34.164-41.582-44.896c2.616,2.868,5.715,5.244,8.577,7.876
			c7.577,6.968,15.143,13.955,22.472,21.179c1.095,1.079,0.891,3.476,1.287,5.262c-1.633-0.448-3.612-0.454-4.845-1.416
			c-8.869-6.926-17.39-14.31-26.396-21.047c-17.974-13.445-36.747-25.641-57.471-34.538c-1.849-0.793-3.88-1.164-6.405-1.9
			C217.664,289.704,291.039,338.425,309.272,335.393z"/>
		<path fill-rule="evenodd" clip-rule="evenodd" d="M905.306,209.335c-0.904,11.225-5.993,20.837-12.598,29.519
			c-16.755,22.025-36.939,40.291-61.871,52.647c-6.625,3.284-14.142,5.69-21.458,6.431c-9.67,0.979-15.94-8.137-11.904-16.917
			c3.202-6.966,7.424-13.718,12.359-19.583c15.975-18.985,34.574-35.317,53.735-50.995c5.995-4.906,12.371-9.348,18.369-14.251
			c5.543-4.531,11.487-3.699,16.665-0.492C903.151,198.511,905.756,203.419,905.306,209.335z M889.231,207.824
			c-28.349,23.146-55.521,45.456-75.782,74.906c1.172,0.318,2,0.237,2.648-0.146c9.722-5.771,19.772-11.073,29.043-17.499
			c14.968-10.372,27.284-23.602,37.336-38.76C885.798,221.316,889.114,215.918,889.231,207.824z"/>
		<path fill-rule="evenodd" clip-rule="evenodd" d="M343.796,784.641c-3.458,19.5-12.004,35.829-27.072,48.729
			c-9.737,8.336-20.24,15.249-32.488,19.126c-3.508,1.11-7.588,1.953-11.078,1.264c-8.029-1.586-12.063-9.293-7.889-17.207
			c4.389-8.32,9.811-16.737,16.726-22.947c13.48-12.109,28.317-22.708,42.59-33.937c0.89-0.7,1.962-1.287,2.59-2.18
			c4.103-5.837,11.677-6.814,17.589-2.181C349.914,779.347,349.535,782.19,343.796,784.641z M279.555,838.087
			c16.575-3.937,40.873-27.308,42.221-40.553C306.799,810.163,291.244,821.336,279.555,838.087z"/>
		<path fill-rule="evenodd" clip-rule="evenodd" d="M912.41,580.115c10.017,0.493,20.378-0.271,28.496,6.291
			c4.081,3.298,6.858,8.524,9.386,13.321c1.768,3.355-0.605,6.724-3.591,8.206c-4.482,2.226-9.286,4.297-14.174,5.116
			c-14.343,2.405-28.7,1.289-42.81-1.942c-5.738-1.314-11.418-3.426-14.301-9.447c-2.74-5.724-1.28-11.261,4.245-14.503
			C889.838,581.184,901.19,580.53,912.41,580.115z M899.079,597.666c11.545,2.557,23.12,3.758,34.791,0.798
			C922.343,595.176,910.727,595.747,899.079,597.666z"/>
		<path fill-rule="evenodd" clip-rule="evenodd" d="M616.644,182.052c0.806-9.268,1.647-19.646,2.665-30.007
			c0.172-1.741,0.819-3.58,1.737-5.071c1.964-3.189,4.287-5.921,2.582-10.32c-0.394-1.016,2.758-4.514,4.8-5.124
			c3.752-1.121,8.005-0.375,9.676,3.846c2.093,5.285,4.558,10.81,4.864,16.341c0.908,16.354,0.768,32.798-3.927,48.703
			c-1.049,3.554-3.26,7.5-6.146,9.618c-5.563,4.083-13.03,0.895-14.347-6.095C617.272,197.176,617.29,190.165,616.644,182.052z"/>
		<path fill-rule="evenodd" clip-rule="evenodd" d="M155.825,581.475c-2.015-0.376-5.175-0.61-8.083-1.591
			c-4.492-1.515-6.917-5.335-7.278-9.729c-0.334-4.064,2.267-7.489,6.053-8.829c8.415-2.979,16.892-6.016,25.59-7.88
			c7.159-1.535,14.669-1.481,22.032-2.01c5.301-0.381,9.247,6.978,6.092,12.132c-1.722,2.814-4.546,5.258-7.396,7.024
			C181.883,577.379,169.771,580.588,155.825,581.475z"/>
		<path fill-rule="evenodd" clip-rule="evenodd" d="M881.299,486.285c-4.615-1.152-8.005-2.645-8.959-6.979
			c-1.021-4.645,2.363-6.306,5.976-7.586c4.718-1.672,9.345-3.677,14.169-4.935c1.946-0.508,4.799-0.046,6.327,1.146
			c1.211,0.943,1.745,3.865,1.288,5.561c-0.596,2.213-2.012,4.88-3.877,5.944C891.486,482.136,886.303,484.053,881.299,486.285z"/>
		<path fill-rule="evenodd" clip-rule="evenodd" d="M615.404,683.876c8.338,4.274,16.919,6.657,25.562,4.094
			c4.656-1.382,9.184-4.985,12.442-8.738c2.678-3.083,5.19-4.648,8.779-3.805c3.697,0.87,5.403,3.921,4.969,7.597
			c-0.849,7.176-1.958,14.324-3.108,21.46c-1.879,11.667-3.852,23.318-5.831,34.969c-3.158,18.592-6.192,37.207-9.614,55.75
			c-1.331,7.216-3.507,14.281-5.425,21.38c-1.2,4.441-4.456,7.478-8.794,7.367c-2.998-0.077-6.734-1.9-8.646-4.19
			c-1.521-1.823-1.468-5.668-0.937-8.385c3.994-20.409,8.373-40.742,12.442-61.138c3.006-15.064,5.728-30.187,8.59-45.36
			c-14.467,1.323-28.474,0.001-41.381-7.633c-1.188-0.702-3.624-0.468-4.88,0.306c-13.161,8.102-27.478,10.845-42.696,9.644
			c-2.281-0.18-4.816-0.138-6.751-1.135c-5.456-2.813-10.018-1.201-15.279,1.044c-19.479,8.311-36.945,3.638-52.721-9.509
			c-0.745-0.621-1.417-1.328-3.129-2.947c0.559,3.288,0.87,5.37,1.271,7.436c3.308,17.027,6.674,34.044,9.937,51.08
			c2.249,11.741,4.475,23.489,6.491,35.272c1.08,6.31,1.986,12.678,2.432,19.057c0.377,5.41-2.902,9.038-7.825,9.709
			c-5.243,0.716-9.908-2.387-10.993-7.725c-0.915-4.499-1.34-9.096-2.024-13.642c-1.686-11.2-3.287-22.415-5.125-33.591
			c-2.182-13.254-4.446-26.498-6.914-39.702c-2.347-12.554-5.007-25.05-7.514-37.574c-0.516-2.58-1.095-5.157-1.417-7.763
			c-0.609-4.938,2.396-9.104,8.386-12.078c4.546-2.259,7.964-0.219,11.039,2.864c6.313,6.329,12.33,12.974,18.873,19.053
			c8.854,8.224,19.155,10.185,31.26,5.451c-1.643-2.415-3.125-4.632-4.645-6.824c-4.78-6.896-6.511-14.632-4.407-22.607
			c2.725-10.328,9.332-15.826,19.258-16.478c8.648-0.567,15.699,3.891,20.203,11.85c5.229,9.237,4.943,18.491,0.856,27.929
			c-0.579,1.337-1.282,2.619-2.136,4.349c12.091,2.081,22.8-0.656,32.721-6.776c0.881-0.543,1-3.167,0.688-4.661
			c-2.271-10.896-1.78-21.261,4.814-30.775c6.94-10.015,20.54-9.372,26.249,1.414c5.665,10.703,2.34,20.657-2.885,30.374
			C616.943,681.492,616.169,682.628,615.404,683.876z M538.204,663.092c-4.935,5.662-3.753,13.218,2.4,17.016
			C544.624,672.88,543.99,667.872,538.204,663.092z"/>
	</g>
</g>
<path fill-rule="evenodd" clip-rule="evenodd" d="M492.176,823.083c5.753,0.179,9.167,3.248,9.039,8.127
	c-0.11,4.249-3.873,7.203-8.924,7.007c-5.147-0.201-9.195-3.971-9.034-8.415C483.427,825.128,486.38,822.903,492.176,823.083z"/>
<path display="none" fill-rule="evenodd" clip-rule="evenodd" d="M492.236,826.862c5.25-4.5,10.239,0.961,7.5,5
	c-2.835,4.182-7.445,6.354-7.445,6.354s-5.319-3.64-7.18-8.229C483.04,824.877,489.111,822.487,492.236,826.862z"/>
<path display="none" fill-rule="evenodd" clip-rule="evenodd" fill="#FFFFFF" d="M622.13,1043.428c-42.882,0-85.139,0-127.966,0
	c5.196,8.35,9.964,16.2,14.995,23.878c0.709,1.082,2.702,1.865,4.104,1.87c28.306,0.106,56.611,0.107,84.916-0.011
	c1.334-0.006,3.02-1.001,3.936-2.059C608.719,1059.474,615.167,1051.707,622.13,1043.428z"/>
</svg>
