<?xml version="1.0" encoding="utf-8"?>
<!-- Generator: Adobe Illustrator 16.0.4, SVG Export Plug-In . SVG Version: 6.00 Build 0)  -->
<!DOCTYPE svg PUBLIC "-//W3C//DTD SVG 1.1//EN" "http://www.w3.org/Graphics/SVG/1.1/DTD/svg11.dtd">
<svg version="1.1" id="Layer_1" xmlns="http://www.w3.org/2000/svg" xmlns:xlink="http://www.w3.org/1999/xlink" x="0px" y="0px"
	 width="1296.13px" height="1092.109px" viewBox="0 0 1296.13 1092.109" enable-background="new 0 0 1296.13 1092.109"
	 xml:space="preserve">
<g id="UJiSq5_1_">
	<g>
		<path fill-rule="evenodd" clip-rule="evenodd" d="M958.245,59.236c9.145,3.566,10.941,6.177,10.943,16.358
			c0.021,147.323,0.031,294.647,0.03,441.971c0,8.812-7.269,13.815-15.61,10.999c-2.298-0.776-4.812-1.292-7.226-1.293
			c-200.486-0.059-400.973-0.04-601.459-0.146c-4.74-0.003-9.569-1.002-14.197-2.171c-5.269-1.331-7.451-5.134-7.451-11.437
			c-0.006-73.495,0.118-146.991-0.05-220.485c-0.15-66.269-0.689-132.536-0.848-198.804c-0.018-7.477,1.05-14.996,2.126-22.422
			c0.892-6.153,8.505-10.467,17.868-10.498c22.655-0.073,45.311-0.049,67.966-0.049c137.966,0.002,275.932,0.01,413.898,0.012
			c40.992,0,81.985,0.031,122.978-0.104c3.013-0.01,6.021-1.259,9.031-1.932C956.912,59.236,957.578,59.236,958.245,59.236z
			 M345.772,505.089c199.866,0,399.567,0,599.555,0c0.184-1.689,0.481-3.142,0.477-4.593c-0.03-10.077-0.235-20.155-0.174-30.231
			c0.134-22.049,0.582-44.099,0.562-66.147c-0.051-58.368-0.325-116.736-0.422-175.104c-0.05-29.74-0.025-59.481,0.259-89.22
			c0.049-5.1-1.16-6.7-6.518-6.696c-195.965,0.142-391.93,0.119-587.896,0.12c-1.758,0-3.516,0-5.844,0
			C345.772,257.522,345.772,381.088,345.772,505.089z M345.868,123.254c2.636,0,4.275,0,5.916,0
			c187.458,0.006,374.916,0.012,562.374,0.015c8.831,0,17.665,0.062,26.493-0.107c2.469-0.047,5.529,0.301,5.487-3.912
			c-0.114-11.637-0.039-23.276-0.039-35.474c-200.193,0-400.266,0-600.231,0C345.868,96.78,345.868,109.678,345.868,123.254z"/>
		<path fill-rule="evenodd" clip-rule="evenodd" d="M1237.245,1030.236c-0.947,9.155-7.232,13.44-15.01,16.227
			c-1.662,0.595-3.563,0.726-5.354,0.726c-103.085-0.014-206.17-0.066-309.255-0.104c-5.327-0.002-10.656,0.073-15.983,0.157
			c-9.764,0.152-14.37-4.287-14.373-14.04c-0.014-54.308-0.024-108.615,0.005-162.923c0.012-21.151,0.123-42.303,0.208-63.454
			c0.018-4.497,1.085-8.802-1.712-13.314c-2.362-3.812,0.663-8.798,5.495-10.57c2.581-0.946,5.436-1.605,8.17-1.614
			c39.591-0.131,79.183-0.145,118.773-0.154c41.525-0.011,83.051,0.114,124.575-0.016c28.366-0.088,56.731-0.688,85.098-0.662
			c7.279,0.007,14.721,1.238,17.762,9.699c0.596,1.659,1.07,3.361,1.601,5.043C1237.245,873.569,1237.245,951.903,1237.245,1030.236
			z M902.567,823.394c0,67.843,0,135.22,0,202.411c103.407,0,206.434,0,309.416,0c0-67.719,0-134.964,0-202.411
			C1108.747,823.394,1005.823,823.394,902.567,823.394z M902.185,809.94c103.705,0,206.757,0,309.892,0c0-2.627,0-4.902,0-7.448
			c-103.406,0-206.606,0-309.892,0C902.185,805.087,902.185,807.366,902.185,809.94z"/>
		<path fill-rule="evenodd" clip-rule="evenodd" d="M55.245,788.236c3.405-5.238,8.472-6.987,14.438-6.988
			c39.438-0.008,78.875-0.049,118.312-0.059c41.537-0.011,83.075,0.103,124.612-0.031c28.375-0.092,56.749-0.694,85.123-0.662
			c7.05,0.008,14.582,0.89,17.527,9.186c1.083,3.05,1.833,6.406,1.839,9.625c0.105,65.644,0.08,131.288,0.081,196.933
			c0,9.968-0.337,19.95,0.069,29.901c0.585,14.375-10.894,21.093-20.992,21.087c-102.949-0.062-205.899-0.104-308.849-0.143
			c-5.163-0.002-10.327,0.06-15.489,0.146c-10.155,0.17-14.645-4.152-14.647-14.263c-0.012-42.327-0.033-84.653,0.008-126.98
			c0.032-33.322,0.177-66.644,0.193-99.966c0.002-4.022,2.411-8.603-2.225-11.786C55.245,792.236,55.245,790.236,55.245,788.236z
			 M82.431,1025.84c103.456,0,206.499,0,309.568,0c0-66.364,0-132.288,0-198.928c-103.306,0-206.315,0-309.568,0
			C82.431,892.998,82.431,959.265,82.431,1025.84z M392.092,802.583c-103.653,0-206.793,0-309.79,0c0,4.35,0,8.289,0,11.852
			c103.452,0,206.525,0,309.79,0C392.092,810.06,392.092,806.458,392.092,802.583z"/>
		<path fill-rule="evenodd" clip-rule="evenodd" d="M646.221,1047.272c-54.128,0-108.257-0.011-162.386,0.01
			c-8.897,0.003-13.561-4.649-13.562-13.896c-0.011-70.649-0.017-141.3,0.039-211.95c0.005-6.983,0.455-13.966,0.646-20.95
			c0.03-1.113,0.067-2.367-0.383-3.33c-4.195-8.981-0.529-15.035,9.744-15.858c1.822-0.146,3.664-0.04,5.497-0.043
			c68-0.092,136-0.203,204-0.263c24.589-0.022,49.177,0.184,73.765,0.09c15.424-0.059,30.845-0.497,46.268-0.72
			c1.647-0.024,3.324,0.109,4.943,0.409c11.308,2.096,15.187,5.195,15.246,19.15c0.278,65.14,0.178,130.281,0.101,195.423
			c-0.015,12.097-0.085,24.227-0.98,36.278c-0.667,8.995-9.076,15.569-18.505,15.576c-42.985,0.034-85.972,0.005-128.957-0.002
			c-11.825-0.001-23.65,0-35.476,0C646.221,1047.222,646.221,1047.247,646.221,1047.272z M805.018,825.83
			c-103.303,0-206.414,0-309.419,0c0,66.805,0,133.514,0,200.123c103.32,0,206.231,0,309.419,0
			C805.018,959.369,805.018,893.107,805.018,825.83z M805.078,802.449c-103.545,0-206.602,0-309.736,0c0,3.658,0,7.038,0,10.531
			c103.455,0,206.493,0,309.736,0C805.078,809.406,805.078,806.136,805.078,802.449z"/>
		<path fill-rule="evenodd" clip-rule="evenodd" d="M814.141,198.79c0,10.661,0.142,21.325-0.042,31.983
			c-0.166,9.552-6.361,17.263-16.951,13.796c-1.375-0.45-2.962-0.339-4.451-0.339c-117.952-0.001-235.905-0.007-353.857,0.045
			c-17.225,0.008-34.45,0.425-51.674,0.358c-4.732-0.019-9.603-0.615-14.124-1.929c-1.906-0.554-4.37-3.645-4.377-5.589
			c-0.067-18.957,0.22-37.917,0.675-56.87c0.121-5.034-2.092-10.815,3.409-14.725c0.24-0.17-0.092-1.146-0.159-1.747
			c-0.667-5.945,1.246-8.466,7.259-8.444c7.116,0.026,14.23,0.874,21.347,0.881c72.805,0.073,145.609,0.045,218.414,0.052
			c60.808,0.006,121.616,0.021,182.424,0.031c8.262,0.001,12.2,3.886,12.195,12.009c-0.006,10.162-0.001,20.324-0.001,30.486
			C814.198,198.79,814.169,198.79,814.141,198.79z M803.114,167.091c-141.666,0.373-282.84-0.175-423.257,0.289
			c0,23.146,0,44.819,0,66.884c141.55-0.052,282.357,0.096,423.257-0.065C803.114,210.777,803.114,188.803,803.114,167.091z"/>
		<path fill-rule="evenodd" clip-rule="evenodd" d="M605.756,444.888c0-60.535,0-120.757,0-181.377
			c1.892-0.085,3.67-0.232,5.448-0.233c61.47-0.017,122.938,0,184.408-0.097c2.308-0.003,4.779-0.729,6.887-1.725
			c4.17-1.971,8.791-0.334,9.568,4.296c0.818,4.872,1.088,9.89,1.065,14.842c-0.24,51.539-0.586,103.077-0.909,154.616
			c-0.042,6.613-2.942,9.977-8.99,9.979c-65.14,0.028-130.278,0.005-195.418-0.015C607.324,445.175,606.832,445.042,605.756,444.888
			z M618.021,273.924c0,54.016,0,107,0,160.09c60.758,0,121.408,0,181.867,0c0-53.542,0-106.575,0-160.09
			C739.233,273.924,678.993,273.924,618.021,273.924z"/>
		<path fill-rule="evenodd" clip-rule="evenodd" d="M828.786,390.786c0-24.741,0.063-49.483-0.015-74.225
			c-0.117-37.138-0.348-74.275-0.499-111.413c-0.052-12.495-0.02-24.991-0.005-37.486c0.008-6.4,1.316-7.598,7.553-7.505
			c26.306,0.395,52.611,0.736,78.917,1.096c0.833,0.012,1.67,0.045,2.499-0.011c9.168-0.614,10.957,0.784,10.904,9.893
			c-0.239,41.117-0.666,82.232-0.943,123.35c-0.311,46.12-0.603,92.24-0.747,138.361c-0.038,12.119,0.523,24.24,0.763,36.361
			c0.098,4.931-3.733,8.477-7.459,6.329c-6.177-3.558-12.828-2.92-19.265-3.042c-21.151-0.4-42.313-0.244-63.472-0.311
			c-6.987-0.021-8.686-1.443-8.644-8.285c0.095-15.604,0.471-31.206,0.645-46.81c0.098-8.766,0.018-17.534,0.018-26.302
			C828.953,390.787,828.87,390.787,828.786,390.786z M916.731,461.665c-0.536-97.337-1.065-193.651-1.594-289.69
			c-25.402,0-50.395,0-75.737,0c0,97.146,0,193.534,0,289.69C865.1,461.665,890.353,461.665,916.731,461.665z"/>
		<path fill-rule="evenodd" clip-rule="evenodd" d="M588.277,263.27c0,61.009,0,121.213,0,181.946c-7.336,0-14.462,0-21.589,0
			c-60.3-0.003-120.601,0.089-180.899-0.2c-4.463-0.021-9.154-2.328-13.241-4.508c-1.505-0.803-2.175-4.308-2.19-6.587
			c-0.154-23.654,0.024-47.31-0.131-70.963c-0.196-29.94-0.634-59.879-0.931-89.819c-0.086-8.703,1.884-10.507,10.474-9.897
			c0.332,0.023,0.666,0.009,0.999,0.011c52.45,0.334,104.9,0.758,157.352,0.942c14.787,0.053,29.576-0.601,44.365-0.92
			C584.116,263.24,585.748,263.27,588.277,263.27z M577.608,274.007c-65.409,0-129.727,0-194.725,0c0,54.184,0,107.539,0,160.516
			c64.955,0,129.925,0,194.725,0C577.608,380.735,577.608,327.706,577.608,274.007z"/>
		<path fill-rule="evenodd" clip-rule="evenodd" d="M918.902,113.217c-6.46,0.014-12.355-4.741-12.555-10.126
			c-0.219-5.925,5.398-10.896,12.246-10.835c6.789,0.06,11.669,4.562,11.618,10.721
			C930.161,109.208,925.749,113.203,918.902,113.217z"/>
		<path fill-rule="evenodd" clip-rule="evenodd" d="M856.204,104.321c0.053,5.834-4.448,10.366-10.336,10.408
			c-6.032,0.043-12.423-5.632-12.584-11.173c-0.169-5.805,5.434-11.341,11.432-11.298C850.64,92.3,856.147,98.084,856.204,104.321z"
			/>
		<path fill-rule="evenodd" clip-rule="evenodd" d="M880.514,93.255c6.481-0.01,11.667,4.781,11.711,10.818
			c0.037,5.146-5.344,10.21-10.747,10.114c-5.938-0.106-11.68-5.252-11.715-10.5C869.723,97.691,874.284,93.265,880.514,93.255z"/>
	</g>
</g>
<g id="btCGay_1_">
	<g>
		<path fill-rule="evenodd" clip-rule="evenodd" d="M657,511c0,67.445,0,134.89,0,202.314c8.492,0.787,17.476-0.133,27.078,0.756
			c-14.939,15.855-31.339,29.606-46,45.167c-17.851-15.113-33.738-29.388-52.379-45.167c11.545-0.055,20.452-0.164,30.823-0.074
			C616.014,646.107,615.507,578.554,615,511C629,511,643,511,657,511z"/>
		<path fill-rule="evenodd" clip-rule="evenodd" d="M250.579,724.844c0-25.14-0.982-50.192,0.021-74.308
			c8.054,7.701,15.552,14.871,23.499,22.471c12.835-15.33,25.403-30.215,37.836-45.213c24.284-29.291,48.261-58.842,72.866-87.86
			c7.756-9.147,16.983-17.076,25.787-25.294c3.713-3.466,8.044-2.901,11.648,0.521c5.144,4.883,13.488-3.938,18.509,1.074
			c0.93,0.928,20.117,3.215,19.25,4.125c-5,5.25-14.199,16.913-17.731,21.33c-5.892,7.369-12.004,14.567-18.179,21.703
			c-27.719,32.033-55.479,64.031-83.25,96.018c-11.507,13.254-38.756,42.991-38.756,42.991s11.585,10.792,14.705,15.038
			c1.273,1.732,1.948,4.801,1.295,6.717c-0.387,1.135-3.944,1.826-5.99,1.662C295.846,724.509,256.054,725.114,250.579,724.844z"/>
		<path fill-rule="evenodd" clip-rule="evenodd" d="M1015.628,673.259c7.742-7.523,22.242-23.023,22.242-23.023
			s-0.1,51.428,0.875,74.75c-5.371,0.307-44.001,0.957-62.794,0.957c-5.5,0.461-7.678-2.721-4.592-7.242
			c3.24-4.748,5.116-6.674,9.11-10.852c2.479-2.594,5.275-6.738,5.275-6.738s-40.497-45.908-59.272-67.541
			c-18.108-20.863-36.51-41.473-54.696-62.27c-8.285-9.475-16.488-19.026-24.484-28.744c-4.278-5.199-20.337-20.989-14.547-24.486
			c0.954-0.576,28.855,2,33.993-2.888c3.598-3.423,7.866-3.97,11.657-0.568c7.993,7.172,16.31,14.12,23.414,22.118
			c13.189,14.85,25.673,30.332,38.33,45.65c23.056,27.9,46.015,55.879,69.043,83.801
			C1010.96,668.337,1011.967,669.304,1015.628,673.259z"/>
	</g>
</g>
</svg>
