<?xml version="1.0" encoding="utf-8"?>
<!-- Generator: Adobe Illustrator 17.0.0, SVG Export Plug-In . SVG Version: 6.00 Build 0)  -->
<!DOCTYPE svg PUBLIC "-//W3C//DTD SVG 1.1//EN" "http://www.w3.org/Graphics/SVG/1.1/DTD/svg11.dtd">
<svg version="1.1" id="Layer_1" xmlns="http://www.w3.org/2000/svg" xmlns:xlink="http://www.w3.org/1999/xlink" x="0px" y="0px"
	 width="80px" height="80px" viewBox="0 0 80 80" enable-background="new 0 0 80 80" xml:space="preserve">
<path fill="#FFFFFF" d="M40.077,2.762c-20.567,0-37.238,16.673-37.238,37.24c0,20.562,16.67,37.235,37.238,37.235
	c20.562,0,37.232-16.673,37.232-37.235C77.309,19.435,60.639,2.762,40.077,2.762 M26.486,51.035
	c-6.095,0-11.035-4.942-11.035-11.032c0-6.098,4.939-11.043,11.035-11.043s11.04,4.945,11.04,11.043
	C37.526,46.095,32.581,51.035,26.486,51.035 M53.665,51.035c-6.095,0-11.04-4.942-11.04-11.032c0-6.098,4.945-11.043,11.04-11.043
	S64.7,33.905,64.7,40.003C64.7,46.095,59.76,51.035,53.665,51.035"/>
</svg>
