<?xml version="1.0" encoding="utf-8"?>
<!-- Generator: Adobe Illustrator 17.0.0, SVG Export Plug-In . SVG Version: 6.00 Build 0)  -->
<!DOCTYPE svg PUBLIC "-//W3C//DTD SVG 1.1//EN" "http://www.w3.org/Graphics/SVG/1.1/DTD/svg11.dtd">
<svg version="1.1" id="Layer_1" xmlns="http://www.w3.org/2000/svg" xmlns:xlink="http://www.w3.org/1999/xlink" x="0px" y="0px"
	 width="80px" height="80px" viewBox="0 0 80 80" enable-background="new 0 0 80 80" xml:space="preserve">
<g>
	<path fill="#010101" d="M69.153,61.597L56.489,48.928c-0.176-0.174-0.377-0.312-0.564-0.459c2.591-3.977,4.105-8.712,4.105-13.81
		c0-14.013-11.353-25.371-25.371-25.371c-14.01,0-25.371,11.358-25.371,25.371c0,14.015,11.361,25.371,25.371,25.371
		c5.096,0,9.839-1.517,13.818-4.107c0.147,0.19,0.28,0.385,0.454,0.558l12.664,12.669c1.047,1.044,2.414,1.565,3.776,1.565
		c1.367,0,2.732-0.521,3.782-1.562C71.233,67.063,71.233,63.682,69.153,61.597z M34.659,52.015c-9.572,0-17.359-7.788-17.359-17.359
		s7.788-17.359,17.359-17.359c9.566,0,17.359,7.788,17.359,17.359S44.225,52.015,34.659,52.015z"/>
	<path fill="#010101" d="M65.371,72.049c-1.779,0-3.456-0.694-4.722-1.955L48.218,57.653c-4.113,2.43-8.776,3.71-13.556,3.71
		c-14.726,0-26.706-11.98-26.706-26.706S19.936,7.95,34.662,7.95s26.706,11.98,26.706,26.706c0,4.78-1.279,9.441-3.71,13.551
		l12.437,12.445c2.599,2.604,2.599,6.839,0,9.441C68.83,71.355,67.153,72.049,65.371,72.049z M48.784,54.125l0.75,0.98
		c0.179,0.238,0.254,0.345,0.347,0.438l12.656,12.661c1.52,1.514,4.153,1.509,5.667,0c1.557-1.562,1.557-4.102,0-5.664
		L55.543,49.871c-0.08-0.077-0.182-0.155-0.28-0.23l-0.985-0.75l0.529-1.151c2.542-3.912,3.888-8.437,3.888-13.083
		c0-13.252-10.781-24.036-24.036-24.036c-13.252,0-24.036,10.784-24.036,24.036c0,13.254,10.784,24.036,24.036,24.036
		c4.65,0,9.179-1.346,13.089-3.891L48.784,54.125z M34.659,53.35c-10.309,0-18.694-8.388-18.694-18.694
		c0-10.309,8.386-18.694,18.694-18.694c10.306,0,18.694,8.386,18.694,18.694C53.353,44.962,44.968,53.35,34.659,53.35z
		 M34.659,18.632c-8.837,0-16.024,7.187-16.024,16.024S25.822,50.68,34.659,50.68s16.024-7.187,16.024-16.024
		S43.496,18.632,34.659,18.632z"/>
</g>
</svg>
