<?xml version="1.0" encoding="utf-8"?>
<!-- Generator: Adobe Illustrator 17.0.0, SVG Export Plug-In . SVG Version: 6.00 Build 0)  -->
<!DOCTYPE svg PUBLIC "-//W3C//DTD SVG 1.1//EN" "http://www.w3.org/Graphics/SVG/1.1/DTD/svg11.dtd">
<svg version="1.1" id="Layer_1" xmlns="http://www.w3.org/2000/svg" xmlns:xlink="http://www.w3.org/1999/xlink" x="0px" y="0px"
	 width="80px" height="80px" viewBox="0 0 80 80" enable-background="new 0 0 80 80" xml:space="preserve">
<g id="Your_Icon">
	<g>
		<path fill="#FFFFFF" d="M39.573,6.374c-13.753,0-24.943,11.19-24.943,24.941c0,17.786,21.343,40.914,22.253,41.887
			c0.695,0.748,1.668,1.173,2.69,1.173c1.02,0,1.993-0.425,2.688-1.173c0.909-0.973,22.255-24.103,22.255-41.887
			C64.516,17.562,53.326,6.374,39.573,6.374z M29.728,30.531c0-5.44,4.409-9.849,9.845-9.849c5.438,0,9.845,4.407,9.845,9.849
			c0,5.438-4.407,9.845-9.845,9.845S29.728,35.966,29.728,30.531z"/>
	</g>
</g>
</svg>
