<?xml version="1.0" encoding="utf-8"?>
<!-- Generator: Adobe Illustrator 17.0.0, SVG Export Plug-In . SVG Version: 6.00 Build 0)  -->
<!DOCTYPE svg PUBLIC "-//W3C//DTD SVG 1.1//EN" "http://www.w3.org/Graphics/SVG/1.1/DTD/svg11.dtd">
<svg version="1.1" id="Layer_1" xmlns="http://www.w3.org/2000/svg" xmlns:xlink="http://www.w3.org/1999/xlink" x="0px" y="0px"
	 width="80px" height="80px" viewBox="0 0 80 80" enable-background="new 0 0 80 80" xml:space="preserve">
<g>
	<g id="X9wiX1_1_">
		<g>
			<path d="M37.315,71.961c-0.622-0.217-0.798-0.822-1.114-1.299c-0.278-0.42-0.508-0.871-0.776-1.298
				c-0.053-0.085-0.187-0.17-0.283-0.169C34.761,69.199,34.38,69.26,34,69.254c-0.194-0.004-0.432-0.053-0.572-0.173
				c-0.456-0.39-0.874-0.798-0.883-1.489c-0.009-0.711-0.112-1.42-0.174-2.13c-0.039-0.453-0.086-0.905-0.113-1.359
				c-0.009-0.152,0.047-0.307,0.047-0.46c0.005-1.272-0.018-2.545,0.01-3.817c0.024-1.145-0.023-2.283-0.266-3.4
				c-0.222-1.021-0.409-2.066-0.787-3.032c-0.503-1.287-1.145-2.524-1.782-3.754c-0.9-1.737-1.883-3.431-2.769-5.175
				c-0.703-1.385-1.243-2.844-1.521-4.379c-0.178-0.981-0.208-1.978-0.084-2.975c0.098-0.788,0.135-1.585,0.263-2.368
				c0.252-1.542,0.658-3.048,1.344-4.458c0.404-0.831,0.859-1.642,1.353-2.422c0.218-0.345,0.585-0.597,0.894-0.882
				c0.266-0.246,0.555-0.467,0.817-0.717c1.255-1.199,2.66-2.195,4.161-3.057c1.213-0.697,2.548-1.058,3.895-1.38
				c1.494-0.357,3.017-0.302,4.525-0.228c1.374,0.067,2.701,0.462,4.001,0.936c1.432,0.522,2.654,1.377,3.87,2.266
				c0.867,0.634,1.596,1.432,2.451,2.058c1.423,1.043,1.978,2.596,2.655,4.085c0.576,1.266,0.867,2.624,1.111,3.986
				c0.116,0.648,0.147,1.312,0.209,1.97c0.03,0.32,0.047,0.641,0.064,0.962c0.082,1.617-0.275,3.155-0.832,4.659
				c-0.633,1.712-1.493,3.316-2.355,4.918c-0.713,1.325-1.477,2.622-2.173,3.956c-0.754,1.444-1.297,2.969-1.58,4.58
				c-0.126,0.719-0.277,1.435-0.37,2.159c-0.043,0.333,0.046,0.68,0.038,1.02c-0.031,1.373-0.075,2.745-0.119,4.117
				c-0.01,0.322-0.047,0.643-0.052,0.965c-0.002,0.129,0.054,0.257,0.075,0.388c0.019,0.121,0.071,0.26,0.033,0.363
				c-0.246,0.659-0.137,1.345-0.076,1.999c0.035,0.379,0.056,0.714-0.064,1.069c-0.245,0.723-0.889,1.207-1.669,1.212
				c-0.35,0.002-0.702-0.031-1.051-0.061c-0.203-0.017-0.347,0.052-0.491,0.197c-0.77,0.778-1.408,2.561-2.018,2.561
				C41.78,71.961,39.548,71.961,37.315,71.961z M34.073,57.576c4.557,0,9.088,0,13.593,0c0.061-0.359,0.103-0.665,0.167-0.966
				c0.194-0.913,0.331-1.845,0.607-2.732c0.713-2.296,1.933-4.354,3.136-6.417c1.065-1.826,2.073-3.683,2.815-5.671
				c0.36-0.965,0.624-1.961,0.689-2.988c0.044-0.692-0.039-1.392-0.046-2.089c-0.011-1.257-0.285-2.47-0.567-3.685
				c-0.461-1.984-1.491-3.646-2.881-5.101c-0.774-0.811-1.655-1.497-2.558-2.16c-0.824-0.605-1.651-1.203-2.593-1.605
				c-0.725-0.309-1.467-0.582-2.258-0.693c-0.875-0.123-1.743-0.325-2.621-0.379c-1.292-0.08-2.573,0.054-3.847,0.344
				c-1.091,0.249-2.161,0.535-3.12,1.107c-0.784,0.468-1.513,1.027-2.264,1.55c-1.137,0.793-2.157,1.716-3,2.818
				c-0.677,0.885-1.289,1.818-1.653,2.881c-0.591,1.723-0.909,3.502-0.994,5.32c-0.064,1.37,0.052,2.718,0.485,4.037
				c0.774,2.356,1.998,4.488,3.207,6.632c0.698,1.237,1.382,2.484,2.022,3.751C33.353,53.433,33.863,55.47,34.073,57.576z
				 M48.221,59.247c-4.892,0.794-9.756,1.584-14.643,2.377c0,0.587,0,1.197,0,1.827c0.698-0.118,1.384-0.236,2.071-0.351
				c1.053-0.176,2.106-0.36,3.161-0.522c0.803-0.123,1.61-0.218,2.415-0.326c0.754-0.101,1.509-0.202,2.262-0.305
				c0.571-0.078,1.14-0.162,1.711-0.239c0.521-0.07,1.044-0.123,1.563-0.202c0.462-0.07,0.919-0.164,1.369-0.246
				C48.163,60.548,48.192,59.885,48.221,59.247z M33.759,66.456c0.565-0.107,1.107-0.224,1.653-0.311
				c1.369-0.218,2.739-0.425,4.11-0.632c1.667-0.252,3.334-0.502,5.002-0.747c1.058-0.155,2.119-0.295,3.177-0.447
				c0.166-0.024,0.322-0.076,0.32-0.302c-0.006-0.516-0.002-1.032-0.002-1.552c-4.77,0.722-9.614,1.15-14.419,2.081
				C33.653,65.188,33.706,65.815,33.759,66.456z M47.987,65.429c-0.202,0.037-0.331,0.064-0.462,0.083
				c-0.764,0.109-1.527,0.219-2.291,0.321c-0.795,0.106-1.592,0.201-2.388,0.306c-0.54,0.071-1.079,0.148-1.617,0.227
				c-0.609,0.089-1.217,0.183-1.826,0.273c-0.548,0.081-1.097,0.158-1.644,0.241c-0.69,0.105-1.38,0.21-2.069,0.324
				c-0.577,0.095-1.154,0.197-1.727,0.314c-0.073,0.015-0.15,0.136-0.173,0.222c-0.018,0.066,0.022,0.198,0.075,0.224
				c0.16,0.08,0.339,0.17,0.511,0.171c1.574,0.013,3.148,0.015,4.721,0.006c2.384-0.013,4.768-0.04,7.152-0.055
				c0.278-0.002,0.557,0.027,0.835,0.056c0.27,0.027,0.791-0.36,0.808-0.639C47.933,66.833,47.955,66.16,47.987,65.429z
				 M43.949,58.834c-0.001-0.02-0.002-0.04-0.002-0.06c-3.467,0-6.933,0-10.383,0c0,0.586,0,1.148,0,1.718
				C37.038,59.938,40.494,59.386,43.949,58.834z"/>
			<path d="M71.302,37.911c-0.702,0.467-1.485,0.725-2.305,0.872c-1.539,0.277-3.097,0.306-4.65,0.239
				c-1.232-0.053-2.473-0.146-3.642-0.61c-0.362-0.143-0.722-0.294-0.959-0.633c-0.301-0.431-0.169-0.95,0.336-1.093
				c0.49-0.139,1.005-0.252,1.511-0.264c1.527-0.036,3.056-0.019,4.584-0.02c0.406-0.001,0.815-0.024,1.218,0.013
				c0.934,0.086,1.869,0.179,2.797,0.317c0.462,0.069,0.858,0.317,1.11,0.74C71.302,37.619,71.302,37.765,71.302,37.911z
				 M69.355,37.75c-1.3-0.291-5.076-0.609-8.144-0.261C61.933,38.001,68.235,38.203,69.355,37.75z"/>
			<path d="M42.26,6.24c0.331,0.196,0.382,0.541,0.43,0.869c0.177,1.212,0.397,2.422,0.488,3.642
				c0.082,1.107,0.061,2.226,0.002,3.336c-0.036,0.681-0.24,1.351-0.349,2.029c-0.082,0.51-0.448,0.847-0.721,1.238
				c-0.177,0.252-0.505,0.176-0.645-0.13c-0.344-0.751-0.632-1.514-0.648-2.361c-0.025-1.289-0.106-2.577-0.111-3.866
				C40.703,10,40.768,9.002,40.829,8.006c0.021-0.346,0.082-0.699,0.195-1.024c0.061-0.177,0.257-0.319,0.417-0.445
				c0.152-0.12,0.336-0.199,0.506-0.297C42.051,6.24,42.156,6.24,42.26,6.24z M41.933,15.683c0.062-2.125,0.19-4.255-0.155-6.373
				C41.69,11.436,41.592,13.562,41.933,15.683z"/>
			<path d="M9.337,35.658c0.243-0.359,0.643-0.304,0.994-0.37c0.1-0.019,0.207-0.003,0.321-0.061
				c-0.182-0.035-0.363-0.07-0.544-0.105c-0.01-0.023-0.019-0.045-0.029-0.068c0.332-0.131,0.659-0.361,0.996-0.375
				c1.203-0.049,2.409-0.046,3.613-0.018c0.69,0.016,1.385,0.084,2.066,0.194c0.685,0.111,1.367,0.269,2.03,0.474
				c0.412,0.128,0.788,0.374,0.819,0.899c0.019,0.321-0.14,0.535-0.42,0.609c-0.495,0.132-0.999,0.273-1.506,0.307
				c-0.943,0.064-1.893,0.099-2.837,0.065c-1.631-0.058-3.254-0.215-4.797-0.814c-0.291-0.113-0.548-0.268-0.706-0.551
				C9.337,35.783,9.337,35.72,9.337,35.658z M18.195,36.277c0.002-0.039,0.004-0.078,0.006-0.118
				c-0.512-0.102-1.022-0.227-1.538-0.3c-0.766-0.108-1.537-0.187-2.307-0.264c-0.566-0.057-1.135-0.098-1.703-0.132
				c-0.636-0.039-1.274-0.281-1.907,0.063c-0.216,0.117-0.478,0.15-0.719,0.222c0.001,0.036,0.003,0.071,0.004,0.107
				C12.72,36.61,15.449,36.617,18.195,36.277z"/>
			<path d="M56.762,50.295c0.321,0.114,0.592,0.18,0.836,0.301c1.278,0.634,2.5,1.36,3.571,2.315
				c0.736,0.656,1.471,1.316,2.179,2.002c0.294,0.285,0.534,0.631,0.767,0.971c0.1,0.145,0.157,0.341,0.17,0.518
				c0.033,0.47-0.334,0.78-0.781,0.625c-0.676-0.234-1.355-0.478-1.992-0.798c-1.289-0.648-2.452-1.486-3.51-2.474
				c-0.342-0.32-0.776-0.539-1.153-0.824c-0.487-0.369-0.968-0.75-1.158-1.372c-0.088-0.289,0.039-0.59,0.297-0.737
				c0.093-0.053,0.17-0.133,0.259-0.193C56.416,50.515,56.589,50.406,56.762,50.295z M58.001,52.388
				c0.305,0.718,4.066,3.524,5.014,3.58C62.032,54.705,59.069,52.784,58.001,52.388z"/>
			<path d="M20.728,20.871c-0.06-0.133-0.094-0.208-0.164-0.364c0.3,0.015,0.566-0.028,0.792,0.048
				c1.769,0.596,3.246,1.586,4.216,3.229c0.249,0.422,0.427,0.866,0.351,1.375c-0.053,0.358-0.294,0.579-0.66,0.61
				c-0.7,0.06-1.316-0.215-1.919-0.504c-1.506-0.721-2.863-1.68-4.127-2.758c-0.537-0.458-0.964-1.049-1.425-1.594
				c-0.108-0.127-0.164-0.305-0.221-0.468c-0.081-0.23-0.073-0.486,0.136-0.619c0.174-0.111,0.453-0.22,0.615-0.155
				c0.653,0.262,1.281,0.588,1.915,0.898C20.392,20.645,20.531,20.749,20.728,20.871z M25.05,24.902
				c-0.49-1.318-1.467-2.138-2.603-2.81c0.164,0.18,0.358,0.328,0.537,0.493c0.474,0.436,0.948,0.873,1.407,1.326
				c0.069,0.068,0.056,0.218,0.081,0.329c-0.102-0.028-0.226-0.028-0.303-0.089c-0.555-0.434-1.088-0.896-1.652-1.317
				c-1.125-0.842-2.3-1.605-3.597-2.162c-0.116-0.05-0.243-0.073-0.401-0.119C19.316,22.042,23.909,25.091,25.05,24.902z"/>
			<path d="M62.356,17.011c-0.057,0.703-0.375,1.304-0.789,1.848c-1.049,1.379-2.312,2.522-3.873,3.295
				c-0.415,0.206-0.885,0.356-1.343,0.403c-0.605,0.061-0.998-0.509-0.745-1.059c0.2-0.436,0.465-0.859,0.774-1.226
				c1-1.188,2.164-2.211,3.363-3.192c0.375-0.307,0.774-0.585,1.15-0.892c0.347-0.284,0.719-0.232,1.043-0.031
				C62.221,16.334,62.384,16.641,62.356,17.011z M61.35,16.917c-1.774,1.449-3.475,2.845-4.743,4.688
				c0.073,0.02,0.125,0.015,0.166-0.009c0.609-0.361,1.238-0.693,1.818-1.095c0.937-0.649,1.708-1.477,2.337-2.426
				C61.135,17.761,61.343,17.424,61.35,16.917z"/>
			<path d="M27.211,53.021c-0.216,1.221-0.751,2.243-1.694,3.05c-0.609,0.522-1.267,0.954-2.033,1.197
				c-0.22,0.069-0.475,0.122-0.693,0.079c-0.503-0.099-0.755-0.582-0.494-1.077c0.275-0.521,0.614-1.048,1.047-1.436
				c0.844-0.758,1.772-1.421,2.666-2.124c0.056-0.044,0.123-0.081,0.162-0.136c0.257-0.365,0.731-0.427,1.101-0.137
				C27.594,52.689,27.57,52.867,27.211,53.021z M23.19,56.366c1.037-0.246,2.558-1.709,2.643-2.538
				C24.895,54.618,23.921,55.317,23.19,56.366z"/>
			<path d="M62.801,40.219c0.627,0.031,1.275-0.017,1.784,0.394c0.255,0.206,0.429,0.534,0.587,0.834
				c0.111,0.21-0.038,0.421-0.225,0.514c-0.281,0.139-0.581,0.269-0.887,0.32c-0.898,0.151-1.796,0.081-2.68-0.122
				c-0.359-0.082-0.715-0.214-0.895-0.591c-0.172-0.358-0.08-0.705,0.266-0.908C61.388,40.286,62.099,40.245,62.801,40.219z
				 M61.967,41.318c0.723,0.16,1.447,0.235,2.178,0.05C63.423,41.162,62.696,41.198,61.967,41.318z"/>
			<path d="M44.289,15.304c0.05-0.58,0.103-1.23,0.167-1.878c0.011-0.109,0.051-0.224,0.109-0.317
				c0.123-0.2,0.268-0.371,0.162-0.646c-0.025-0.064,0.173-0.283,0.3-0.321c0.235-0.07,0.501-0.023,0.606,0.241
				c0.131,0.331,0.285,0.677,0.304,1.023c0.057,1.024,0.048,2.053-0.246,3.048c-0.066,0.222-0.204,0.469-0.385,0.602
				c-0.348,0.256-0.816,0.056-0.898-0.381C44.328,16.25,44.329,15.812,44.289,15.304z"/>
			<path d="M15.445,40.304c-0.126-0.024-0.324-0.038-0.506-0.1c-0.281-0.095-0.433-0.334-0.456-0.609
				c-0.021-0.254,0.142-0.469,0.379-0.553c0.527-0.186,1.057-0.377,1.602-0.493c0.448-0.096,0.918-0.093,1.379-0.126
				c0.332-0.024,0.579,0.437,0.381,0.759c-0.108,0.176-0.285,0.329-0.463,0.44C17.076,40.048,16.318,40.249,15.445,40.304z"/>
			<path d="M60.854,34.346c-0.289-0.072-0.501-0.166-0.561-0.437c-0.064-0.291,0.148-0.395,0.374-0.475
				c0.295-0.105,0.585-0.23,0.887-0.309c0.122-0.032,0.3-0.003,0.396,0.072c0.076,0.059,0.109,0.242,0.081,0.348
				c-0.037,0.139-0.126,0.305-0.243,0.372C61.491,34.086,61.167,34.206,60.854,34.346z"/>
			<path d="M44.211,46.714c0.522,0.268,1.059,0.417,1.6,0.256c0.291-0.087,0.575-0.312,0.779-0.547
				c0.168-0.193,0.325-0.291,0.549-0.238c0.231,0.054,0.338,0.245,0.311,0.476c-0.053,0.449-0.123,0.897-0.195,1.343
				c-0.118,0.73-0.241,1.46-0.365,2.189c-0.198,1.164-0.388,2.329-0.602,3.489c-0.083,0.452-0.22,0.894-0.34,1.338
				c-0.075,0.278-0.279,0.468-0.55,0.461c-0.188-0.005-0.421-0.119-0.541-0.262c-0.095-0.114-0.092-0.355-0.059-0.525
				c0.25-1.277,0.524-2.55,0.779-3.827c0.188-0.943,0.359-1.889,0.538-2.839c-0.906,0.083-1.782,0-2.59-0.478
				c-0.074-0.044-0.227-0.029-0.305,0.019c-0.824,0.507-1.72,0.679-2.672,0.604c-0.143-0.011-0.301-0.009-0.423-0.071
				c-0.341-0.176-0.627-0.075-0.956,0.065c-1.219,0.52-2.312,0.228-3.3-0.595c-0.047-0.039-0.089-0.083-0.196-0.184
				c0.035,0.206,0.054,0.336,0.08,0.465c0.207,1.066,0.418,2.131,0.622,3.197c0.141,0.735,0.28,1.47,0.406,2.208
				c0.068,0.395,0.124,0.794,0.152,1.193c0.024,0.339-0.182,0.566-0.49,0.608c-0.328,0.045-0.62-0.149-0.688-0.484
				c-0.057-0.282-0.084-0.569-0.127-0.854c-0.106-0.701-0.206-1.403-0.321-2.103c-0.137-0.83-0.278-1.659-0.433-2.485
				c-0.147-0.786-0.313-1.568-0.47-2.352c-0.032-0.161-0.069-0.323-0.089-0.486c-0.038-0.309,0.15-0.57,0.525-0.756
				c0.285-0.141,0.498-0.014,0.691,0.179c0.395,0.396,0.772,0.812,1.181,1.193c0.554,0.515,1.199,0.637,1.957,0.341
				c-0.103-0.151-0.196-0.29-0.291-0.427c-0.299-0.432-0.408-0.916-0.276-1.415c0.171-0.646,0.584-0.991,1.205-1.031
				c0.541-0.035,0.983,0.244,1.265,0.742c0.327,0.578,0.309,1.157,0.054,1.748c-0.036,0.084-0.08,0.164-0.134,0.272
				c0.757,0.13,1.427-0.041,2.048-0.424c0.055-0.034,0.063-0.198,0.043-0.292c-0.142-0.682-0.111-1.331,0.301-1.926
				c0.434-0.627,1.286-0.587,1.643,0.089c0.355,0.67,0.146,1.293-0.181,1.901C44.307,46.564,44.259,46.636,44.211,46.714z
				 M39.379,45.413c-0.309,0.354-0.235,0.827,0.15,1.065C39.781,46.025,39.741,45.712,39.379,45.413z"/>
		</g>
	</g>
	<path d="M36.498,55.427c0.36,0.011,0.574,0.203,0.566,0.509c-0.007,0.266-0.242,0.451-0.559,0.439
		c-0.322-0.013-0.576-0.249-0.565-0.527C35.95,55.555,36.135,55.416,36.498,55.427z"/>
</g>
</svg>
