<?xml version="1.0" encoding="utf-8"?>
<!-- Generator: Adobe Illustrator 17.0.0, SVG Export Plug-In . SVG Version: 6.00 Build 0)  -->
<!DOCTYPE svg PUBLIC "-//W3C//DTD SVG 1.1//EN" "http://www.w3.org/Graphics/SVG/1.1/DTD/svg11.dtd">
<svg version="1.1" id="Layer_1" xmlns="http://www.w3.org/2000/svg" xmlns:xlink="http://www.w3.org/1999/xlink" x="0px" y="0px"
	 width="80px" height="80px" viewBox="0 0 80 80" enable-background="new 0 0 80 80" xml:space="preserve">
<g id="TCJ0al_1_">
	<g>
		<path d="M6.274,48.595c0-7.235,0-14.469,0-21.704c0.019-0.069,0.05-0.136,0.054-0.206c0.014-0.205-0.016-0.418,0.031-0.614
			c0.275-1.144,1.669-2.304,2.841-2.36c0.73-0.035,1.461-0.056,2.192-0.057c3.778-0.005,7.555-0.001,11.333,0
			c0.31,0,0.621,0,0.949,0c0-0.16,0-0.277,0-0.393c0-4.266,0-8.532,0.001-12.797c0-0.249,0-0.499,0.014-0.748
			c0.021-0.368,0.344-0.575,0.882-0.575c15.549,0,31.099,0,46.648,0c0.383,0,0.766-0.003,1.15,0.001
			c0.446,0.004,0.682,0.199,0.788,0.628c0.022,0.089,0.077,0.17,0.118,0.255c0,10.4,0,20.8,0,31.199
			c-0.077,0.138-0.198,0.268-0.221,0.414c-0.073,0.464-0.254,0.646-0.727,0.646c-5.148-0.001-10.296-0.002-15.444-0.004
			c-0.704,0-1.408,0-2.139,0c0.018,0.124,0.021,0.22,0.047,0.31c0.38,1.356,0.755,2.714,1.148,4.066
			c0.502,1.725,1.028,3.443,1.524,5.17c0.155,0.54,0.484,1.065,0.243,1.668c-0.017,0.042-0.003,0.097,0.001,0.146
			c0.018,0.242,0.049,0.484,0.053,0.727c0.007,0.437-0.16,0.597-0.601,0.597c-1.848,0-3.695,0-5.543,0c-0.105,0-0.21,0-0.341,0
			c0,0.107,0,0.183,0,0.26c0,4.275,0,8.55,0,12.825c0,0.446,0.036,0.895-0.007,1.337c-0.108,1.132-1.138,2.151-2.315,2.273
			c-0.074,0.008-0.142,0.075-0.213,0.115c-4.128,0-8.257,0-12.385,0c-0.133-0.04-0.264-0.095-0.399-0.117
			c-0.881-0.144-1.545-0.592-1.758-1.476c-0.176-0.73-0.29-1.492-0.305-2.242c-0.04-2.122-0.017-4.244-0.013-6.367
			c0.005-2.847,0.016-5.694,0.024-8.541c0.001-0.296,0-0.592,0-0.898c-0.172,0-0.289,0-0.406,0c-7.801-0.001-15.603,0-23.404-0.006
			c-0.349,0-0.71-0.006-1.044-0.092c-1.067-0.274-1.74-1.041-2.228-1.967C6.577,49.609,6.452,49.088,6.274,48.595z M28.018,23.642
			c0.08,0.004,0.138,0.009,0.197,0.008c3.488-0.017,6.975-0.036,10.463-0.052c1.258-0.006,2.518,0.036,3.773-0.023
			c0.807-0.038,1.528,0.175,2.208,0.535c0.34,0.18,0.694,0.452,0.881,0.775c0.245,0.422,0.332,0.936,0.484,1.412
			c0.064,0.201,0.163,0.404,0.17,0.609c0.035,1.148,0.059,2.296,0.063,3.444c0.009,2.585,0.004,5.169,0.004,7.754
			c0,0.093,0,0.186,0,0.243c7.658,0,15.269,0,22.905,0c-0.03-8.365-0.06-16.682-0.09-25.008c-13.704,0-27.36,0-41.057,0
			C28.018,16.777,28.018,20.198,28.018,23.642z M11.109,27.379c0,0.117,0.001,0.214,0,0.31c-0.057,3.945,0.113,7.893-0.111,11.837
			c-0.065,1.145-0.057,2.296-0.063,3.444c-0.01,1.739,0.004,3.479-0.009,5.218c-0.002,0.289,0.084,0.355,0.363,0.355
			c7.44-0.007,14.879-0.006,22.319-0.006c0.104,0,0.208,0,0.329,0c0-0.54-0.021-1.041,0.005-1.54
			c0.029-0.559,0.026-1.123,0.229-1.664c0.229-0.608,0.513-1.191,1.152-1.426c0.438-0.161,0.927-0.235,1.396-0.253
			c1.001-0.037,2.004-0.013,3.007-0.013c0.145,0,0.289,0,0.474,0c0-5.476,0-10.922,0-16.374
			C30.498,27.477,20.824,27.294,11.109,27.379z M27.118,23.641c0.012-0.156,0.034-0.309,0.034-0.462
			c-0.004-2.442-0.008-4.884-0.019-7.326c-0.004-0.893-0.024-1.785-0.037-2.678c-0.005-0.39,0.213-0.685,0.652-0.681
			c1.662,0.014,3.324-0.01,4.985-0.013c1.886-0.004,3.772,0.003,5.657-0.001c2.08-0.005,4.16-0.026,6.24-0.025
			c1.945,0.001,3.89,0.03,5.835,0.031c1.728,0,3.456-0.033,5.184-0.031c1.901,0.003,3.803,0.037,5.704,0.045
			c1.975,0.008,3.951,0.002,5.926,0.002c0.696,0,1.392-0.002,2.088-0.004c0.383-0.001,0.738,0.352,0.729,0.777
			c-0.042,2.13-0.064,4.261-0.067,6.392c-0.008,5.924-0.004,11.847-0.004,17.771c0,0.268-0.028,0.541,0.014,0.802
			c0.099,0.608-0.189,0.977-0.803,0.977c-7.243-0.001-14.487-0.003-21.73-0.004c-0.409,0-0.818,0-1.225,0c0,0.651,0,1.262,0,1.836
			c8.557,0,17.088,0,25.62,0c0-10.244,0-20.443,0-30.671c-15.606,0-31.197,0-46.8,0c0,4.435,0,8.842,0,13.263
			C25.776,23.641,26.431,23.641,27.118,23.641z M33.931,49.536c-0.15,0-0.265,0.001-0.38,0c-2.027-0.011-4.054-0.028-6.08-0.031
			c-1.407-0.002-2.814,0.021-4.221,0.021c-1.162,0-2.325-0.023-3.487-0.026c-1.124-0.002-2.249,0.014-3.373,0.013
			c-0.978-0.001-1.956-0.017-2.933-0.022c-0.972-0.006-1.944-0.004-2.917-0.013c-0.388-0.003-0.604-0.222-0.607-0.593
			c-0.031-3.454,0.005-6.907-0.093-10.363c-0.109-3.796-0.015-7.598-0.035-11.397c-0.003-0.656,0.323-1.004,1.012-1.003
			c7.372,0.007,14.744-0.001,22.115,0.007c2.444,0.003,4.888,0.037,7.332,0.061c0.154,0.002,0.313,0.025,0.461,0.069
			c0.386,0.113,0.636,0.434,0.641,0.837c0.008,0.635-0.004,1.271,0,1.907c0.015,2.471,0.039,4.943,0.049,7.414
			c0.009,2.29,0.006,4.58,0.008,6.87c0,0.114,0,0.227,0,0.327c1.124,0,2.205,0,3.302,0c0-1.076,0-2.124,0-3.172
			c0.001-3.479,0.002-6.958,0.002-10.437c0-0.944-0.023-1.888,0.01-2.83c0.018-0.496-0.047-0.958-0.249-1.405
			c-0.043-0.095-0.069-0.236-0.144-0.273c-0.401-0.198-0.739-0.467-1.263-0.456c-1.735,0.037-3.472-0.032-5.208-0.035
			c-5.48-0.01-10.959-0.009-16.439-0.011c-3.086-0.001-6.173,0.004-9.259,0c-0.966-0.001-1.932-0.015-2.898-0.041
			c-0.359-0.01-0.657,0.1-0.873,0.371c-0.353,0.445-0.541,0.966-0.538,1.533c0.008,1.704,0.049,3.408,0.047,5.112
			c-0.003,2.599-0.037,5.198-0.046,7.798c-0.009,2.791,0.011,5.583-0.016,8.374c-0.006,0.643,0.185,1.184,0.535,1.688
			c0.427,0.616,0.905,0.981,1.779,0.976c7.745-0.047,15.49-0.028,23.235-0.028c0.108,0,0.229,0.025,0.32-0.016
			c0.086-0.039,0.192-0.145,0.198-0.228C33.945,50.223,33.931,49.908,33.931,49.536z M42.34,70.418c1.946,0,3.892,0.001,5.838,0
			c0.712-0.001,1.3-0.42,1.436-1.079c0.099-0.483,0.178-0.98,0.179-1.471c0.012-6.949,0.007-13.898,0.013-20.847
			c0-0.29,0.047-0.581,0.09-0.869c0.038-0.254-0.224-0.895-0.462-0.973c-0.382-0.126-0.775-0.248-1.172-0.287
			c-0.396-0.039-0.803,0.045-1.205,0.043c-3.557-0.015-7.113-0.037-10.67-0.053c-0.143-0.001-0.328-0.002-0.421,0.08
			c-0.355,0.313-0.655,0.691-0.668,1.186c-0.015,0.568,0.046,1.137,0.048,1.706c0.015,6.514,0.025,13.029,0.034,19.543
			c0.001,0.379-0.057,0.762-0.02,1.136c0.041,0.411,0.143,0.818,0.249,1.218c0.125,0.472,0.415,0.667,0.922,0.667
			C38.467,70.419,40.404,70.418,42.34,70.418z M56.848,52.833c-1.032-3.528-2.096-7.004-2.992-10.573c-2.499,0-5.034,0-7.599,0
			c0,0.431,0,0.867,0,1.315c0.012,0.002,0.049,0.016,0.088,0.017c0.839,0.037,1.679,0.055,2.516,0.116
			c0.507,0.037,0.994,0.198,1.388,0.536c0.716,0.615,1.014,1.432,1.021,2.35c0.015,1.984,0.005,3.969,0.005,5.954
			c0,0.094,0,0.187,0,0.285C53.142,52.833,54.968,52.833,56.848,52.833z M51.279,54.241c1.92,0,3.836,0,5.756,0
			c0-0.215,0-0.415,0-0.611c-1.93,0-3.84,0-5.756,0C51.279,53.838,51.279,54.025,51.279,54.241z"/>
		<path d="M42.944,36.27c0.699-0.049,1.211,0.439,1.241,1.075c0.036,0.766-0.552,1.397-1.254,1.398
			c-0.623,0.001-1.131-0.544-1.141-1.311C41.781,36.683,42.215,36.27,42.944,36.27z"/>
		<path d="M49.268,56.968c0,3.321,0,6.643,0,9.964c0,0.489-0.204,0.634-0.687,0.512c-0.157-0.04-0.329-0.034-0.494-0.033
			c-1.749,0.005-3.497,0.013-5.246,0.021c-1.172,0.005-2.344,0.019-3.516,0.017c-0.933-0.002-1.867-0.01-2.8-0.044
			c-0.383-0.014-0.568-0.32-0.491-0.698c0.021-0.104,0.024-0.214,0.024-0.321c0.001-2.565,0.009-5.129-0.001-7.694
			c-0.012-3.152-0.038-6.304-0.056-9.456c-0.004-0.782-0.003-1.564,0-2.345c0.001-0.379,0.231-0.558,0.602-0.489
			c0.105,0.019,0.215,0.013,0.323,0.013c3.302,0.003,6.603,0.004,9.905,0.011c0.647,0.001,1.294,0.032,1.94,0.045
			c0.347,0.007,0.497,0.162,0.497,0.533C49.268,50.325,49.268,53.646,49.268,56.968z M37.002,47.34
			c-0.058,6.47-0.134,12.876-0.116,19.287c3.882,0,7.679,0,11.447,0c0-6.452,0-12.886,0-19.287
			C44.53,47.34,40.781,47.34,37.002,47.34z"/>
		<path d="M42.871,69.944c-0.592,0.065-1.108-0.476-1.088-1.005c0.027-0.713,0.428-1.024,0.973-1.048
			c0.573-0.025,1.217,0.588,1.195,1.101C43.926,69.58,43.374,70.016,42.871,69.944z"/>
	</g>
</g>
<g id="_x30_N3O4X_1_">
	<g>
		<path fill="#FFFFFF" d="M63.651,26.315c-0.213-0.727-0.412-1.432-0.63-2.131c-0.072-0.23-0.166-0.466-0.304-0.661
			c-0.202-0.288-0.617-0.383-0.897-0.254c-0.27,0.124-0.432,0.476-0.375,0.827c0.043,0.261,0.092,0.521,0.141,0.781
			c0.125,0.662,0.252,1.324,0.382,2.003c-0.347,0.127-0.678,0.244-1.006,0.37c-1.025,0.391-2.055,0.77-3.07,1.185
			c-0.414,0.169-0.515,0.462-0.379,0.827c0.181,0.486,0.444,0.664,0.888,0.541c1.16-0.321,2.315-0.663,3.472-0.996
			c0.154-0.044,0.309-0.087,0.475-0.133c0.114,0.528,0.201,1.021,0.328,1.503c0.152,0.577,0.31,1.155,0.519,1.713
			c0.159,0.426,0.635,0.632,1.068,0.543c0.349-0.072,0.582-0.415,0.593-0.88c0.003-0.108,0.002-0.218-0.016-0.323
			c-0.062-0.377-0.13-0.753-0.201-1.129c-0.125-0.672-0.254-1.344-0.381-2.019c0.112-0.048,0.201-0.091,0.292-0.124
			c0.876-0.314,1.756-0.615,2.626-0.945c0.467-0.177,0.601-0.457,0.496-0.895c-0.123-0.514-0.466-0.822-0.926-0.761
			c-0.395,0.053-0.789,0.15-1.169,0.272C64.936,25.835,64.308,26.079,63.651,26.315z M53.869,20.811
			c0.944,0.721,1.867,1.427,2.807,2.146c0.305-0.372,0.606-0.739,0.932-1.136c-0.97-0.741-1.917-1.465-2.889-2.207
			C54.418,20.039,54.143,20.427,53.869,20.811z M17.872,30.535c-1.253,0.65-2.01,1.679-2.475,2.981
			c0.435,0.2,0.864,0.397,1.333,0.613c0.365-1.062,0.969-1.893,1.971-2.39C18.404,31.307,18.138,30.922,17.872,30.535z
			 M36.521,23.652c0.278-0.533,0.512-1.042,0.801-1.518c0.288-0.475,0.632-0.918,0.966-1.397c-0.375-0.289-0.752-0.579-1.126-0.867
			c-0.698,0.723-1.75,2.475-1.913,3.188C35.668,23.254,36.091,23.451,36.521,23.652z M15.946,41.43
			c0.82,1.089,1.885,1.761,3.164,2.172c0.183-0.448,0.363-0.885,0.556-1.356c-1.085-0.337-1.973-0.904-2.643-1.805
			C16.648,40.785,16.303,41.102,15.946,41.43z M20.083,31.474c1.179,0.163,2.307,0.319,3.452,0.478
			c0.091-0.461,0.182-0.916,0.274-1.384c-1.214-0.272-2.405-0.469-3.643-0.49C20.137,30.57,20.109,31.036,20.083,31.474z
			 M53.062,18.569c-1.131-0.518-2.219-1.017-3.332-1.527c-0.199,0.508-0.372,0.948-0.536,1.367c1.077,0.494,2.122,0.973,3.184,1.46
			C52.593,19.461,52.81,19.047,53.062,18.569z M29.093,31.718c-1.16-0.229-2.292-0.452-3.456-0.681
			c-0.105,0.45-0.213,0.912-0.334,1.429c1.206,0.238,2.373,0.469,3.573,0.706C28.953,32.647,29.023,32.184,29.093,31.718z
			 M30.082,41.742c-1.188,0.176-2.346,0.348-3.534,0.525c0.068,0.493,0.132,0.954,0.201,1.453c1.199-0.178,2.365-0.352,3.554-0.529
			C30.228,42.694,30.159,42.242,30.082,41.742z M33.137,29.802c-0.663,0.923-1.507,1.552-2.569,1.899
			c0.208,0.476,0.397,0.909,0.586,1.342c1.294-0.441,2.298-1.201,3.09-2.275C33.883,30.453,33.53,30.145,33.137,29.802z
			 M35.564,41.105c-1.24,0.112-2.425,0.219-3.631,0.328c0.071,0.536,0.132,1.005,0.192,1.455c1.192-0.108,2.341-0.212,3.505-0.317
			C35.609,42.099,35.588,41.642,35.564,41.105z M42.257,54.435c0.488-0.024,0.954-0.048,1.465-0.073
			c-0.075-1.208-0.148-2.387-0.223-3.603c-0.523,0.05-0.994,0.095-1.463,0.14C42.111,52.089,42.183,53.241,42.257,54.435z
			 M39.46,19.603c1.03-0.538,2.024-1.057,3.043-1.589c-0.157-0.397-0.331-0.836-0.507-1.278c-1.207,0.408-2.284,0.974-3.297,1.723
			C38.97,18.865,39.233,19.261,39.46,19.603z M24.754,42.514c-1.19,0-2.335,0-3.515,0c0,0.508,0,0.981,0,1.447
			c1.2,0,2.392,0,3.608,0C24.813,43.433,24.783,42.966,24.754,42.514z M37.728,41.325c-0.178,0.452-0.352,0.892-0.538,1.363
			c0.931,0.243,1.631,0.78,2.25,1.442c0.137,0.147,0.594,0.189,0.738,0.055c0.234-0.219,0.443-0.464,0.669-0.705
			C39.994,42.529,39.054,41.686,37.728,41.325z M58.001,24.236c0.581,0.53,1.178,1.076,1.795,1.64
			c0.275-0.261,0.619-0.589,0.993-0.944c-0.624-0.583-1.222-1.143-1.803-1.686C58.706,23.527,58.376,23.858,58.001,24.236z
			 M41.763,49.167c0.475-0.12,0.928-0.234,1.418-0.357c-0.179-0.639-0.348-1.25-0.526-1.858c-0.015-0.051-0.089-0.12-0.137-0.121
			c-0.474-0.009-0.949-0.006-1.429-0.006C41.319,47.625,41.537,48.384,41.763,49.167z M35.679,26.834
			c-0.493,0-0.943-0.003-1.393,0.005c-0.051,0.001-0.135,0.056-0.148,0.102c-0.132,0.478-0.253,0.96-0.383,1.462
			c0.479,0.132,0.936,0.257,1.414,0.389C35.343,28.127,35.507,27.496,35.679,26.834z"/>
		<path d="M45.506,60.922c-0.777-0.321-1.553-0.646-2.335-0.955c-0.085-0.033-0.224,0.007-0.312,0.057
			c-0.659,0.381-1.358,0.653-2.099,0.821c-0.055,0.012-0.114,0.01-0.252,0.021c0.609-1.876,1.637-3.477,2.67-5.149
			c0.937,1.711,1.868,3.361,2.387,5.204C45.545,60.922,45.525,60.922,45.506,60.922z"/>
		<path d="M45.919,16.276c0.599,0.082,1.197,0.165,1.844,0.254c-0.071,0.483-0.14,0.951-0.205,1.39
			c-1.151-0.075-2.285-0.148-3.479-0.226c0-0.403-0.004-0.841,0.006-1.279c0.001-0.047,0.081-0.093,0.124-0.139
			C44.778,16.276,45.348,16.276,45.919,16.276z"/>
		<path d="M14.896,36.387c0.03-0.248,0.06-0.497,0.094-0.781c0.469,0.026,0.935,0.052,1.441,0.079c0,1.141,0,2.27,0,3.445
			c-0.407,0.05-0.867,0.106-1.36,0.166c-0.061-0.417-0.118-0.808-0.175-1.199C14.896,37.528,14.896,36.957,14.896,36.387z"/>
		<path d="M63.651,26.315c0.656-0.236,1.285-0.48,1.926-0.687c0.38-0.123,0.774-0.22,1.169-0.272
			c0.46-0.061,0.803,0.247,0.926,0.761c0.105,0.437-0.029,0.718-0.496,0.895c-0.87,0.33-1.75,0.63-2.626,0.945
			c-0.092,0.033-0.18,0.076-0.292,0.124c0.128,0.676,0.256,1.347,0.381,2.019c0.07,0.376,0.138,0.752,0.201,1.129
			c0.018,0.106,0.018,0.216,0.016,0.323c-0.011,0.465-0.244,0.808-0.593,0.88c-0.433,0.09-0.908-0.116-1.068-0.543
			c-0.208-0.558-0.366-1.136-0.519-1.713c-0.127-0.482-0.215-0.974-0.328-1.503c-0.166,0.046-0.321,0.089-0.475,0.133
			c-1.157,0.333-2.312,0.675-3.472,0.996c-0.444,0.123-0.707-0.056-0.888-0.541c-0.136-0.365-0.035-0.658,0.379-0.827
			c1.015-0.415,2.045-0.794,3.07-1.185c0.328-0.125,0.659-0.242,1.006-0.37c-0.13-0.679-0.257-1.341-0.382-2.003
			c-0.049-0.26-0.098-0.52-0.141-0.781c-0.058-0.351,0.105-0.704,0.375-0.827c0.28-0.128,0.694-0.034,0.897,0.254
			c0.137,0.196,0.232,0.431,0.304,0.661C63.24,24.883,63.438,25.588,63.651,26.315z"/>
		<path d="M53.869,20.811c0.273-0.385,0.549-0.773,0.851-1.198c0.971,0.742,1.919,1.466,2.889,2.207
			c-0.326,0.397-0.627,0.764-0.932,1.136C55.736,22.238,54.813,21.533,53.869,20.811z"/>
		<path d="M17.872,30.535c0.266,0.387,0.531,0.772,0.829,1.204c-1.002,0.497-1.607,1.327-1.971,2.39
			c-0.469-0.215-0.898-0.413-1.333-0.613C15.863,32.214,16.62,31.185,17.872,30.535z"/>
		<path d="M36.521,23.652c-0.43-0.201-0.853-0.398-1.271-0.594c0.163-0.713,1.215-2.465,1.913-3.188
			c0.374,0.288,0.75,0.578,1.126,0.867c-0.335,0.479-0.678,0.921-0.966,1.397C37.034,22.61,36.799,23.119,36.521,23.652z"/>
		<path d="M15.946,41.43c0.357-0.328,0.702-0.645,1.077-0.989c0.67,0.9,1.558,1.467,2.643,1.805
			c-0.193,0.471-0.372,0.908-0.556,1.356C17.831,43.191,16.765,42.519,15.946,41.43z"/>
		<path d="M20.083,31.474c0.026-0.438,0.054-0.904,0.084-1.396c1.238,0.021,2.429,0.217,3.643,0.49
			c-0.093,0.468-0.183,0.923-0.274,1.384C22.389,31.794,21.261,31.637,20.083,31.474z"/>
		<path d="M53.062,18.569c-0.252,0.479-0.469,0.892-0.683,1.301c-1.063-0.487-2.108-0.967-3.184-1.46
			c0.164-0.419,0.337-0.86,0.536-1.367C50.843,17.552,51.931,18.051,53.062,18.569z"/>
		<path d="M29.093,31.718c-0.07,0.466-0.139,0.929-0.218,1.453c-1.2-0.237-2.366-0.467-3.573-0.706
			c0.121-0.517,0.229-0.978,0.334-1.429C26.8,31.266,27.933,31.489,29.093,31.718z"/>
		<path d="M30.082,41.742c0.076,0.5,0.146,0.952,0.222,1.449c-1.19,0.177-2.356,0.35-3.554,0.529
			c-0.069-0.498-0.133-0.96-0.201-1.453C27.736,42.09,28.894,41.918,30.082,41.742z"/>
		<path d="M33.137,29.802c0.393,0.343,0.746,0.651,1.106,0.966c-0.792,1.075-1.796,1.835-3.09,2.275
			c-0.189-0.434-0.378-0.866-0.586-1.342C31.631,31.354,32.474,30.725,33.137,29.802z"/>
		<path d="M35.564,41.105c0.024,0.537,0.044,0.994,0.065,1.466c-1.164,0.105-2.312,0.209-3.505,0.317
			c-0.059-0.45-0.121-0.919-0.192-1.455C33.139,41.324,34.325,41.217,35.564,41.105z"/>
		<path d="M42.257,54.435c-0.075-1.195-0.146-2.346-0.221-3.536c0.469-0.045,0.94-0.09,1.463-0.14
			c0.075,1.216,0.148,2.395,0.223,3.603C43.211,54.387,42.745,54.411,42.257,54.435z"/>
		<path d="M39.46,19.603c-0.227-0.342-0.49-0.738-0.76-1.144c1.014-0.749,2.09-1.315,3.297-1.723
			c0.175,0.442,0.349,0.881,0.507,1.278C41.485,18.546,40.491,19.065,39.46,19.603z"/>
		<path d="M24.754,42.514c0.029,0.452,0.059,0.919,0.092,1.447c-1.216,0-2.408,0-3.608,0c0-0.466,0-0.94,0-1.447
			C22.42,42.514,23.565,42.514,24.754,42.514z"/>
		<path d="M37.728,41.325c1.326,0.36,2.266,1.204,3.118,2.155c-0.226,0.241-0.435,0.486-0.669,0.705
			c-0.144,0.135-0.6,0.092-0.738-0.055c-0.619-0.662-1.32-1.199-2.25-1.442C37.376,42.217,37.55,41.777,37.728,41.325z"/>
		<path d="M58.001,24.236c0.375-0.377,0.704-0.709,0.985-0.991c0.582,0.544,1.18,1.103,1.803,1.686
			c-0.374,0.356-0.718,0.683-0.993,0.944C59.179,25.312,58.582,24.766,58.001,24.236z"/>
		<path d="M41.763,49.167c-0.225-0.783-0.444-1.542-0.674-2.342c0.48,0,0.955-0.004,1.429,0.006c0.048,0.001,0.122,0.07,0.137,0.121
			c0.178,0.609,0.347,1.22,0.526,1.858C42.691,48.933,42.238,49.047,41.763,49.167z"/>
		<path d="M35.679,26.834c-0.172,0.662-0.337,1.293-0.51,1.957c-0.479-0.132-0.935-0.257-1.414-0.389
			c0.13-0.502,0.251-0.983,0.383-1.462c0.013-0.046,0.096-0.101,0.148-0.102C34.736,26.831,35.187,26.834,35.679,26.834z"/>
	</g>
</g>
</svg>
