<?xml version="1.0" encoding="utf-8"?>
<!-- Generator: Adobe Illustrator 17.0.0, SVG Export Plug-In . SVG Version: 6.00 Build 0)  -->
<!DOCTYPE svg PUBLIC "-//W3C//DTD SVG 1.1//EN" "http://www.w3.org/Graphics/SVG/1.1/DTD/svg11.dtd">
<svg version="1.1" id="Layer_1" xmlns="http://www.w3.org/2000/svg" xmlns:xlink="http://www.w3.org/1999/xlink" x="0px" y="0px"
	 width="80px" height="80px" viewBox="0 0 80 80" enable-background="new 0 0 80 80" xml:space="preserve">
<path fill="#FFFFFF" d="M74.527,31.99c-0.18-0.554-0.7-0.933-1.283-0.933H48.741L41.156,7.764c-0.182-0.554-0.698-0.93-1.281-0.93
	c-0.582,0-1.101,0.374-1.281,0.928L30.968,31.06H6.504c-0.582,0-1.101,0.377-1.281,0.93c-0.179,0.554,0.018,1.165,0.488,1.508
	l19.795,14.419L17.88,71.344c-0.182,0.554,0.018,1.165,0.488,1.508c0.471,0.341,1.112,0.341,1.585,0L39.875,58.39l19.883,14.463
	c0.236,0.173,0.514,0.258,0.792,0.258s0.556-0.085,0.792-0.258c0.475-0.346,0.67-0.95,0.49-1.508L54.204,47.92l19.837-14.419
	C74.51,33.157,74.707,32.544,74.527,31.99z"/>
</svg>
