<?xml version="1.0" encoding="utf-8"?>
<!-- Generator: Adobe Illustrator 17.0.0, SVG Export Plug-In . SVG Version: 6.00 Build 0)  -->
<!DOCTYPE svg PUBLIC "-//W3C//DTD SVG 1.1//EN" "http://www.w3.org/Graphics/SVG/1.1/DTD/svg11.dtd">
<svg version="1.1" id="Layer_1" xmlns="http://www.w3.org/2000/svg" xmlns:xlink="http://www.w3.org/1999/xlink" x="0px" y="0px"
	 width="80px" height="80px" viewBox="0 0 80 80" enable-background="new 0 0 80 80" xml:space="preserve">
<g>
	
		<ellipse transform="matrix(0.9755 -0.2198 0.2198 0.9755 -10.4421 3.9287)" fill="#FFFFFF" cx="12.432" cy="48.884" rx="3.269" ry="2.532"/>
	
		<ellipse transform="matrix(-0.2197 -0.9756 0.9756 -0.2197 -31.365 80.6243)" fill="#FFFFFF" cx="16.561" cy="52.856" rx="1.442" ry="1.861"/>
	<path fill="#FFFFFF" d="M24.967,28.601c-0.873-2.262-3.697-3.921-7.049-3.921c-2.457,0-4.63,0.892-5.96,2.258
		c-0.062-0.001-0.123-0.004-0.184-0.004c-5.157,0-9.337,3.369-9.337,7.525c0,2.474,1.481,4.669,3.767,6.04
		c0.321,2.6,3.019,4.629,6.299,4.629c0.791,0,1.547-0.119,2.245-0.334c1.264,0.743,2.803,1.18,4.464,1.18
		c3.779,0,6.929-2.257,7.637-5.25c2.335-1.054,3.941-3.245,3.941-5.779C30.789,31.776,28.277,29.143,24.967,28.601z M8.706,37.98
		c-0.162,0.029-0.355,0.043-0.577,0.043c-0.547,0-0.962-0.124-1.245-0.372c-0.283-0.248-0.412-0.661-0.386-1.24l0.067-1.688
		l-0.668-0.114l0.029-0.935l0.668-0.219l0.019-1.011h1.421l-0.009,1.059h1.106l-0.029,1.154H7.919l-0.048,1.593
		c-0.013,0.204,0.035,0.351,0.143,0.443c0.108,0.092,0.254,0.138,0.439,0.138c0.089,0,0.183-0.011,0.281-0.033
		c0.098-0.022,0.199-0.049,0.3-0.081l0.172,1.145C9.035,37.912,8.868,37.952,8.706,37.98z M14.214,37.88h-1.478v-2.623
		c0-0.267-0.055-0.451-0.165-0.553c-0.11-0.102-0.256-0.153-0.438-0.153c-0.169,0-0.323,0.033-0.461,0.1
		c-0.138,0.067-0.254,0.145-0.348,0.234v2.995H9.846v-6.305l1.478-0.181l-0.01,2.661c0.196-0.222,0.42-0.404,0.673-0.544
		c0.253-0.14,0.524-0.21,0.815-0.21c0.442,0,0.787,0.135,1.037,0.405c0.25,0.27,0.374,0.644,0.374,1.121V37.88z M16.618,37.88
		h-1.478v-4.359l1.478-0.181V37.88z M16.513,32.615c-0.153,0.134-0.366,0.2-0.639,0.2c-0.267,0-0.479-0.067-0.634-0.2
		c-0.156-0.134-0.234-0.327-0.234-0.582c0-0.261,0.078-0.458,0.234-0.591c0.156-0.134,0.367-0.2,0.634-0.2
		c0.273,0,0.487,0.067,0.639,0.2c0.153,0.134,0.229,0.331,0.229,0.591C16.742,32.288,16.665,32.482,16.513,32.615z M21.93,37.88
		h-1.478v-2.623c0-0.267-0.055-0.451-0.165-0.553c-0.11-0.102-0.262-0.153-0.456-0.153c-0.163,0-0.312,0.033-0.447,0.1
		c-0.135,0.067-0.25,0.145-0.344,0.234v2.995h-1.478v-4.359l1.478-0.181l-0.01,0.725c0.196-0.223,0.42-0.405,0.673-0.548
		c0.253-0.143,0.521-0.215,0.806-0.215c0.448,0,0.797,0.135,1.047,0.405c0.25,0.27,0.374,0.644,0.374,1.121V37.88z M25.726,37.88
		l-1.383-2.079h-0.01v2.079h-1.478v-6.305l1.478-0.181v3.958h0.01l1.354-1.908h1.688l-1.631,2.108l1.64,2.327H25.726z"/>
	<path fill="#FFFFFF" d="M36.93,34.307c-0.149-0.181-0.329-0.32-0.539-0.418c-0.21-0.098-0.438-0.147-0.685-0.147
		c-0.259,0-0.48,0.057-0.664,0.172c-0.184,0.115-0.339,0.239-0.465,0.371l0.009-2.267l-1.336,0.164v5.828l1.25-0.172
		c0.132,0.046,0.283,0.085,0.453,0.116c0.169,0.032,0.32,0.047,0.453,0.047c0.27,0,0.527-0.05,0.772-0.151
		c0.244-0.1,0.458-0.246,0.642-0.435c0.184-0.19,0.329-0.418,0.435-0.685c0.106-0.267,0.16-0.568,0.16-0.901
		c0-0.322-0.043-0.611-0.129-0.866C37.197,34.706,37.079,34.488,36.93,34.307z M35.846,36.703c-0.153,0.204-0.372,0.306-0.656,0.306
		c-0.239,0-0.44-0.055-0.605-0.164v-1.767c0.091-0.08,0.187-0.147,0.29-0.198c0.102-0.052,0.227-0.078,0.375-0.078
		c0.273,0,0.479,0.096,0.618,0.289c0.139,0.193,0.209,0.461,0.209,0.806C36.076,36.231,36,36.499,35.846,36.703z"/>
	<path fill="#FFFFFF" d="M39.387,34.363v-0.586L38.05,33.94v3.94h1.336v-2.336c0.121-0.213,0.253-0.363,0.397-0.453
		c0.144-0.089,0.299-0.134,0.465-0.134c0.172,0,0.339,0.04,0.5,0.121l0.267-1.172c-0.213-0.109-0.434-0.164-0.664-0.164
		C39.944,33.742,39.622,33.949,39.387,34.363z"/>
	<path fill="#FFFFFF" d="M44.818,34.298c-0.19-0.181-0.414-0.319-0.672-0.414c-0.259-0.095-0.54-0.142-0.845-0.142
		c-0.305,0-0.589,0.047-0.853,0.142c-0.264,0.095-0.496,0.234-0.694,0.418c-0.198,0.184-0.354,0.409-0.466,0.677
		c-0.112,0.267-0.168,0.57-0.168,0.909c0,0.339,0.055,0.641,0.164,0.905c0.109,0.264,0.258,0.487,0.448,0.668
		c0.19,0.181,0.415,0.318,0.677,0.409c0.261,0.092,0.542,0.138,0.84,0.138c0.299,0,0.58-0.049,0.845-0.147
		c0.264-0.098,0.494-0.238,0.69-0.422c0.195-0.184,0.351-0.409,0.466-0.677c0.115-0.267,0.172-0.568,0.172-0.901
		c0-0.339-0.053-0.639-0.159-0.901C45.155,34.7,45.007,34.479,44.818,34.298z M43.895,36.692c-0.138,0.2-0.345,0.301-0.621,0.301
		c-0.276,0-0.484-0.099-0.625-0.296c-0.141-0.197-0.211-0.468-0.211-0.812c0-0.343,0.069-0.617,0.207-0.82
		c0.138-0.203,0.345-0.305,0.621-0.305c0.276,0,0.484,0.102,0.625,0.305c0.141,0.203,0.211,0.474,0.211,0.811
		C44.102,36.219,44.033,36.491,43.895,36.692z"/>
	<polygon fill="#FFFFFF" points="50.292,36.492 49.602,33.871 48.214,33.871 47.533,36.535 46.99,33.871 45.645,33.871 
		46.775,37.897 48.119,37.897 48.887,35.259 49.654,37.897 50.999,37.897 52.137,33.871 50.757,33.871 	"/>
	<path fill="#FFFFFF" d="M55.249,33.742c-0.257,0-0.5,0.065-0.728,0.194c-0.228,0.129-0.431,0.295-0.608,0.496l0.009-0.655
		l-1.336,0.164v3.94h1.336v-2.707c0.085-0.08,0.188-0.151,0.311-0.211c0.122-0.06,0.256-0.09,0.404-0.09
		c0.176,0,0.313,0.046,0.413,0.138c0.099,0.092,0.149,0.259,0.149,0.5v2.371h1.336v-2.759c0-0.431-0.113-0.769-0.338-1.013
		C55.969,33.864,55.654,33.742,55.249,33.742z"/>
	<path fill="#FFFFFF" d="M60.22,35.807c-0.129-0.1-0.286-0.185-0.473-0.254c-0.186-0.069-0.396-0.129-0.631-0.181
		c-0.218-0.046-0.387-0.096-0.507-0.151c-0.12-0.055-0.18-0.136-0.18-0.246c0-0.201,0.163-0.302,0.489-0.302
		c0.189,0,0.408,0.032,0.657,0.095c0.249,0.063,0.488,0.152,0.717,0.267l0.266-0.948c-0.098-0.046-0.213-0.09-0.345-0.134
		c-0.132-0.043-0.272-0.08-0.418-0.112c-0.147-0.032-0.294-0.056-0.444-0.073c-0.149-0.017-0.29-0.026-0.422-0.026
		c-0.276,0-0.524,0.032-0.746,0.095c-0.221,0.063-0.407,0.152-0.556,0.267c-0.15,0.115-0.265,0.25-0.345,0.405
		c-0.081,0.155-0.121,0.328-0.121,0.517c0,0.196,0.036,0.365,0.108,0.509c0.072,0.144,0.174,0.267,0.306,0.371
		c0.132,0.103,0.293,0.19,0.483,0.259c0.19,0.069,0.399,0.126,0.629,0.172c0.23,0.052,0.401,0.105,0.513,0.16
		c0.112,0.055,0.168,0.139,0.168,0.254c0,0.219-0.181,0.328-0.543,0.328c-0.236,0-0.48-0.033-0.733-0.099
		c-0.253-0.066-0.497-0.159-0.733-0.28l-0.259,0.957c0.103,0.058,0.226,0.108,0.366,0.151c0.141,0.043,0.286,0.08,0.435,0.112
		c0.149,0.032,0.302,0.055,0.457,0.069c0.155,0.014,0.302,0.022,0.44,0.022c0.293,0,0.553-0.034,0.78-0.103
		c0.227-0.069,0.418-0.164,0.573-0.285c0.155-0.121,0.272-0.261,0.349-0.422c0.077-0.161,0.116-0.33,0.116-0.509
		c0-0.201-0.034-0.374-0.103-0.517C60.448,36.03,60.349,35.907,60.22,35.807z"/>
	<path fill="#FFFFFF" d="M63.408,36.902c-0.089,0.02-0.174,0.03-0.254,0.03c-0.167,0-0.299-0.042-0.397-0.125
		c-0.098-0.083-0.141-0.217-0.129-0.401l0.043-1.44h1.069l0.026-1.043h-1l0.009-0.957H61.49l-0.018,0.914l-0.603,0.198l-0.026,0.845
		l0.603,0.103l-0.06,1.526c-0.023,0.523,0.093,0.897,0.349,1.121c0.256,0.224,0.631,0.336,1.125,0.336
		c0.201,0,0.375-0.013,0.522-0.039c0.147-0.026,0.297-0.062,0.452-0.108l-0.155-1.034C63.588,36.857,63.497,36.882,63.408,36.902z"
		/>
	<path fill="#FFFFFF" d="M67.852,34.298c-0.19-0.181-0.414-0.319-0.672-0.414c-0.259-0.095-0.54-0.142-0.845-0.142
		c-0.305,0-0.589,0.047-0.853,0.142c-0.265,0.095-0.496,0.234-0.694,0.418c-0.198,0.184-0.353,0.409-0.465,0.677
		c-0.112,0.267-0.168,0.57-0.168,0.909c0,0.339,0.054,0.641,0.164,0.905c0.109,0.264,0.259,0.487,0.448,0.668
		c0.19,0.181,0.415,0.318,0.677,0.409c0.261,0.092,0.542,0.138,0.84,0.138c0.299,0,0.581-0.049,0.845-0.147
		c0.264-0.098,0.494-0.238,0.69-0.422c0.195-0.184,0.35-0.409,0.465-0.677c0.115-0.267,0.173-0.568,0.173-0.901
		c0-0.339-0.053-0.639-0.16-0.901C68.189,34.7,68.042,34.479,67.852,34.298z M66.93,36.692c-0.138,0.2-0.345,0.301-0.62,0.301
		c-0.276,0-0.484-0.099-0.625-0.296c-0.141-0.197-0.211-0.468-0.211-0.812c0-0.343,0.069-0.617,0.207-0.82
		c0.138-0.203,0.345-0.305,0.621-0.305c0.276,0,0.484,0.102,0.625,0.305c0.141,0.203,0.211,0.474,0.211,0.811
		C67.137,36.219,67.067,36.491,66.93,36.692z"/>
	<path fill="#FFFFFF" d="M71.766,33.742c-0.257,0-0.5,0.065-0.728,0.194c-0.228,0.129-0.431,0.295-0.608,0.496l0.009-0.655
		l-1.336,0.164v3.94h1.336v-2.707c0.085-0.08,0.188-0.151,0.311-0.211c0.122-0.06,0.257-0.09,0.404-0.09
		c0.176,0,0.313,0.046,0.413,0.138c0.099,0.092,0.149,0.259,0.149,0.5v2.371h1.336v-2.759c0-0.431-0.113-0.769-0.339-1.013
		C72.486,33.864,72.171,33.742,71.766,33.742z"/>
	<path fill="#FFFFFF" d="M77.149,34.208c-0.302-0.31-0.737-0.466-1.306-0.466c-0.316,0-0.608,0.052-0.875,0.155
		c-0.267,0.103-0.497,0.249-0.69,0.435c-0.193,0.187-0.342,0.414-0.449,0.681c-0.106,0.267-0.159,0.565-0.159,0.892
		c0,0.333,0.053,0.631,0.159,0.892c0.106,0.262,0.257,0.481,0.453,0.659c0.195,0.178,0.431,0.313,0.707,0.405
		c0.276,0.092,0.583,0.138,0.922,0.138c0.293,0,0.576-0.029,0.849-0.086c0.273-0.057,0.51-0.138,0.711-0.241l-0.129-1.026
		c-0.201,0.115-0.415,0.208-0.642,0.28c-0.227,0.072-0.45,0.108-0.668,0.108c-0.328,0-0.581-0.073-0.759-0.22
		c-0.178-0.147-0.279-0.355-0.302-0.625v-0.017l2.543-0.043c0.029-0.086,0.05-0.198,0.064-0.336
		c0.014-0.138,0.021-0.261,0.021-0.371C77.602,34.923,77.451,34.518,77.149,34.208z M76.369,35.501l-1.388,0.009
		c0.023-0.23,0.1-0.43,0.233-0.599c0.132-0.169,0.313-0.254,0.543-0.254c0.207,0,0.36,0.068,0.461,0.203
		c0.101,0.135,0.151,0.323,0.151,0.565V35.501z"/>
</g>
</svg>
