<?xml version="1.0" encoding="utf-8"?>
<!-- Generator: Adobe Illustrator 15.1.0, SVG Export Plug-In . SVG Version: 6.00 Build 0)  -->
<!DOCTYPE svg PUBLIC "-//W3C//DTD SVG 1.1//EN" "http://www.w3.org/Graphics/SVG/1.1/DTD/svg11.dtd">
<svg version="1.1" id="Layer_1" xmlns="http://www.w3.org/2000/svg" xmlns:xlink="http://www.w3.org/1999/xlink" x="0px" y="0px"
	 width="80px" height="80px" viewBox="0 0 80 80" enable-background="new 0 0 80 80" xml:space="preserve">
<g>
	<g>
		<path fill="#FFFFFF" d="M14.315,47.341c-0.316-1.415-2.038-2.229-3.847-1.817c-1.809,0.411-3.02,1.894-2.704,3.309
			c0.315,1.414,2.038,2.229,3.847,1.816C13.42,50.237,14.631,48.756,14.315,47.341z M14.955,50.747
			c-1.03,0.234-1.72,1.077-1.54,1.883c0.179,0.807,1.161,1.269,2.19,1.034c1.03-0.233,1.72-1.077,1.54-1.883
			S15.984,50.512,14.955,50.747z M36.202,32.963c-0.153-0.188-0.338-0.333-0.553-0.434c-0.215-0.102-0.45-0.152-0.704-0.152
			c-0.266,0-0.493,0.06-0.682,0.178c-0.189,0.12-0.349,0.247-0.478,0.385l0.009-2.352l-1.372,0.17v6.045l1.284-0.179
			c0.136,0.048,0.291,0.088,0.465,0.12c0.174,0.033,0.329,0.05,0.465,0.05c0.277,0,0.542-0.052,0.792-0.156
			c0.25-0.104,0.471-0.255,0.66-0.452c0.188-0.197,0.337-0.434,0.447-0.711s0.164-0.589,0.164-0.935
			c0-0.334-0.044-0.633-0.133-0.898C36.477,33.377,36.355,33.15,36.202,32.963z M35.089,35.449
			c-0.158,0.212-0.382,0.318-0.675,0.318c-0.245,0-0.452-0.057-0.621-0.17v-1.833c0.093-0.083,0.192-0.152,0.297-0.206
			c0.105-0.053,0.234-0.08,0.386-0.08c0.28,0,0.491,0.1,0.634,0.299s0.214,0.479,0.214,0.836
			C35.325,34.959,35.247,35.237,35.089,35.449z M38.726,33.021v-0.608l-1.373,0.169v4.088h1.373v-2.424
			c0.124-0.221,0.259-0.377,0.407-0.47c0.147-0.092,0.307-0.139,0.478-0.139c0.178,0,0.349,0.042,0.514,0.125l0.274-1.216
			c-0.218-0.113-0.445-0.169-0.681-0.169C39.298,32.377,38.967,32.592,38.726,33.021z M44.304,32.954
			c-0.194-0.188-0.425-0.33-0.69-0.429c-0.266-0.098-0.555-0.147-0.868-0.147c-0.312,0-0.604,0.049-0.876,0.147
			c-0.271,0.099-0.509,0.244-0.713,0.434c-0.204,0.191-0.363,0.425-0.479,0.703c-0.115,0.277-0.172,0.591-0.172,0.943
			c0,0.352,0.056,0.666,0.168,0.939s0.265,0.505,0.46,0.693c0.194,0.188,0.426,0.33,0.695,0.425
			c0.269,0.096,0.557,0.143,0.863,0.143s0.597-0.05,0.867-0.152c0.272-0.102,0.508-0.247,0.709-0.438
			c0.201-0.19,0.359-0.424,0.479-0.702c0.118-0.277,0.177-0.589,0.177-0.935c0-0.352-0.055-0.664-0.164-0.934
			C44.65,33.371,44.499,33.142,44.304,32.954z M43.356,35.437c-0.142,0.208-0.354,0.312-0.638,0.312s-0.497-0.103-0.641-0.307
			c-0.146-0.206-0.219-0.486-0.219-0.842c0-0.357,0.071-0.64,0.213-0.851c0.142-0.211,0.354-0.316,0.638-0.316
			s0.497,0.105,0.642,0.316c0.146,0.21,0.218,0.491,0.218,0.841C43.569,34.947,43.498,35.229,43.356,35.437z M49.927,35.229
			l-0.709-2.719h-1.425l-0.699,2.763l-0.558-2.763h-1.382l1.159,4.177h1.382l0.788-2.737l0.788,2.737h1.381l1.17-4.177h-1.418
			L49.927,35.229z M55.018,32.377c-0.264,0-0.513,0.066-0.747,0.201c-0.234,0.134-0.443,0.306-0.625,0.514l0.01-0.679l-1.374,0.169
			v4.088h1.374v-2.809c0.086-0.083,0.192-0.157,0.318-0.219c0.125-0.063,0.264-0.094,0.415-0.094c0.18,0,0.321,0.048,0.423,0.143
			c0.103,0.095,0.153,0.268,0.153,0.519v2.459h1.372v-2.862c0-0.448-0.115-0.797-0.348-1.051
			C55.758,32.503,55.434,32.377,55.018,32.377z M60.124,34.519c-0.132-0.104-0.293-0.192-0.484-0.264
			c-0.191-0.071-0.407-0.134-0.648-0.188c-0.224-0.047-0.397-0.099-0.521-0.156c-0.124-0.057-0.186-0.141-0.186-0.255
			c0-0.208,0.167-0.312,0.503-0.312c0.193,0,0.419,0.033,0.675,0.098c0.255,0.065,0.502,0.158,0.736,0.276l0.273-0.983
			c-0.101-0.047-0.219-0.094-0.354-0.139c-0.137-0.044-0.279-0.083-0.429-0.116c-0.151-0.033-0.303-0.059-0.457-0.076
			c-0.153-0.018-0.298-0.026-0.434-0.026c-0.283,0-0.539,0.032-0.766,0.098c-0.229,0.066-0.418,0.158-0.571,0.277
			c-0.153,0.12-0.271,0.259-0.354,0.42c-0.082,0.161-0.124,0.34-0.124,0.536c0,0.204,0.037,0.379,0.111,0.528
			c0.073,0.149,0.179,0.277,0.313,0.384c0.136,0.107,0.301,0.197,0.497,0.269c0.194,0.071,0.409,0.131,0.646,0.179
			c0.235,0.053,0.411,0.109,0.525,0.166c0.115,0.057,0.174,0.145,0.174,0.264c0,0.227-0.187,0.339-0.559,0.339
			c-0.242,0-0.493-0.034-0.753-0.103c-0.259-0.069-0.511-0.165-0.752-0.291l-0.266,0.993c0.106,0.06,0.231,0.112,0.377,0.156
			c0.144,0.045,0.293,0.083,0.446,0.116s0.311,0.057,0.47,0.071c0.159,0.016,0.31,0.022,0.452,0.022
			c0.301,0,0.567-0.036,0.801-0.107c0.232-0.072,0.43-0.17,0.588-0.294c0.16-0.126,0.28-0.272,0.359-0.439s0.119-0.343,0.119-0.528
			c0-0.208-0.034-0.387-0.105-0.536C60.357,34.75,60.257,34.624,60.124,34.519z M63.399,35.655
			c-0.092,0.021-0.179,0.032-0.262,0.032c-0.172,0-0.307-0.043-0.407-0.13c-0.102-0.086-0.145-0.225-0.133-0.416l0.044-1.494h1.098
			l0.026-1.083h-1.026l0.009-0.992h-1.319l-0.018,0.948l-0.62,0.206l-0.026,0.876l0.62,0.107l-0.062,1.584
			c-0.023,0.542,0.096,0.93,0.359,1.162c0.262,0.232,0.646,0.349,1.154,0.349c0.207,0,0.386-0.013,0.536-0.04
			c0.151-0.027,0.306-0.064,0.465-0.112l-0.159-1.073C63.584,35.608,63.489,35.634,63.399,35.655z M67.963,32.954
			c-0.194-0.188-0.425-0.33-0.689-0.429c-0.267-0.098-0.556-0.147-0.868-0.147s-0.605,0.049-0.877,0.147
			c-0.271,0.099-0.51,0.244-0.712,0.434c-0.204,0.191-0.363,0.425-0.479,0.703c-0.115,0.277-0.173,0.591-0.173,0.943
			c0,0.352,0.056,0.666,0.168,0.939s0.266,0.505,0.461,0.693c0.194,0.188,0.426,0.33,0.694,0.425
			c0.269,0.096,0.557,0.143,0.863,0.143s0.598-0.05,0.868-0.152c0.271-0.102,0.508-0.247,0.709-0.438
			c0.199-0.19,0.359-0.424,0.477-0.702c0.118-0.277,0.178-0.589,0.178-0.935c0-0.352-0.054-0.664-0.164-0.934
			C68.31,33.371,68.159,33.142,67.963,32.954z M67.016,35.437c-0.142,0.208-0.354,0.312-0.637,0.312s-0.497-0.103-0.643-0.307
			c-0.145-0.206-0.217-0.486-0.217-0.842c0-0.357,0.071-0.64,0.213-0.851c0.141-0.211,0.354-0.316,0.638-0.316
			c0.283,0,0.497,0.105,0.642,0.316c0.145,0.21,0.217,0.491,0.217,0.841C67.229,34.947,67.158,35.229,67.016,35.437z M71.983,32.377
			c-0.265,0-0.514,0.066-0.748,0.201c-0.234,0.134-0.443,0.306-0.625,0.514l0.01-0.679l-1.372,0.169v4.088h1.372v-2.809
			c0.087-0.083,0.193-0.157,0.319-0.219c0.124-0.063,0.263-0.094,0.413-0.094c0.182,0,0.322,0.048,0.426,0.143
			c0.101,0.095,0.151,0.268,0.151,0.519v2.459h1.374v-2.862c0-0.448-0.116-0.797-0.348-1.051
			C72.723,32.503,72.399,32.377,71.983,32.377z M77.514,32.859c-0.31-0.321-0.758-0.482-1.342-0.482
			c-0.325,0-0.625,0.053-0.899,0.161c-0.273,0.107-0.511,0.258-0.708,0.451c-0.198,0.194-0.351,0.43-0.46,0.707
			c-0.11,0.277-0.164,0.586-0.164,0.925c0,0.346,0.054,0.655,0.164,0.926c0.109,0.271,0.264,0.5,0.465,0.685
			c0.201,0.185,0.442,0.325,0.726,0.42c0.284,0.095,0.6,0.143,0.947,0.143c0.301,0,0.593-0.03,0.873-0.089
			c0.28-0.059,0.523-0.144,0.729-0.25l-0.132-1.064c-0.207,0.12-0.427,0.216-0.66,0.291c-0.233,0.074-0.462,0.112-0.686,0.112
			c-0.337,0-0.597-0.077-0.78-0.229c-0.183-0.152-0.285-0.368-0.309-0.647v-0.018l2.611-0.045c0.029-0.089,0.051-0.206,0.066-0.349
			c0.015-0.143,0.021-0.271,0.021-0.384C77.978,33.602,77.822,33.182,77.514,32.859z M76.711,34.202l-1.425,0.009
			c0.023-0.239,0.104-0.446,0.239-0.622s0.321-0.264,0.558-0.264c0.212,0,0.37,0.07,0.475,0.21c0.103,0.14,0.153,0.335,0.153,0.586
			V34.202z M23.915,27.044c-0.896-2.348-3.797-4.067-7.241-4.067c-2.524,0-4.756,0.925-6.122,2.342
			c-0.062-0.001-0.125-0.003-0.189-0.003c-5.297,0-9.591,3.495-9.591,7.807c0,2.566,1.521,4.843,3.87,6.267
			c0.33,2.696,3.101,4.802,6.47,4.802c0.812,0,1.589-0.123,2.307-0.347c1.298,0.77,2.878,1.225,4.584,1.225
			c3.882,0,7.118-2.342,7.845-5.447c2.398-1.093,4.047-3.367,4.047-5.996C29.895,30.338,27.314,27.606,23.915,27.044z M7.212,36.774
			c-0.166,0.03-0.364,0.044-0.592,0.044c-0.562,0-0.988-0.128-1.279-0.386c-0.291-0.257-0.423-0.686-0.396-1.286l0.069-1.751
			l-0.687-0.118l0.03-0.97l0.686-0.228l0.02-1.049h1.459l-0.01,1.099h1.137l-0.03,1.197H6.404l-0.049,1.653
			c-0.013,0.211,0.036,0.364,0.147,0.459c0.111,0.096,0.261,0.144,0.451,0.144c0.091,0,0.188-0.011,0.289-0.035
			c0.101-0.023,0.204-0.051,0.308-0.085l0.177,1.188C7.55,36.703,7.379,36.744,7.212,36.774z M12.87,36.67h-1.519v-2.722
			c0-0.277-0.056-0.468-0.169-0.574c-0.113-0.106-0.263-0.159-0.449-0.159c-0.174,0-0.332,0.035-0.474,0.104
			c-0.142,0.07-0.261,0.15-0.357,0.243v3.107H8.383v-6.541l1.519-0.188l-0.01,2.761c0.201-0.231,0.431-0.419,0.691-0.564
			c0.26-0.146,0.539-0.218,0.837-0.218c0.454,0,0.809,0.141,1.065,0.421c0.256,0.281,0.384,0.667,0.384,1.163V36.67z M15.338,36.67
			H13.82v-4.523l1.519-0.188V36.67z M15.23,31.208c-0.157,0.139-0.375,0.208-0.656,0.208c-0.274,0-0.491-0.069-0.651-0.208
			c-0.16-0.139-0.24-0.34-0.24-0.604c0-0.271,0.08-0.475,0.24-0.614c0.16-0.138,0.377-0.208,0.651-0.208
			c0.281,0,0.5,0.069,0.656,0.208c0.157,0.139,0.235,0.343,0.235,0.614C15.466,30.868,15.387,31.069,15.23,31.208z M20.795,36.67
			h-1.519v-2.722c0-0.277-0.057-0.468-0.169-0.574c-0.113-0.106-0.269-0.159-0.469-0.159c-0.167,0-0.32,0.035-0.459,0.104
			c-0.139,0.07-0.256,0.15-0.353,0.243v3.107h-1.519v-4.523l1.519-0.188l-0.01,0.752c0.201-0.23,0.432-0.421,0.691-0.569
			s0.536-0.223,0.828-0.223c0.46,0,0.818,0.141,1.075,0.421c0.256,0.281,0.385,0.667,0.385,1.163V36.67z M24.694,36.67l-1.42-2.157
			h-0.01v2.157h-1.519v-6.541l1.519-0.188v4.106h0.01l1.391-1.979h1.734l-1.675,2.187l1.685,2.415H24.694z"/>
	</g>
</g>
</svg>
