<?xml version="1.0" encoding="utf-8"?>
<!-- Generator: Adobe Illustrator 17.0.0, SVG Export Plug-In . SVG Version: 6.00 Build 0)  -->
<!DOCTYPE svg PUBLIC "-//W3C//DTD SVG 1.1//EN" "http://www.w3.org/Graphics/SVG/1.1/DTD/svg11.dtd">
<svg version="1.1" id="Layer_1" xmlns="http://www.w3.org/2000/svg" xmlns:xlink="http://www.w3.org/1999/xlink" x="0px" y="0px"
	 width="80px" height="80px" viewBox="0 0 80 80" enable-background="new 0 0 80 80" xml:space="preserve">
<g id="SabnQa_1_">
	<g>
		<path d="M71.069,11.342c0.207,0.284,0.151,0.646,0.151,1.136c0,0.491,0,11.594,0,17.607c-0.024,0.097-0.066,0.193-0.068,0.29
			c-0.027,1.213-0.05,2.425-0.072,3.638c-0.024,1.35-0.054,2.701-0.068,4.052c-0.028,2.785-0.053,5.569-0.069,8.354
			c-0.01,1.801-0.002,3.601-0.002,5.402c0,0.721-0.439,1.183-1.157,1.184c-2.89,0.007-5.78,0.002-8.67,0.01
			c-2.636,0.007-5.272,0.033-7.908,0.036c-1.283,0.002-2.567-0.032-3.85-0.043c-0.889-0.007-1.779-0.001-2.765-0.001
			c0.282,0.445,0.51,0.767,0.699,1.11c0.646,1.17,1.279,2.347,1.915,3.522c1.074,1.985,2.143,3.973,3.224,5.954
			c0.186,0.342,0.311,0.728,0.672,0.963c0.094,0.061,0.131,0.255,0.141,0.392c0.076,0.986,0.128,1.975,0.211,2.96
			c0.057,0.673-0.215,1.168-0.892,1.163c-0.845-0.005-1.691,0.041-2.537,0.042c-4.083,0.005-8.165,0.001-12.248,0.006
			c-0.212,0-0.423,0.044-0.635,0.068c-0.62,0-1.239,0-1.859,0c-0.094-0.023-0.188-0.066-0.283-0.066
			c-0.616-0.005-1.233-0.004-1.849,0.002c-0.07,0.001-0.139,0.042-0.208,0.065c-0.344,0-0.688,0-1.033,0
			c-0.105-0.022-0.209-0.063-0.314-0.064c-1.445-0.006-2.89-0.002-4.336-0.011c-0.284-0.002-0.572-0.024-0.851-0.074
			c-0.26-0.046-0.489-0.187-0.501-0.485c-0.035-0.851-0.054-1.702-0.07-2.554c-0.006-0.315-0.052-0.486-0.032-0.898
			c0.011-0.227,0.057-0.746,0.234-1.048c0.113-0.181,0.554-1.134,0.685-1.384c1.662-3.153,2.986-5.653,4.653-8.803
			c0.124-0.234,0.267-0.458,0.423-0.724c-0.134,0-0.203,0-0.271,0c-4.219-0.023-8.438-0.046-12.658-0.069
			c-3.391-0.018-6.781-0.035-10.172-0.051c-0.376-0.002-0.641-0.246-0.678-0.624c-0.012-0.12-0.046-0.238-0.07-0.356
			c0-13.264,0-26.527,0-39.791c0.183-0.468,0.458-0.839,1.003-0.887c0.41-0.037,0.822-0.065,1.234-0.068
			c3.486-0.021,6.972-0.037,10.458-0.052c2.312-0.01,4.623-0.01,6.935-0.022c3.359-0.018,6.719-0.044,10.078-0.067
			c2.855-0.019,5.709-0.047,8.564-0.056c1.156-0.003,2.313,0.052,3.469,0.049c1.638-0.005,3.277-0.054,4.915-0.06
			c2.205-0.008,4.411,0.004,6.616,0.016c1.477,0.008,2.955,0.037,4.432,0.047c1.181,0.008,2.363-0.008,3.544-0.008
			C70.316,11.146,70.862,11.058,71.069,11.342z M69.57,51.73c0-0.112,0.001-0.223,0-0.335c-0.019-1.603-0.037-3.206-0.059-4.808
			c-0.047-3.461-0.098-6.922-0.145-10.383c-0.025-1.799-0.061-3.597-0.064-5.396c-0.01-5.266-0.006-10.531-0.007-15.797
			c0-0.707,0-1.413,0-2.139c-1.041,0-2.037,0.002-3.033,0c-9.44-0.022-18.881-0.042-28.321-0.07
			c-4.289-0.013-8.577-0.053-12.866-0.065c-4.348-0.012-8.696-0.003-13.045-0.006c-0.228,0-0.457-0.027-0.685-0.029
			c-0.638-0.004-1.276-0.001-1.915-0.001c0,12.972,0,25.945,0,38.909C29.456,51.649,49.483,51.689,69.57,51.73z M51.617,64.293
			c-0.07-0.153-0.117-0.277-0.179-0.392c-1.044-1.944-2.093-3.887-3.136-5.832c-0.844-1.575-1.686-3.152-2.513-4.736
			c-0.1-0.192-0.192-0.265-0.406-0.261c-1.73,0.028-3.461,0.054-5.191,0.063c-2.362,0.012-4.724,0.006-7.087,0.018
			c-0.12,0.001-0.298,0.072-0.35,0.165c-0.727,1.309-1.444,2.624-2.15,3.944c-1.111,2.079-2.212,4.164-3.317,6.247
			c-0.135,0.255-0.267,0.511-0.41,0.785C35.141,64.293,43.359,64.293,51.617,64.293z M26.989,67.978c8.429,0,16.853,0,25.302,0
			c0-0.718-0.02-1.436,0.008-2.151c0.014-0.36-0.108-0.44-0.449-0.435c-2.189,0.036-4.379,0.071-6.569,0.068
			c-4.301-0.007-8.601-0.041-12.902-0.059c-1.721-0.007-3.442-0.001-5.163-0.001c-0.124,0-0.247,0-0.38,0
			C26.887,66.258,26.936,67.084,26.989,67.978z"/>
		<path d="M67.276,19.77c0,1.62,0.002,3.24,0,4.859c-0.003,2.131-0.007,4.263-0.016,6.394c-0.008,1.898-0.028,3.796-0.033,5.695
			c-0.006,2.63-0.002,5.26-0.002,7.889c0,1.321,0.016,2.642-0.007,3.963c-0.01,0.551-0.18,0.8-0.843,0.798
			c-1.922-0.007-3.844,0.043-5.765,0.044c-1.822,0.001-3.643-0.044-5.465-0.048c-2.596-0.005-5.192,0.014-7.788,0.014
			c-2.442,0-4.885-0.019-7.327-0.013c-1.522,0.004-3.044,0.049-4.565,0.055c-3.281,0.013-6.561,0.008-9.842,0.02
			c-3.989,0.014-7.977,0.041-11.966,0.049c-0.322,0.001-0.658-0.061-0.963-0.165c-0.327-0.111-0.481-0.38-0.473-0.75
			c0.051-2.403,0.115-4.807,0.13-7.211c0.019-3.027-0.002-6.055-0.011-9.083c-0.01-3.114-0.033-6.229-0.04-9.343
			c-0.004-1.9,0.011-3.8,0.022-5.7c0.002-0.343-0.01-0.693,0.057-1.025c0.039-0.196,0.182-0.449,0.345-0.52
			c0.168-0.073,0.419,0.041,0.633,0.08c0.12,0.022,0.238,0.085,0.355,0.08c0.388-0.016,0.774-0.079,1.162-0.079
			c6.757-0.005,13.514-0.004,20.271-0.004c1.879,0,3.758,0.006,5.637-0.002c2.208-0.01,4.416-0.042,6.624-0.048
			c4.518-0.012,9.035-0.015,13.553-0.017c1.869-0.001,3.738,0.008,5.607,0.014c0.417,0.001,0.657,0.237,0.658,0.651
			c0.003,1.135,0.001,2.269,0.001,3.404C67.242,19.77,67.259,19.77,67.276,19.77z M13.651,22.208c0,8.724,0,17.377,0,26.064
			c17.5,0.047,34.943,0.094,52.384,0.141c0-8.783,0-17.507,0-26.206C48.554,22.208,31.1,22.208,13.651,22.208z M66.046,16.876
			c-17.495-0.061-34.959,0.078-52.429-0.102c0,1.489,0,2.985,0,4.492c17.485,0.047,34.949,0.093,52.429,0.14
			C66.046,19.887,66.046,18.4,66.046,16.876z"/>
		<path d="M51.735,27.167c0,0.413,0.001,0.826,0,1.238c-0.002,0.395-0.204,0.576-0.592,0.58c-1.969,0.018-3.938,0.039-5.908,0.067
			c-0.732,0.011-1.464,0.059-2.196,0.064c-4.31,0.028-8.619,0.048-12.929,0.071c-0.103,0.001-0.21,0.016-0.309-0.004
			c-0.574-0.116-0.899-0.07-0.853-0.901c0.045-0.823,0.011-1.652,0.085-2.471c0.074-0.82,0.326-0.964,1.199-1.016
			c0.925-0.056,1.853-0.073,2.78-0.074c5.55-0.006,11.1-0.002,16.65-0.006c0.433,0,0.866-0.054,1.299-0.062
			c0.504-0.01,0.672,0.154,0.703,0.663c0.038,0.616,0.066,1.233,0.099,1.85C51.754,27.166,51.745,27.166,51.735,27.167z
			 M30.027,28.279c0.114,0.01,0.159,0.018,0.204,0.018c3.153-0.021,6.306-0.032,9.459-0.066c2.922-0.031,5.844-0.089,8.766-0.13
			c0.718-0.01,1.437-0.002,2.188-0.002c0-0.854,0-1.659,0-2.4c-6.88,0-13.764,0-20.617,0C30.027,26.611,30.027,27.432,30.027,28.279
			z"/>
		<path d="M32.222,37.138c1.808,0,3.615-0.005,5.423,0.001c3.161,0.01,6.322,0.022,9.484,0.043c1.224,0.008,2.448,0.044,3.673,0.066
			c0.091,0.002,0.193,0.02,0.271-0.013c0.338-0.143,0.412,0.123,0.517,0.327c0.04,0.077,0.047,0.177,0.049,0.267
			c0.025,1.063,0.071,2.126,0.055,3.188c-0.007,0.439-0.255,0.533-0.682,0.439c-0.235-0.052-0.49-0.017-0.736-0.01
			c-0.583,0.018-1.165,0.051-1.748,0.065c-1.157,0.028-2.313,0.046-3.47,0.071c-0.938,0.02-1.876,0.054-2.815,0.066
			c-2.199,0.028-4.399,0.073-6.598,0.062c-2.002-0.009-4.003-0.081-6.005-0.129c-0.49-0.012-0.701-0.399-0.463-0.817
			c0.046-0.081,0.049-0.195,0.049-0.293c0.004-0.814,0.006-1.628,0-2.442c-0.001-0.093-0.033-0.196-0.08-0.278
			c-0.149-0.257-0.097-0.455,0.173-0.559c0.115-0.044,0.242-0.079,0.364-0.08c0.846-0.007,1.693-0.004,2.54-0.004
			C32.221,37.118,32.222,37.128,32.222,37.138z M50.759,38.235c-6.938-0.08-13.848-0.159-20.708-0.238c0,0.902,0,1.755,0,2.579
			c1.7,0.062,3.345,0.16,4.991,0.171c2.234,0.015,4.469-0.039,6.704-0.058c1.032-0.009,2.064,0.007,3.096-0.014
			c0.995-0.02,1.989-0.082,2.984-0.108c0.973-0.026,1.946-0.032,2.933-0.047C50.759,39.717,50.759,38.987,50.759,38.235z"/>
		<path d="M32.462,31.189c2.957,0,5.913-0.007,8.87,0.003c1.523,0.005,3.046,0.044,4.569,0.066c1.73,0.024,3.46,0.046,5.19,0.069
			c0.407,0.005,0.628,0.187,0.635,0.598c0.017,0.951,0.016,1.903,0.002,2.854c-0.005,0.316-0.24,0.455-0.529,0.464
			c-1.795,0.052-3.591,0.122-5.386,0.135c-2.911,0.021-5.823,0.01-8.734-0.002c-1.706-0.007-3.413-0.037-5.119-0.064
			c-0.56-0.009-1.12-0.055-1.68-0.056c-0.13,0-0.26,0.116-0.392,0.174c-0.167,0.072-0.355,0.222-0.5,0.19
			c-0.258-0.058-0.384-0.276-0.372-0.575c0.039-0.958,0.062-1.917,0.08-2.875c0.002-0.114-0.055-0.23-0.09-0.344
			c-0.042-0.137-0.168-0.338-0.119-0.395c0.117-0.139,0.312-0.291,0.479-0.296c1.031-0.026,2.064-0.013,3.095-0.013
			C32.462,31.143,32.462,31.166,32.462,31.189z M50.766,32.184C43.772,32.122,36.821,32.061,29.906,32c0,0.867,0,1.682,0,2.446
			c0.692,0,1.322-0.008,1.951,0.002c2.151,0.034,4.302,0.103,6.453,0.104c3.84,0.002,7.679-0.036,11.519-0.061
			c0.25-0.002,0.501-0.028,0.747-0.071c0.072-0.012,0.181-0.118,0.183-0.182C50.771,33.557,50.766,32.875,50.766,32.184z"/>
		<path d="M20.996,20.642c-0.471-0.049-0.868-0.193-1.192-0.502c-0.441-0.421-0.481-1.054-0.114-1.54
			c0.454-0.601,1.665-0.759,2.26-0.295c0.694,0.542,0.614,1.629-0.169,2.064C21.542,20.501,21.259,20.553,20.996,20.642z"/>
		<path d="M16.921,20.591c-0.338-0.142-0.719-0.225-1.004-0.438c-0.552-0.412-0.607-1.071-0.105-1.595
			c0.492-0.514,1.422-0.543,1.962-0.092c0.403,0.337,0.531,0.797,0.36,1.29C17.976,20.211,17.508,20.511,16.921,20.591z"/>
	</g>
</g>
</svg>
