<?xml version="1.0" encoding="utf-8"?>
<!-- Generator: Adobe Illustrator 17.0.0, SVG Export Plug-In . SVG Version: 6.00 Build 0)  -->
<!DOCTYPE svg PUBLIC "-//W3C//DTD SVG 1.1//EN" "http://www.w3.org/Graphics/SVG/1.1/DTD/svg11.dtd">
<svg version="1.1" id="Layer_1" xmlns="http://www.w3.org/2000/svg" xmlns:xlink="http://www.w3.org/1999/xlink" x="0px" y="0px"
	 width="80px" height="80px" viewBox="0 0 80 80" enable-background="new 0 0 80 80" xml:space="preserve">
<path fill="#FFFFFF" d="M40,2.544c-20.645,0-37.385,16.739-37.385,37.385S19.355,77.313,40,77.313
	c18.828,0,34.394-13.918,36.996-32.021c0.25-1.233,0.368-2.506,0.347-3.82c0.026-0.508,0.042-1.025,0.042-1.544
	C77.385,19.281,60.65,2.544,40,2.544z M57.206,33.144c0.016,0.347,0.021,0.694,0.021,1.043c0,10.675-8.122,22.984-22.976,22.984
	c-4.563,0-8.805-1.335-12.38-3.632c0.631,0.076,1.272,0.112,1.924,0.112c3.783,0,7.267-1.288,10.033-3.457
	c-3.536-0.063-6.518-2.399-7.548-5.606c0.493,0.096,1.004,0.149,1.523,0.149c0.733,0,1.447-0.102,2.128-0.284
	c-3.697-0.743-6.482-4.008-6.482-7.919c0-0.042,0-0.07,0-0.102c1.09,0.6,2.339,0.967,3.661,1.009
	c-2.169-1.452-3.596-3.921-3.596-6.722c0-1.481,0.396-2.868,1.095-4.065c3.981,4.889,9.937,8.101,16.648,8.443
	c-0.138-0.592-0.209-1.212-0.209-1.843c0-4.461,3.616-8.078,8.078-8.078c2.323,0,4.42,0.983,5.893,2.553
	c1.843-0.362,3.569-1.035,5.134-1.961c-0.605,1.885-1.885,3.468-3.554,4.466c1.635-0.188,3.194-0.626,4.639-1.267
	C60.15,30.581,58.786,32.002,57.206,33.144z"/>
</svg>
