<svg baseProfile="tiny" xmlns="http://www.w3.org/2000/svg" width="208" height="91" preserveAspectRatio="xMaxYMax meet" viewBox="0 0 208 91" ><path fill-rule="evenodd" clip-rule="evenodd" fill="#3A9DCD" d="M11.264 32.17h57.404c.58 0 1.049.47 1.049 1.049v8.388c0 .579-.469 1.048-1.049 1.048h-57.404c-.579 0-1.049-.469-1.049-1.048v-8.388c0-.579.47-1.049 1.049-1.049zM75.41 36.014h-4.456c-.29 0-.524.235-.524.524v9.436c0 .29.234.524.524.524h4.456c.289 0 .524-.036.524-.524 0-1.592-2.621-4.665-2.621-4.665s2.621-2.352 2.621-4.771c.001-.535-.235-.524-.524-.524zM3.899 36.539c0 2.419 2.621 4.771 2.621 4.771s-2.621 3.073-2.621 4.665c0 .488.235.524.524.524h4.457c.29 0 .524-.234.524-.524v-9.436c0-.29-.234-.524-.524-.524h-4.457c-.289-.001-.524-.012-.524.524z"/><g transform="translate(104)"><path fill="#fff" d="M14.315 47.341c-.316-1.415-2.038-2.229-3.847-1.817-1.809.411-3.02 1.894-2.704 3.309.315 1.414 2.038 2.229 3.847 1.816 1.809-.412 3.02-1.893 2.704-3.308zm.64 3.406c-1.03.234-1.72 1.077-1.54 1.883.179.807 1.161 1.269 2.19 1.034 1.03-.233 1.72-1.077 1.54-1.883s-1.161-1.269-2.19-1.034zm21.247-17.784c-.153-.188-.338-.333-.553-.434-.215-.102-.45-.152-.704-.152-.266 0-.493.06-.682.178-.189.12-.349.247-.478.385l.009-2.352-1.372.17v6.045l1.284-.179c.136.048.291.088.465.12.174.033.329.05.465.05.277 0 .542-.052.792-.156.25-.104.471-.255.66-.452.188-.197.337-.434.447-.711s.164-.589.164-.935c0-.334-.044-.633-.133-.898-.089-.265-.211-.492-.364-.679zm-1.113 2.486c-.158.212-.382.318-.675.318-.245 0-.452-.057-.621-.17v-1.833c.093-.083.192-.152.297-.206.105-.053.234-.08.386-.08.28 0 .491.1.634.299s.214.479.214.836c.001.346-.077.624-.235.836zm3.637-2.428v-.608l-1.373.169v4.088h1.373v-2.424c.124-.221.259-.377.407-.47.147-.092.307-.139.478-.139.178 0 .349.042.514.125l.274-1.216c-.218-.113-.445-.169-.681-.169-.42 0-.751.215-.992.644zm5.578-.067c-.194-.188-.425-.33-.69-.429-.266-.098-.555-.147-.868-.147-.312 0-.604.049-.876.147-.271.099-.509.244-.713.434-.204.191-.363.425-.479.703-.115.277-.172.591-.172.943s.056.666.168.939.265.505.46.693c.194.188.426.33.695.425.269.096.557.143.863.143s.597-.05.867-.152c.272-.102.508-.247.709-.438.201-.19.359-.424.479-.702.118-.277.177-.589.177-.935 0-.352-.055-.664-.164-.934-.11-.273-.261-.502-.456-.69zm-.948 2.483c-.142.208-.354.312-.638.312s-.497-.103-.641-.307c-.146-.206-.219-.486-.219-.842 0-.357.071-.64.213-.851.142-.211.354-.316.638-.316s.497.105.642.316c.146.21.218.491.218.841 0 .357-.071.639-.213.847zm6.571-.208l-.709-2.719h-1.425l-.699 2.763-.558-2.763h-1.382l1.159 4.177h1.382l.788-2.737.788 2.737h1.381l1.17-4.177h-1.418l-.477 2.719zm5.091-2.852c-.264 0-.513.066-.747.201-.234.134-.443.306-.625.514l.01-.679-1.374.169v4.088h1.374v-2.809c.086-.083.192-.157.318-.219.125-.063.264-.094.415-.094.18 0 .321.048.423.143.103.095.153.268.153.519v2.459h1.372v-2.862c0-.448-.115-.797-.348-1.051-.231-.253-.555-.379-.971-.379zm5.106 2.142c-.132-.104-.293-.192-.484-.264-.191-.071-.407-.134-.648-.188-.224-.047-.397-.099-.521-.156-.124-.057-.186-.141-.186-.255 0-.208.167-.312.503-.312.193 0 .419.033.675.098.255.065.502.158.736.276l.273-.983-.354-.139-.429-.116c-.151-.033-.303-.059-.457-.076l-.434-.026c-.283 0-.539.032-.766.098-.229.066-.418.158-.571.277-.153.12-.271.259-.354.42-.082.161-.124.34-.124.536 0 .204.037.379.111.528.073.149.179.277.313.384.136.107.301.197.497.269.194.071.409.131.646.179.235.053.411.109.525.166.115.057.174.145.174.264 0 .227-.187.339-.559.339-.242 0-.493-.034-.753-.103-.259-.069-.511-.165-.752-.291l-.266.993c.106.06.231.112.377.156l.446.116.47.071.452.022c.301 0 .567-.036.801-.107.232-.072.43-.17.588-.294.16-.126.28-.272.359-.439s.119-.343.119-.528c0-.208-.034-.387-.105-.536-.069-.148-.169-.274-.302-.379zm3.275 1.136l-.262.032c-.172 0-.307-.043-.407-.13-.102-.086-.145-.225-.133-.416l.044-1.494h1.098l.026-1.083h-1.026l.009-.992h-1.319l-.018.948-.62.206-.026.876.62.107-.062 1.584c-.023.542.096.93.359 1.162.262.232.646.349 1.154.349.207 0 .386-.013.536-.04.151-.027.306-.064.465-.112l-.159-1.073-.279.076zm4.564-2.701c-.194-.188-.425-.33-.689-.429-.267-.098-.556-.147-.868-.147s-.605.049-.877.147c-.271.099-.51.244-.712.434-.204.191-.363.425-.479.703-.115.277-.173.591-.173.943s.056.666.168.939.266.505.461.693c.194.188.426.33.694.425.269.096.557.143.863.143s.598-.05.868-.152c.271-.102.508-.247.709-.438.199-.19.359-.424.477-.702.118-.277.178-.589.178-.935 0-.352-.054-.664-.164-.934-.109-.273-.26-.502-.456-.69zm-.947 2.483c-.142.208-.354.312-.637.312s-.497-.103-.643-.307c-.145-.206-.217-.486-.217-.842 0-.357.071-.64.213-.851.141-.211.354-.316.638-.316.283 0 .497.105.642.316.145.21.217.491.217.841 0 .357-.071.639-.213.847zm4.967-3.06c-.265 0-.514.066-.748.201-.234.134-.443.306-.625.514l.01-.679-1.372.169v4.088h1.372v-2.809c.087-.083.193-.157.319-.219.124-.063.263-.094.413-.094.182 0 .322.048.426.143.101.095.151.268.151.519v2.459h1.374v-2.862c0-.448-.116-.797-.348-1.051-.232-.253-.556-.379-.972-.379zm5.531.482c-.31-.321-.758-.482-1.342-.482-.325 0-.625.053-.899.161-.273.107-.511.258-.708.451-.198.194-.351.43-.46.707-.11.277-.164.586-.164.925 0 .346.054.655.164.926.109.271.264.5.465.685.201.185.442.325.726.42.284.095.6.143.947.143.301 0 .593-.03.873-.089s.523-.144.729-.25l-.132-1.064c-.207.12-.427.216-.66.291-.233.074-.462.112-.686.112-.337 0-.597-.077-.78-.229-.183-.152-.285-.368-.309-.647v-.018l2.611-.045c.029-.089.051-.206.066-.349l.021-.384c.002-.521-.154-.941-.462-1.264zm-.803 1.343l-1.425.009c.023-.239.104-.446.239-.622s.321-.264.558-.264c.212 0 .37.07.475.21.103.14.153.335.153.586v.081zm-52.796-7.158c-.896-2.348-3.797-4.067-7.241-4.067-2.524 0-4.756.925-6.122 2.342l-.189-.003c-5.297 0-9.591 3.495-9.591 7.807 0 2.566 1.521 4.843 3.87 6.267.33 2.696 3.101 4.802 6.47 4.802.812 0 1.589-.123 2.307-.347 1.298.77 2.878 1.225 4.584 1.225 3.882 0 7.118-2.342 7.845-5.447 2.398-1.093 4.047-3.367 4.047-5.996 0-3.289-2.581-6.021-5.98-6.583zm-16.703 9.73c-.166.03-.364.044-.592.044-.562 0-.988-.128-1.279-.386-.291-.257-.423-.686-.396-1.286l.069-1.751-.687-.118.03-.97.686-.228.02-1.049h1.459l-.01 1.099h1.137l-.03 1.197h-1.215l-.049 1.653c-.013.211.036.364.147.459.111.096.261.144.451.144l.289-.035.308-.085.177 1.188c-.177.053-.348.094-.515.124zm5.658-.104h-1.519v-2.722c0-.277-.056-.468-.169-.574-.113-.106-.263-.159-.449-.159-.174 0-.332.035-.474.104-.142.07-.261.15-.357.243v3.107h-1.519v-6.541l1.519-.188-.01 2.761c.201-.231.431-.419.691-.564.26-.146.539-.218.837-.218.454 0 .809.141 1.065.421.256.281.384.667.384 1.163v3.167zm2.468 0h-1.518v-4.523l1.519-.188v4.711zm-.108-5.462c-.157.139-.375.208-.656.208-.274 0-.491-.069-.651-.208-.16-.139-.24-.34-.24-.604 0-.271.08-.475.24-.614.16-.138.377-.208.651-.208.281 0 .5.069.656.208.157.139.235.343.235.614.001.264-.078.465-.235.604zm5.565 5.462h-1.519v-2.722c0-.277-.057-.468-.169-.574-.113-.106-.269-.159-.469-.159-.167 0-.32.035-.459.104-.139.07-.256.15-.353.243v3.107h-1.519v-4.523l1.519-.188-.01.752c.201-.23.432-.421.691-.569s.536-.223.828-.223c.46 0 .818.141 1.075.421.256.281.385.667.385 1.163v3.168zm3.899 0l-1.42-2.157h-.01v2.157h-1.519v-6.541l1.519-.188v4.106h.01l1.391-1.979h1.734l-1.675 2.187 1.685 2.415h-1.715z"/></g></svg>